<svg width="248" height="408" viewBox="0 0 248 408" fill="none" xmlns="http://www.w3.org/2000/svg">
<path d="M173.191 85.0523C173.191 85.0523 194.123 73.4483 197.08 70.2633C200.038 67.0783 199.583 67.0783 202.313 65.0303C205.043 62.9823 230.298 52.0613 230.298 52.0613C230.298 52.0613 235.986 50.4683 237.351 53.8813C237.351 53.8813 223.927 69.1253 222.335 71.1723C220.742 73.2203 210.276 78.9083 210.276 78.9083C210.276 78.9083 201.403 87.3263 199.355 90.9673C197.307 94.6073 177.968 107.348 177.968 107.348L173.191 85.0523Z" fill="#FFBE9D"/>
<path d="M237.352 54.4842C237.352 54.4842 243.925 49.6622 244.944 43.8212C245.964 37.9792 247.54 35.3832 247.54 35.3832C247.54 35.3832 248.467 31.8592 247.076 32.0452C245.685 32.2312 243.367 34.2702 242.162 38.2582C242.162 38.2582 240.308 41.1322 239.751 40.5762C239.195 40.0202 238.731 38.4432 238.082 35.1052C237.433 31.7672 235.3 24.7202 234.28 24.6272C233.26 24.5342 233.167 25.5542 233.26 27.1312C233.353 28.7072 235.764 38.4432 234.465 38.5362C233.167 38.6292 230.162 29.1062 228.252 28.1512C227.696 27.8732 226.861 28.5222 226.861 28.5222L228.901 35.3842L226.861 34.2712C226.861 34.2712 226.768 35.5692 226.861 36.8672C226.954 38.1652 230.57 45.5832 230.477 46.8812C230.384 48.1792 228.993 48.9212 228.993 48.9212C228.993 48.9212 223.708 46.6032 223.708 47.7162C223.708 48.8292 224.913 49.4782 226.304 50.4982C227.695 51.5182 228.049 50.2772 227.973 51.6912C227.897 53.1052 227.88 54.8562 228.715 55.2262C229.552 55.5972 237.352 54.4842 237.352 54.4842Z" fill="#FFBE9D"/>
<path d="M235.474 50.5092C235.429 50.5702 234.992 50.2292 234.167 50.3582C233.362 50.4812 232.214 50.8492 231.033 51.3502C228.645 52.3702 227.045 53.8032 226.944 53.6852C226.839 53.6032 228.337 51.9392 230.826 50.8722C232.065 50.3502 233.228 50.0312 234.141 49.9902C235.092 49.9482 235.548 50.4772 235.474 50.5092Z" fill="#EB996E"/>
<path d="M163.808 374.907L161.56 394.502C161.56 394.502 180.723 403.369 180.66 407.03L142.509 404.035L144.759 373.359L163.808 374.907Z" fill="#9A9A9A"/>
<path d="M149.892 391.923C149.138 392.067 148.562 392.857 148.675 393.616C148.788 394.376 149.586 394.968 150.343 394.837C151.1 394.707 151.819 393.779 151.622 393.037C151.425 392.295 150.449 391.651 149.746 391.959" fill="#E0E0E0"/>
<path d="M142.418 404.836L142.633 401.864L179.305 404.977C179.305 404.977 180.946 405.849 180.66 407.031L142.418 404.836Z" fill="#263238"/>
<path d="M162.193 394.357C162.172 394.543 161.234 394.554 160.271 395.081C159.293 395.583 158.757 396.353 158.592 396.265C158.423 396.215 158.788 395.123 159.966 394.506C161.138 393.878 162.247 394.189 162.193 394.357Z" fill="#263238"/>
<path d="M166.065 396.326C166.094 396.51 165.262 396.763 164.567 397.501C163.851 398.219 163.624 399.058 163.439 399.036C163.262 399.051 163.218 397.95 164.099 397.049C164.973 396.14 166.075 396.148 166.065 396.326Z" fill="#263238"/>
<path d="M167.962 401.294C167.79 401.32 167.603 400.369 168.162 399.387C168.714 398.4 169.624 398.067 169.69 398.228C169.783 398.389 169.175 398.892 168.728 399.706C168.263 400.508 168.148 401.29 167.962 401.294Z" fill="#263238"/>
<path d="M162.21 389.834C162.119 389.998 161.284 389.674 160.225 389.663C159.167 389.63 158.32 389.92 158.235 389.752C158.138 389.609 158.992 388.982 160.239 389.013C161.486 389.033 162.313 389.695 162.21 389.834Z" fill="#263238"/>
<path d="M124.714 376.31L123.592 396.002C123.592 396.002 143.231 403.756 143.378 407.416L105.118 406.611L105.608 375.856L124.714 376.31Z" fill="#9A9A9A"/>
<path d="M111.795 394.096C111.05 394.283 110.521 395.105 110.677 395.856C110.833 396.608 111.664 397.153 112.412 396.979C113.16 396.806 113.825 395.838 113.586 395.109C113.347 394.379 112.336 393.793 111.652 394.141" fill="#E0E0E0"/>
<path d="M105.073 407.416L105.117 404.436L141.907 405.443C141.907 405.443 143.595 406.22 143.377 407.416H105.073Z" fill="#263238"/>
<path d="M124.216 395.821C124.206 396.008 123.27 396.073 122.338 396.654C121.391 397.211 120.9 398.011 120.73 397.933C120.559 397.893 120.861 396.782 122.001 396.098C123.135 395.404 124.26 395.651 124.216 395.821Z" fill="#263238"/>
<path d="M128.194 397.565C128.233 397.747 127.417 398.047 126.766 398.824C126.092 399.582 125.914 400.433 125.728 400.421C125.552 400.447 125.445 399.35 126.274 398.399C127.092 397.442 128.193 397.387 128.194 397.565Z" fill="#263238"/>
<path d="M130.372 402.416C130.201 402.452 129.961 401.513 130.462 400.5C130.956 399.483 131.846 399.098 131.921 399.255C132.023 399.411 131.445 399.948 131.046 400.786C130.628 401.615 130.558 402.402 130.372 402.416Z" fill="#263238"/>
<path d="M123.973 391.305C123.891 391.474 123.039 391.198 121.982 391.248C120.924 391.276 120.095 391.613 120 391.451C119.895 391.314 120.712 390.639 121.958 390.598C123.204 390.547 124.068 391.16 123.973 391.305Z" fill="#263238"/>
<path d="M81.9549 45.4163C81.9709 45.3823 82.5869 45.6513 83.6969 46.1373C84.8089 46.6083 86.4119 47.3423 88.4989 47.8513C90.5499 48.3463 93.2509 48.5463 95.8029 47.3483C97.0669 46.7563 98.1619 45.7363 98.9749 44.4443C99.7979 43.1553 100.384 41.6563 101.031 40.1303C102.304 37.0453 104.08 34.3523 105.972 32.1743C107.879 30.0013 109.889 28.3173 111.7 27.1043C113.515 25.8933 115.097 25.0943 116.223 24.6343C116.775 24.3793 117.231 24.2443 117.53 24.1303C117.832 24.0253 117.994 23.9783 118 23.9953C118.017 24.0383 117.395 24.2933 116.307 24.8183C115.215 25.3323 113.676 26.1733 111.909 27.4073C110.147 28.6433 108.191 30.3323 106.335 32.4873C104.493 34.6513 102.765 37.2943 101.511 40.3333C100.868 41.8483 100.27 43.3753 99.4049 44.7193C98.5539 46.0663 97.3579 47.1673 96.0109 47.7813C93.2929 49.0243 90.4989 48.7573 88.4119 48.2083C86.2909 47.6403 84.7029 46.8493 83.6139 46.3203C83.0699 46.0503 82.6539 45.8293 82.3729 45.6753C82.0899 45.5213 81.9469 45.4333 81.9549 45.4163Z" fill="#263238"/>
<path d="M150.931 88.4893C150.913 88.4893 150.908 88.3003 150.915 87.9403C150.941 87.5823 150.896 87.0413 151.019 86.3653C151.149 84.9963 151.65 83.0483 152.596 80.7833C153.54 78.5143 154.981 75.9723 156.52 73.1433C158.034 70.3163 159.681 67.1343 160.348 63.5053C160.991 59.8723 160.585 56.3003 159.83 53.1983C159.06 50.0853 157.936 47.4003 156.928 45.1883C155.909 42.9773 154.994 41.2273 154.379 40.0093C154.095 39.4423 153.862 38.9773 153.675 38.6033C153.518 38.2793 153.444 38.1053 153.46 38.0963C153.476 38.0873 153.581 38.2453 153.767 38.5533C153.977 38.9143 154.238 39.3643 154.557 39.9133C155.227 41.1033 156.194 42.8293 157.261 45.0313C158.316 47.2353 159.487 49.9283 160.295 53.0823C161.087 56.2223 161.52 59.8653 160.86 63.5963C160.173 67.3303 158.481 70.5493 156.941 73.3733C155.373 76.1983 153.91 78.7043 152.934 80.9293C151.956 83.1493 151.409 85.0503 151.219 86.3943C151.002 87.7323 150.988 88.4923 150.931 88.4893Z" fill="#263238"/>
<path d="M127.279 22.4583C122.263 20.4803 116.379 22.8253 112.632 26.7023C108.885 30.5793 106.797 35.7193 104.726 40.6973C102.655 45.6753 100.407 50.7793 96.4489 54.4413C94.0129 56.6963 90.9629 58.3693 89.1359 61.1423C87.1149 64.2103 86.8909 68.1963 84.8709 71.2653C79.7449 79.0503 66.5589 76.8893 60.6879 84.1293C58.6069 86.6953 57.8219 90.0433 56.3799 93.0153C54.9379 95.9873 52.2939 98.8683 48.9929 98.7633C52.2879 102.187 57.8669 103.149 62.1179 101.027C62.5879 105.252 55.1969 107.376 55.9849 111.554C56.3039 113.243 57.9099 114.341 59.4229 115.156C75.5609 123.857 97.0929 121.137 110.56 108.696C115.635 104.007 119.539 98.2093 124.175 93.0853C128.811 87.9613 134.535 83.3463 141.346 82.1843L127.279 22.4583Z" fill="#263238"/>
<path d="M106.007 53.0242C105.511 44.8732 104.965 36.3962 109.885 29.8782C114.268 24.0702 120.254 21.1872 127.359 19.6172C130.857 18.8442 135.188 19.4042 138.655 20.3112C143.408 21.5542 146.416 25.8332 149.553 29.6142C155.838 37.1882 158.433 49.0132 156.59 52.9802L125.566 81.6032C118.298 79.9732 113.615 79.5562 110.069 73.0062C107.653 68.5462 106.315 58.0872 106.007 53.0242Z" fill="#263238"/>
<path d="M112.557 36.7991L133.485 24.0761C140.516 21.0701 148.104 28.5311 150.809 35.6841C153.814 43.6301 157.17 53.4511 158.071 59.7921C159.78 71.8181 151.715 75.5031 150.824 75.9901C150.769 76.0201 150.769 76.0201 150.769 76.0201C150.835 76.2781 151.36 78.1711 152.11 80.7841L154.623 88.9131C154.595 99.6991 150.277 108.724 136.222 107.348L110.066 42.3141C109.338 40.1081 110.421 37.7121 112.557 36.7991Z" fill="#FFBE9D"/>
<path d="M146.038 47.178C146.126 46.91 147.535 47.312 149.022 46.683C150.518 46.079 151.256 44.79 151.502 44.92C151.619 44.974 151.595 45.401 151.28 45.976C150.971 46.546 150.327 47.245 149.398 47.629C148.468 48.012 147.529 47.969 146.918 47.778C146.297 47.589 145.991 47.301 146.038 47.178Z" fill="#263238"/>
<path d="M130.282 51.4732C130.411 51.2092 131.867 51.7082 133.538 51.1752C135.216 50.6662 136.173 49.4172 136.419 49.5642C136.537 49.6272 136.458 50.0542 136.044 50.6132C135.64 51.1682 134.862 51.8282 133.817 52.1542C132.773 52.4782 131.774 52.3712 131.146 52.1382C130.508 51.9052 130.216 51.5942 130.282 51.4732Z" fill="#263238"/>
<path d="M143.769 57.4632C143.732 57.3702 144.719 56.8692 146.343 56.1322C146.758 55.9562 147.137 55.7462 147.12 55.4322C147.126 55.0912 146.804 54.6852 146.443 54.2502C145.721 53.3372 144.965 52.3802 144.172 51.3772C140.983 47.2742 138.533 43.8462 138.699 43.7192C138.865 43.5922 141.586 46.8152 144.775 50.9182C145.551 51.9332 146.292 52.9002 146.999 53.8262C147.311 54.2632 147.76 54.7302 147.739 55.4392C147.722 55.7952 147.479 56.1242 147.227 56.2822C146.978 56.4502 146.738 56.5292 146.53 56.6072C144.857 57.2242 143.804 57.5562 143.769 57.4632Z" fill="#263238"/>
<path d="M150.782 76.0261C150.782 76.0261 142.765 79.0721 133.162 76.6951C133.162 76.6951 139.807 83.9641 151.625 79.0801L150.782 76.0261Z" fill="#EB996E"/>
<path d="M139.19 62.3011C139.43 61.3721 140.174 60.6931 141.055 60.3901C142.326 59.9531 143.538 60.0621 144.736 60.9891C145.126 61.2441 145.398 62.2171 145.362 62.5191C145.326 62.8221 145.377 62.6631 145.226 62.9101C144.679 63.8041 144.091 64.7101 143.197 65.2371C142.304 65.7641 141.023 65.8181 140.103 65.0701C139.288 64.4051 138.95 63.2301 139.19 62.3011Z" fill="#EB996E"/>
<path d="M138.904 60.297C139.171 60.196 139.746 62.013 141.707 62.814C143.667 63.621 145.541 62.808 145.635 63.057C145.696 63.163 145.314 63.546 144.503 63.825C143.709 64.105 142.457 64.215 141.257 63.725C140.059 63.232 139.319 62.304 139.023 61.578C138.715 60.84 138.776 60.326 138.904 60.297Z" fill="#263238"/>
<path d="M133.243 41.8442C133.247 42.3522 131.526 42.7512 129.682 43.7022C127.819 44.6162 126.473 45.7602 126.067 45.4542C125.881 45.3052 125.996 44.7832 126.464 44.1162C126.927 43.4512 127.77 42.6702 128.88 42.1102C129.992 41.5522 131.121 41.3412 131.931 41.3662C132.746 41.3872 133.234 41.6062 133.243 41.8442Z" fill="#263238"/>
<path d="M149.523 39.0701C149.227 39.5061 147.837 39.2511 146.221 39.4191C144.6 39.5371 143.272 40.0311 142.909 39.6541C142.748 39.4691 142.917 39.0471 143.47 38.6031C144.015 38.1611 144.964 37.7411 146.076 37.6421C147.188 37.5451 148.191 37.7921 148.799 38.1331C149.417 38.4731 149.651 38.8591 149.523 39.0701Z" fill="#263238"/>
<path d="M133.299 22.5991C135.332 27.3461 134.247 32.1531 133.489 37.2611C133.277 38.6881 132.438 41.1771 131.664 42.3941C130.889 43.6111 129.468 44.5241 128.028 44.6001C129.374 41.3181 132.074 37.1271 131.251 33.6771C130.727 37.5581 130.181 41.5141 128.479 45.0401C126.776 48.5671 123.692 51.6571 119.835 52.3371L119.406 49.7411C119.347 51.6971 118.926 53.728 117.687 55.244C116.449 56.759 114.236 57.5951 112.452 56.7911C112.059 50.3001 106.493 44.6461 107.284 38.1921C107.832 33.7221 111.359 30.1841 115.15 27.7531C120.481 24.3341 126.737 22.3721 133.065 22.1331" fill="#263238"/>
<path d="M132.815 22.8362C132.859 22.9192 132.9 23.0042 132.944 23.0872L132.906 23.1162C132.876 23.0232 132.846 22.9302 132.815 22.8362Z" fill="#263238"/>
<path d="M132.944 23.0882L133.606 22.5782C135.598 20.7562 136.749 18.9892 141.211 21.2002C143.63 22.3982 146.071 24.5132 148.034 26.8132C149.786 28.8662 151.687 31.0982 152.783 33.5642C154.218 36.7922 154.999 39.2162 155.591 42.9132C153.136 42.0972 151.4 39.9162 150.082 37.6902C148.764 35.4642 147.686 33.0452 145.879 31.1932C146.789 33.1542 147.711 35.1602 147.935 37.3112C147.996 37.8992 147.994 38.5332 147.676 39.0322C147.359 39.5312 146.625 39.8022 146.152 39.4462C146.269 36.8642 145.415 34.3122 144.138 32.0642C142.861 29.8172 141.173 27.8352 139.481 25.8812C141.161 29.8792 142.15 34.1662 142.391 38.4962C142.426 39.1182 142.436 39.7772 142.13 40.3192C141.672 41.1292 140.657 41.4262 139.732 41.5332C138.807 41.6402 137.822 41.6472 137.032 42.1402C137.428 35.5762 135.995 28.9132 132.944 23.0882Z" fill="#263238"/>
<path d="M105.739 24.8012C105.726 24.7672 106.168 24.5652 106.979 24.2282C107.789 23.8922 108.968 23.4202 110.431 22.8552C113.358 21.7302 117.422 20.2102 122.003 18.7992C124.297 18.1202 126.477 17.4002 128.585 17.1652C130.671 16.9112 132.701 17.3172 133.988 18.3312C135.31 19.2832 135.921 20.5512 136.066 21.4302C136.135 21.8762 136.123 22.2262 136.087 22.4582C136.045 22.6902 136.015 22.8072 135.997 22.8042C135.94 22.8002 136.059 22.3082 135.867 21.4712C135.67 20.6512 135.046 19.4912 133.775 18.6312C132.539 17.7192 130.656 17.3772 128.639 17.6422C126.617 17.8902 124.443 18.6192 122.156 19.2972C117.592 20.7032 113.517 22.1652 110.558 23.2012C109.151 23.6892 107.974 24.0982 107.05 24.4192C106.217 24.6962 105.751 24.8352 105.739 24.8012Z" fill="#263238"/>
<path d="M50.4039 84.0101C50.4009 84.0021 50.4779 83.9661 50.6329 83.9031C50.8179 83.8321 51.0459 83.7451 51.3269 83.6381C51.6349 83.5291 52.0319 83.4471 52.4939 83.3231C52.9649 83.2481 53.5059 83.1231 54.1259 83.0821C55.3619 82.9511 56.8839 82.9551 58.6379 83.0251C60.3889 83.0741 62.3919 83.2321 64.5639 82.9761C66.7239 82.7551 69.0769 81.9191 70.9079 80.1161C72.7599 78.3511 74.1339 75.8921 75.1039 73.1741C76.0889 70.4451 76.7109 67.4361 77.7309 64.4031C78.7279 61.3901 80.3009 58.2731 82.9999 56.0861C84.3309 54.9951 85.9309 54.2281 87.6079 53.9791C89.2809 53.7301 90.9129 53.9001 92.4669 53.7791C94.0259 53.6981 95.4799 53.1581 96.6249 52.2021C97.7779 51.2621 98.6469 50.0441 99.3659 48.7991C100.773 46.2771 101.744 43.6581 102.745 41.2671C103.727 38.8621 104.693 36.6301 105.765 34.6841C107.881 30.7661 110.519 28.1531 112.614 26.8251C113.657 26.1471 114.543 25.7511 115.152 25.5181C115.456 25.4001 115.698 25.3351 115.856 25.2841C116.016 25.2361 116.099 25.2161 116.102 25.2241C116.109 25.2451 115.788 25.3651 115.192 25.6151C114.6 25.8771 113.739 26.2981 112.727 26.9931C110.694 28.3561 108.14 30.9641 106.089 34.8591C105.049 36.7951 104.109 39.0191 103.146 41.4291C102.159 43.8301 101.212 46.4461 99.7829 49.0371C99.0509 50.3151 98.1599 51.5841 96.9389 52.5871C95.7369 53.6081 94.1249 54.2061 92.5059 54.2871C90.8919 54.4131 89.2699 54.2491 87.6859 54.4901C86.1079 54.7271 84.5999 55.4471 83.3259 56.4901C80.7399 58.5861 79.2019 61.5941 78.2129 64.5661C77.1989 67.5551 76.5659 70.5701 75.5549 73.3361C74.5549 76.0971 73.1379 78.6111 71.2039 80.4291C69.2929 82.2881 66.8099 83.1441 64.6049 83.3411C62.3799 83.5791 60.3729 83.3921 58.6239 83.3161C56.8739 83.2181 55.3669 83.1851 54.1419 83.2841C51.6799 83.4431 50.4259 84.0941 50.4039 84.0101Z" fill="#263238"/>
<path d="M118.875 170.795C118.875 170.795 109.129 181.024 104.014 193.613C98.8999 206.202 101.146 266.811 101.146 266.811L102.217 298.586C102.217 298.586 98.3659 329.461 99.5469 348.926C100.727 368.392 104.359 386.414 104.359 386.414L125.604 387.434L148.147 222.305L142.508 298.459L137.505 387.434L164.599 387.169C164.599 387.169 173.332 309.871 175.099 297.351C177.096 283.201 179.944 269.135 179.944 269.135C179.944 269.135 184.479 231.893 182.905 211.829C181.331 191.765 169.374 163.714 168.981 162.534L120.931 171.189" fill="#263238"/>
<path d="M19.6959 0.954294C19.6959 0.954294 17.5509 2.1343 17.8729 5.3513C18.1949 8.5683 19.6959 10.7133 19.6959 10.7133C19.6959 10.7133 8.32688 0.524293 7.03988 0.0952932C5.75288 -0.333707 4.03687 0.739298 4.14387 2.2403C4.25087 3.7423 11.0029 8.89029 11.9169 10.1773C12.8309 11.4643 11.9729 10.9283 11.1149 10.7133C10.2569 10.4983 3.60787 5.3363 3.28587 5.5043C2.96387 5.6723 -0.253123 6.20929 1.56988 8.67529C3.39288 11.1423 8.64888 13.5013 9.29188 14.4663C9.93588 15.4313 10.6739 15.6013 10.5669 16.5663C10.4599 17.5313 4.92788 15.1413 4.92788 15.1413L2.17187 13.7143C0.842874 13.0263 -0.553123 14.5183 0.222877 15.7973C0.429877 16.1383 0.725876 16.4853 1.14088 16.8253C3.50088 18.7553 8.54088 20.4713 8.54088 20.4713C8.54088 20.4713 10.5789 21.6513 10.4719 22.8303C10.3649 24.0103 0.926879 27.6563 0.926879 27.6563C0.926879 27.6563 0.390879 29.1573 1.67788 29.6943C2.96488 30.2303 5.38888 28.8403 5.38888 28.8403C5.38888 28.8403 11.1159 26.4773 12.5099 26.9063C13.9039 27.3353 19.5879 30.4453 22.1629 30.8743C24.7379 31.3033 27.0969 30.8743 27.0969 30.8743L31.5359 21.3903C31.5359 21.3903 26.8819 11.6773 26.0239 9.74629C25.1659 7.81629 22.2699 7.0653 21.7339 4.9203C21.1969 2.7773 19.6959 0.954294 19.6959 0.954294Z" fill="#FFBE9D"/>
<path d="M22.2719 28.2624C22.2719 28.2624 44.9719 54.2484 50.9639 62.8334C57.1559 71.7054 76.1219 87.5644 76.1219 87.5644C76.1219 87.5644 100.752 113.591 103.027 113.818C105.302 114.046 113.962 113.126 113.962 113.126L112.369 89.0094C112.369 89.0094 73.6909 55.7914 72.0979 54.4264C70.5049 53.0614 29.0589 19.3794 29.0589 19.3794L22.2719 28.2624Z" fill="#FFBE9D"/>
<path d="M18.5619 8.38038C18.6389 8.35738 18.9099 9.13138 19.6939 10.1964C20.0499 10.7544 20.6349 11.3104 20.9159 12.2834C21.0179 12.7944 20.8799 13.3264 20.6579 13.7754C20.4409 14.2254 20.2099 14.6254 20.1969 15.0654C20.2659 17.0054 21.0559 18.7334 21.5939 19.9214C22.1579 21.1224 22.5249 21.8664 22.4559 21.9044C22.3979 21.9364 21.9209 21.2604 21.2649 20.0884C20.6389 18.9114 19.7549 17.2104 19.6759 15.0434C19.6979 14.4484 19.9989 13.9604 20.1969 13.5554C20.4049 13.1514 20.5019 12.7404 20.4439 12.3754C20.2639 11.6264 19.7099 10.9724 19.3849 10.3984C18.6589 9.25038 18.4979 8.39038 18.5619 8.38038Z" fill="#EB996E"/>
<path d="M55.8639 53.6842C55.8829 53.6272 56.4749 53.7492 57.2849 54.2722C58.0879 54.7832 59.0829 55.7622 59.6469 57.1452C60.2089 58.5292 60.1799 59.9252 59.9619 60.8512C59.7469 61.7912 59.4089 62.2912 59.3559 62.2642C59.2789 62.2322 59.4889 61.6912 59.5989 60.7892C59.7139 59.8952 59.6799 58.6122 59.1639 57.3422C58.6469 56.0732 57.7749 55.1302 57.0689 54.5712C56.3589 54.0022 55.8309 53.7612 55.8639 53.6842Z" fill="#EB996E"/>
<path d="M153.602 85.3684C153.602 85.3684 154.295 85.4814 156.343 86.1644L173.357 85.0524L180.798 107.349L175.177 110.989C175.86 114.857 178.817 120.09 178.135 127.143C177.452 134.196 176.087 138.519 176.087 138.519L174.494 170.372L164.256 187.436H141.504L116.932 168.325L113.974 143.753L101.688 115.084L92.9429 109.17L99.4129 77.7334C99.4129 77.7334 109.196 79.5914 113.292 83.9144L116.477 86.8724C116.477 86.8724 119.662 85.7344 122.392 86.8724L126.26 86.1904C126.26 86.1904 141.98 98.2734 149.939 95.9654C156.685 94.0074 153.602 85.3684 153.602 85.3684Z" fill="#F37335"/>
<path d="M155.843 115.919C155.874 115.916 155.943 116.294 155.991 116.986C156.04 117.678 156.04 118.687 155.897 119.923C155.629 122.381 154.623 125.805 152.322 128.874C150.02 131.943 147.014 133.867 144.729 134.812C143.582 135.295 142.613 135.578 141.936 135.724C141.258 135.872 140.876 135.911 140.87 135.88C140.845 135.783 142.362 135.509 144.578 134.476C146.783 133.462 149.669 131.542 151.905 128.562C154.14 125.582 155.176 122.274 155.532 119.874C155.905 117.455 155.743 115.922 155.843 115.919Z" fill="#263238"/>
<g opacity="0.3">
<path d="M156.053 117.345C155.363 125.831 149.689 133.146 141.573 135.717C146.388 135.733 151.965 134.493 155.018 130.77C158.071 127.046 158.778 121.314 156.053 117.345Z" fill="#494949"/>
</g>
<path d="M167.851 95.6965C167.983 95.6385 169.673 99.1625 171.627 103.568C173.581 107.974 175.059 111.593 174.927 111.651C174.795 111.709 173.105 108.186 171.151 103.779C169.197 99.3745 167.719 95.7555 167.851 95.6965Z" fill="#263238"/>
<path d="M154.522 122.711C154.526 122.729 154.362 122.779 154.047 122.86C153.672 122.949 153.216 123.058 152.664 123.189C151.462 123.471 149.709 123.821 147.534 124.201C143.185 124.966 137.121 125.752 130.384 126.064C123.644 126.367 117.533 126.137 113.132 125.771C110.931 125.59 109.154 125.401 107.931 125.23C107.37 125.149 106.905 125.083 106.524 125.028C106.203 124.976 106.036 124.94 106.038 124.923C106.04 124.905 106.212 124.906 106.536 124.924C106.92 124.952 107.387 124.987 107.952 125.028C109.18 125.137 110.959 125.27 113.157 125.403C117.554 125.674 123.643 125.845 130.359 125.543C137.072 125.232 143.12 124.507 147.474 123.837C149.651 123.504 151.411 123.209 152.624 122.989C153.183 122.896 153.645 122.819 154.025 122.756C154.347 122.71 154.518 122.693 154.522 122.711Z" fill="white"/>
<path d="M176.518 117.003C176.544 117.062 175.474 117.61 173.668 118.325C171.864 119.041 169.311 119.893 166.421 120.564C163.529 121.231 160.861 121.588 158.926 121.738C156.989 121.889 155.787 121.865 155.785 121.801C155.781 121.722 156.974 121.615 158.888 121.372C160.803 121.13 163.437 120.719 166.304 120.057C169.169 119.392 171.716 118.603 173.542 117.979C175.368 117.356 176.487 116.93 176.518 117.003Z" fill="white"/>
<path d="M175.59 141.138C175.596 141.155 175.397 141.242 175.013 141.393C174.575 141.558 174.014 141.77 173.322 142.031C172.588 142.31 171.684 142.633 170.616 142.956C169.551 143.285 168.348 143.698 166.986 144.041C165.632 144.414 164.146 144.813 162.53 145.154C160.925 145.546 159.185 145.843 157.358 146.18C153.692 146.777 149.63 147.252 145.346 147.457C141.059 147.632 136.97 147.519 133.265 147.249C131.415 147.075 129.656 146.933 128.022 146.686C126.382 146.489 124.866 146.224 123.485 145.972C122.098 145.75 120.863 145.446 119.773 145.212C118.681 144.985 117.752 144.743 116.996 144.53C116.284 144.331 115.707 144.17 115.256 144.045C114.86 143.928 114.654 143.859 114.659 143.842C114.664 143.825 114.878 143.86 115.283 143.944C115.74 144.045 116.324 144.174 117.045 144.334C117.807 144.516 118.74 144.729 119.835 144.928C120.928 145.134 122.163 145.412 123.549 145.61C124.93 145.838 126.442 146.081 128.078 146.258C129.707 146.486 131.461 146.612 133.302 146.771C136.991 147.013 141.059 147.111 145.324 146.937C149.586 146.733 153.628 146.274 157.281 145.707C159.101 145.385 160.836 145.105 162.439 144.733C164.053 144.412 165.537 144.035 166.892 143.686C168.255 143.366 169.461 142.98 170.531 142.678C171.604 142.383 172.515 142.088 173.257 141.839C173.961 141.616 174.532 141.436 174.977 141.294C175.373 141.176 175.584 141.121 175.59 141.138Z" fill="white"/>
<path d="M174.225 164.593C174.229 164.611 174.031 164.674 173.65 164.778C173.212 164.891 172.658 165.033 171.975 165.209C171.247 165.397 170.353 165.611 169.305 165.812C168.258 166.019 167.071 166.287 165.742 166.484C163.095 166.949 159.915 167.343 156.371 167.624C152.825 167.87 148.913 167.982 144.812 167.844C140.71 167.68 136.816 167.281 133.297 166.776C129.783 166.235 126.64 165.609 124.035 164.951C122.724 164.657 121.56 164.303 120.531 164.019C119.5 163.742 118.625 163.463 117.913 163.222C117.245 162.997 116.702 162.814 116.274 162.67C115.901 162.538 115.709 162.461 115.714 162.444C115.72 162.427 115.923 162.471 116.306 162.57C116.741 162.69 117.292 162.841 117.971 163.028C118.69 163.238 119.572 163.488 120.607 163.738C121.64 163.994 122.807 164.322 124.119 164.592C126.727 165.202 129.863 165.788 133.366 166.301C136.873 166.778 140.749 167.161 144.831 167.324C148.913 167.461 152.805 167.364 156.337 167.146C159.867 166.892 163.038 166.538 165.683 166.121C167.012 165.948 168.199 165.706 169.248 165.527C170.299 165.354 171.197 165.169 171.93 165.012C172.621 164.875 173.182 164.765 173.625 164.677C174.015 164.605 174.221 164.576 174.225 164.593Z" fill="white"/>
<path d="M116.906 109.496C116.921 109.668 113.247 109.64 109.061 111.146C104.858 112.608 102.02 114.941 101.923 114.798C101.884 114.751 102.537 114.11 103.75 113.265C104.959 112.42 106.756 111.412 108.887 110.655C111.019 109.904 113.05 109.557 114.521 109.454C115.996 109.348 116.907 109.436 116.906 109.496Z" fill="white"/>
<path d="M126.015 106.853C126.048 106.993 125.229 107.305 124.186 107.55C123.142 107.795 122.27 107.88 122.237 107.74C122.204 107.6 123.023 107.288 124.067 107.043C125.11 106.798 125.982 106.713 126.015 106.853Z" fill="white"/>
<path d="M132.017 102.417C132.006 102.568 130.929 102.579 129.664 102.887C128.395 103.182 127.429 103.658 127.351 103.528C127.272 103.417 128.18 102.7 129.543 102.38C130.903 102.052 132.037 102.283 132.017 102.417Z" fill="white"/>
<path d="M169.173 99.8334C169.179 99.8694 168.704 99.9764 167.841 100.141C166.978 100.307 165.725 100.521 164.173 100.765C161.07 101.253 156.768 101.838 152 102.33C147.23 102.82 142.899 103.125 139.761 103.28C138.192 103.358 136.922 103.404 136.043 103.417C135.165 103.432 134.678 103.423 134.676 103.388C134.674 103.352 135.157 103.292 136.032 103.215C137.008 103.135 138.251 103.034 139.737 102.913C142.865 102.665 147.184 102.302 151.947 101.813C156.708 101.321 161.009 100.796 164.122 100.401C165.601 100.217 166.839 100.063 167.811 99.9424C168.682 99.8384 169.167 99.7984 169.173 99.8334Z" fill="white"/>
<path d="M176.011 94.8175C176.019 94.9725 174.249 95.1225 172.178 95.7565C170.102 96.3745 168.544 97.2285 168.465 97.0955C168.387 96.9875 169.875 95.9005 172.028 95.2585C174.175 94.6025 176.015 94.6845 176.011 94.8175Z" fill="white"/>
<path d="M119.243 89.7543C119.205 89.8283 118.128 89.3113 116.345 88.5943C114.563 87.8753 112.055 86.9973 109.205 86.3273C106.352 85.6623 103.715 85.3373 101.799 85.1903C99.8829 85.0423 98.6889 85.0273 98.6869 84.9443C98.6859 84.9083 98.9839 84.8733 99.5249 84.8403C100.066 84.8033 100.85 84.7943 101.819 84.8223C103.756 84.8753 106.435 85.1463 109.323 85.8193C112.208 86.4973 114.73 87.4433 116.489 88.2553C117.37 88.6603 118.069 89.0163 118.537 89.2893C119.008 89.5593 119.259 89.7223 119.243 89.7543Z" fill="white"/>
<path d="M124.684 89.0885C124.697 89.2415 123.581 89.4065 122.372 90.0195C121.154 90.6155 120.351 91.4065 120.236 91.3045C120.124 91.2285 120.814 90.2075 122.139 89.5535C123.46 88.8895 124.691 88.9535 124.684 89.0885Z" fill="white"/>
<path d="M130.23 89.4605C130.249 89.6035 129.469 89.8245 128.489 89.9565C127.508 90.0875 126.698 90.0785 126.679 89.9355C126.66 89.7925 127.439 89.5715 128.42 89.4395C129.4 89.3085 130.211 89.3175 130.23 89.4605Z" fill="white"/>
<path d="M132.542 103.178C132.462 103.203 132.105 102.141 131.396 100.487C130.689 98.8334 129.58 96.6034 128.059 94.3234C126.532 92.0454 124.894 90.1693 123.635 88.8843C122.377 87.5973 121.532 86.8624 121.586 86.7974C121.623 86.7504 122.554 87.3863 123.893 88.6203C125.231 89.8513 126.942 91.7203 128.493 94.0333C130.038 96.3493 131.113 98.6433 131.739 100.35C132.367 102.058 132.599 103.162 132.542 103.178Z" fill="#263238"/>
<path d="M126.206 104.364C126.117 104.376 125.957 103.243 125.434 101.488C124.922 99.7304 123.976 97.3714 122.584 94.9474C121.186 92.5244 119.641 90.5054 118.441 89.1184C117.243 87.7274 116.421 86.9344 116.478 86.8724C116.502 86.8454 116.732 87.0174 117.129 87.3514C117.528 87.6824 118.075 88.1984 118.714 88.8714C119.998 90.2104 121.615 92.2254 123.036 94.6874C124.451 97.1504 125.362 99.5804 125.79 101.391C126.012 102.294 126.139 103.038 126.183 103.555C126.232 104.073 126.242 104.36 126.206 104.364Z" fill="#263238"/>
<g opacity="0.3">
<path d="M111.497 113.476C111.001 114.077 111.516 115.07 112.259 115.306C113.002 115.542 113.804 115.257 114.508 114.924C119.147 112.737 122.609 108.213 123.506 103.163C123.889 104.457 124.842 105.572 126.061 106.151C125.38 101.736 124.699 97.3195 124.019 92.9045C126.116 94.8805 128.214 96.8565 130.311 98.8325C131.034 96.8785 129.556 94.8525 128.149 93.3165C126.742 91.7805 125.191 89.8545 125.76 87.8495C125.908 87.3285 126.199 86.8285 126.169 86.2865C126.115 85.3075 124.964 84.6765 124 84.8555C123.036 85.0345 122.277 85.7775 121.693 86.5645C119.746 89.1865 119.099 92.5445 118.825 95.7995C118.552 99.0545 118.593 102.362 117.797 105.53C117 108.697 115.192 111.811 112.243 113.215" fill="#494949"/>
</g>
<path d="M122.381 166.752C122.363 166.752 122.346 166.501 122.329 166.023C122.307 165.546 122.313 164.842 122.259 163.938C122.193 162.128 122.009 159.511 121.579 156.304C120.721 149.9 118.769 141.094 114.922 131.993C113.005 127.446 110.792 123.277 108.44 119.711C106.116 116.123 103.604 113.181 101.306 110.916C99.0039 108.648 96.8709 107.107 95.3449 106.144C93.8239 105.168 92.9149 104.735 92.9429 104.681C92.9509 104.665 93.1799 104.767 93.6089 104.978C94.0359 105.194 94.6819 105.486 95.4509 105.972C97.0199 106.888 99.2059 108.397 101.561 110.651C103.912 112.901 106.476 115.846 108.839 119.446C111.231 123.025 113.472 127.216 115.4 131.79C119.269 140.946 121.175 149.814 121.943 156.257C122.327 159.485 122.456 162.116 122.46 163.933C122.483 164.841 122.444 165.547 122.433 166.024C122.416 166.502 122.399 166.752 122.381 166.752Z" fill="#263238"/>
<path d="M127.668 79.4563C127.822 76.0293 124.825 73.0443 125.007 69.6183C125.109 67.7073 126.191 66.0043 126.764 64.1783C128.997 57.0613 123.421 48.7333 126.973 42.1743L111.135 46.0333C113.376 50.4063 113.125 55.6173 112.373 60.4733C111.621 65.3293 110.417 70.2093 110.937 75.0953C111.345 78.9263 112.795 82.5593 113.701 86.3043C115.919 95.4663 114.768 105.405 110.513 113.818C116.132 112.539 120.603 107.297 120.98 101.547C121.232 97.7123 119.869 93.6823 121.293 90.1123C122.85 86.2083 127.479 83.6553 127.668 79.4563Z" fill="#263238"/>
<path d="M116.422 165.461L110.785 180.456C110.785 180.456 68.8929 238.9 70.1109 243.771C71.3289 248.641 94.1589 267.514 100.856 264.47C107.553 261.426 124.904 248.945 130.688 236.465C136.472 223.984 152.909 188.978 152.909 188.978L158.084 179.237L152.3 175.28L116.422 165.461Z" fill="#455A64"/>
<path d="M174.882 169.41C184.461 198.822 188.435 230.049 186.528 260.922C183.012 261.343 179.496 261.763 175.98 262.184C173.066 247.904 173.425 233.188 172.271 218.66C171.117 204.132 168.22 189.197 159.75 177.337C164.826 174.613 169.901 171.889 174.977 169.165" fill="#455A64"/>
<path d="M128.382 187.966C128.364 188.03 127.345 187.826 125.732 187.357C124.12 186.889 121.921 186.136 119.564 185.124C117.208 184.11 115.148 183.032 113.699 182.184C112.249 181.337 111.399 180.738 111.434 180.68C111.474 180.614 112.389 181.1 113.875 181.86C115.362 182.621 117.431 183.638 119.769 184.645C122.108 185.649 124.269 186.451 125.844 187.006C127.42 187.562 128.402 187.892 128.382 187.966Z" fill="#263238"/>
<g opacity="0.2">
<path d="M101.213 232.462L100.199 232.536C107.125 239.689 118.717 241.817 127.732 237.59C130.803 236.15 133.853 233.487 133.716 230.099C123.354 233.774 111.998 234.6 101.213 232.462Z" fill="#494949"/>
</g>
<path d="M153.531 179.278C149.616 178.559 142.096 180.609 139.345 183.486C136.594 186.363 134.941 190.104 133.586 193.847C130.647 201.959 128.557 210.944 122.18 216.756C116.181 222.224 107.655 223.69 99.6319 224.923C99.4139 227.887 99.4489 231.416 101.887 233.115C102.608 233.617 103.462 233.886 104.308 234.12C106.691 234.778 109.136 235.211 111.6 235.413C123.021 236.351 135.121 231.753 141.824 222.458C150.304 210.701 150.974 196.575 155.77 182.896" fill="#455A64"/>
<path d="M155.77 182.897C155.778 182.9 155.739 183.046 155.654 183.329C155.56 183.633 155.431 184.048 155.266 184.579C154.912 185.673 154.434 187.302 153.868 189.412C153.291 191.519 152.662 194.118 151.93 197.136C151.192 200.152 150.37 203.597 149.215 207.341C148.058 211.077 146.557 215.137 144.219 219.129C143.076 221.133 141.717 223.117 140.074 224.961C138.428 226.798 136.504 228.486 134.336 229.93C129.996 232.809 124.751 234.776 119.132 235.485C116.324 235.847 113.424 235.862 110.515 235.571C109.062 235.413 107.607 235.174 106.16 234.851C105.436 234.691 104.716 234.507 103.997 234.305C103.278 234.099 102.541 233.851 101.875 233.423C101.192 232.97 100.619 232.353 100.237 231.642C99.8509 230.934 99.6229 230.166 99.4849 229.403C99.2149 227.87 99.2719 226.352 99.3739 224.906L99.3879 224.7L99.5919 224.669C104.956 223.844 110.204 222.954 114.879 220.995C117.205 220.017 119.385 218.795 121.235 217.241C123.095 215.701 124.638 213.883 125.897 211.955C128.418 208.079 129.889 203.894 131.24 200.032C132.584 196.157 133.725 192.498 135.244 189.347C135.996 187.771 136.852 186.336 137.796 185.076C138.273 184.45 138.77 183.869 139.288 183.337C139.827 182.814 140.405 182.375 141.001 182.02C143.391 180.599 145.709 179.949 147.589 179.539C149.48 179.133 150.987 179.057 151.999 179.09C153.014 179.129 153.529 179.278 153.529 179.278C153.524 179.312 153.004 179.195 151.998 179.188C150.994 179.187 149.501 179.293 147.631 179.724C145.774 180.158 143.476 180.836 141.148 182.252C140.567 182.605 140.011 183.038 139.5 183.541C138.998 184.066 138.512 184.643 138.049 185.262C137.13 186.509 136.296 187.931 135.561 189.495C134.079 192.622 132.959 196.276 131.632 200.163C130.296 204.038 128.835 208.257 126.286 212.205C125.012 214.168 123.442 216.031 121.543 217.611C119.654 219.205 117.432 220.455 115.072 221.453C110.327 223.45 105.039 224.349 99.6699 225.179L99.8889 224.942C99.7879 226.37 99.7379 227.853 99.9949 229.308C100.236 230.75 100.902 232.188 102.156 232.983C103.357 233.722 104.865 233.987 106.272 234.341C107.7 234.66 109.136 234.897 110.57 235.054C113.44 235.343 116.296 235.331 119.067 234.977C124.61 234.285 129.787 232.353 134.069 229.529C136.208 228.112 138.107 226.456 139.732 224.653C141.352 222.848 142.704 220.891 143.844 218.91C146.176 214.968 147.687 210.943 148.862 207.229C150.034 203.508 150.88 200.074 151.646 197.065C152.405 194.054 153.064 191.459 153.671 189.357C154.268 187.252 154.778 185.631 155.165 184.546C155.351 184.021 155.496 183.611 155.603 183.311C155.705 183.034 155.761 182.894 155.77 182.897Z" fill="#263238"/>
<path d="M108.574 234.865C108.413 234.818 109.669 232.337 109.3 229.079C108.992 225.814 107.253 223.644 107.401 223.565C107.445 223.528 107.942 224.001 108.505 224.95C109.069 225.892 109.64 227.342 109.818 229.026C109.989 230.71 109.728 232.246 109.37 233.284C109.014 234.327 108.624 234.893 108.574 234.865Z" fill="#263238"/>
<path d="M108.861 227.574C108.871 227.718 106.866 227.969 104.385 228.135C101.903 228.302 99.8839 228.32 99.8739 228.177C99.8639 228.034 101.868 227.782 104.35 227.616C106.832 227.449 108.851 227.43 108.861 227.574Z" fill="#263238"/>
<path d="M109.705 230.839C109.708 230.983 107.624 231.143 105.05 231.197C102.476 231.251 100.387 231.178 100.384 231.034C100.381 230.89 102.465 230.73 105.039 230.676C107.613 230.623 109.702 230.695 109.705 230.839Z" fill="#263238"/>
<path d="M163.156 181.819C170.17 188.151 172.792 198.189 172.535 207.635C172.278 217.081 169.533 226.251 167.423 235.462C165.313 244.673 163.833 254.34 166.101 263.513C163.103 263.943 160.106 264.372 157.108 264.802C149.766 257.029 146.028 245.983 147.142 235.349C148.064 226.542 152.064 218.407 154.932 210.029C157.8 201.651 159.5 192.201 155.886 184.117" fill="#455A64"/>
<path d="M155.886 184.115C155.894 184.112 155.957 184.245 156.072 184.508C156.193 184.794 156.358 185.186 156.569 185.687C156.934 186.749 157.464 188.336 157.771 190.464C158.085 192.586 158.167 195.232 157.854 198.271C157.541 201.309 156.802 204.726 155.656 208.4C154.502 212.073 152.937 215.989 151.367 220.229C149.82 224.467 148.226 229.066 147.537 234.104C146.842 239.125 147.208 244.564 148.822 249.865C150.424 255.158 153.258 260.323 157.297 264.621L157.071 264.542C158.472 264.341 159.976 264.125 161.49 263.908C163.057 263.684 164.614 263.461 166.064 263.253L165.849 263.573C164.426 257.755 164.501 251.851 165.184 246.323C165.863 240.775 167.133 235.546 168.337 230.597C169.551 225.648 170.702 220.954 171.431 216.504C172.169 212.059 172.487 207.861 172.311 204.048C171.959 196.393 169.605 190.475 167.316 186.921C166.199 185.108 165.078 183.884 164.343 183.044C163.963 182.659 163.666 182.359 163.449 182.139C163.249 181.933 163.15 181.824 163.156 181.818C163.162 181.812 163.273 181.908 163.485 182.102C163.711 182.314 164.021 182.603 164.418 182.974C165.179 183.795 166.332 185.005 167.483 186.815C169.841 190.363 172.27 196.316 172.671 204.03C172.872 207.875 172.572 212.103 171.849 216.573C171.135 221.047 169.996 225.758 168.796 230.709C167.606 235.66 166.352 240.874 165.686 246.385C165.015 251.878 164.95 257.717 166.354 263.449L166.422 263.728L166.138 263.769C164.688 263.977 163.131 264.2 161.564 264.425C160.05 264.642 158.546 264.857 157.145 265.058L157.011 265.077L156.919 264.979C152.821 260.616 149.954 255.377 148.339 250.012C146.712 244.64 146.352 239.125 147.07 234.04C147.782 228.943 149.403 224.323 150.971 220.082C152.562 215.84 154.144 211.939 155.314 208.292C156.476 204.644 157.236 201.254 157.573 198.241C157.91 195.228 157.858 192.603 157.577 190.492C157.302 188.376 156.807 186.791 156.474 185.722C156.283 185.214 156.134 184.818 156.026 184.528C155.925 184.259 155.886 184.115 155.886 184.115Z" fill="#263238"/>
<path d="M164.631 256.273C164.608 256.437 161.792 255.904 158.351 256.383C154.904 256.827 152.328 258.083 152.263 257.93C152.234 257.873 152.84 257.485 153.909 257.035C154.976 256.584 156.521 256.105 158.281 255.867C160.041 255.633 161.658 255.689 162.806 255.843C163.957 255.996 164.644 256.211 164.631 256.273Z" fill="#263238"/>
<path d="M159.398 264.564C159.27 264.629 158.325 263.035 157.288 261.003C156.25 258.97 155.513 257.27 155.641 257.205C155.769 257.14 156.714 258.734 157.752 260.766C158.789 262.799 159.526 264.499 159.398 264.564Z" fill="#263238"/>
<path d="M164.096 263.896C163.964 263.953 163.095 262.239 162.156 260.068C161.216 257.896 160.562 256.09 160.694 256.033C160.826 255.976 161.694 257.69 162.634 259.862C163.574 262.033 164.228 263.839 164.096 263.896Z" fill="#263238"/>
<path d="M151.191 178.88C151.129 178.9 150.982 178.684 150.908 178.278C150.832 177.875 150.866 177.283 151.117 176.699C151.37 176.116 151.778 175.686 152.123 175.465C152.47 175.24 152.727 175.199 152.755 175.258C152.825 175.39 152.017 175.886 151.594 176.906C151.143 177.911 151.335 178.841 151.191 178.88Z" fill="#263238"/>
<path d="M162.883 176.689C161.668 174.78 158.794 174.136 156.548 173.867C153.795 173.629 151.135 175.974 150.869 178.725C150.602 181.475 152.625 184.216 155.293 184.935C157.961 185.653 160.989 184.399 162.516 182.096C163.571 180.504 163.909 178.301 162.883 176.689Z" fill="#455A64"/>
<path d="M157.838 174.932C157.871 174.89 158.474 175.32 159.035 176.346C159.594 177.347 160.031 179.021 159.565 180.781C159.089 182.539 157.872 183.772 156.887 184.358C155.888 184.966 155.151 185.036 155.143 184.983C155.115 184.898 155.795 184.7 156.681 184.052C157.56 183.422 158.628 182.246 159.061 180.646C159.486 179.044 159.149 177.492 158.703 176.507C158.261 175.502 157.771 174.991 157.838 174.932Z" fill="#263238"/>
<path d="M162.317 175.969C162.363 175.932 162.71 176.245 163.041 176.912C163.374 177.573 163.627 178.61 163.509 179.749C163.386 180.888 162.921 181.849 162.457 182.425C161.993 183.009 161.589 183.242 161.552 183.196C161.495 183.134 161.799 182.81 162.153 182.217C162.51 181.627 162.877 180.736 162.99 179.694C163.097 178.652 162.924 177.704 162.699 177.052C162.479 176.398 162.249 176.018 162.317 175.969Z" fill="#263238"/>
<g opacity="0.2">
<path d="M163.009 181.806C161.226 183.865 158.893 184.752 156.175 184.92C156.702 186.14 158.383 187.28 159.71 187.365C161.036 187.45 162.384 186.739 163.062 185.596C163.741 184.453 163.72 182.93 163.009 181.806Z" fill="#494949"/>
</g>
<g opacity="0.2">
<path d="M131.002 190.617C130.078 189.476 128.627 188.928 127.246 188.43C122.036 186.549 116.416 183.33 111.205 181.449C115.958 185.665 121.105 190.637 126.558 193.897C127.875 194.684 129.596 195.433 130.844 194.542C132.039 193.689 131.926 191.758 131.002 190.617Z" fill="#494949"/>
</g>
<g opacity="0.2">
<path d="M174.159 199.987C173.346 193.73 170.454 187.555 165.405 183.77C168.119 188.714 170.866 193.743 172.077 199.252C173.408 205.303 172.43 209.171 171.828 215.338L172.413 218.379C174.115 212.303 174.971 206.245 174.159 199.987Z" fill="#494949"/>
</g>
<path d="M128.189 194.947C128.17 194.977 127.883 194.835 127.38 194.55C126.875 194.268 126.163 193.83 125.299 193.263C123.57 192.132 121.256 190.449 118.866 188.388C116.478 186.323 114.475 184.278 113.105 182.732C112.419 181.96 111.882 181.319 111.529 180.861C111.174 180.405 110.991 180.142 111.019 180.119C111.079 180.068 111.94 181.008 113.374 182.482C114.807 183.956 116.835 185.944 119.206 187.995C121.579 190.042 123.841 191.759 125.508 192.961C127.175 194.165 128.231 194.88 128.189 194.947Z" fill="#263238"/>
</svg>
