<svg width="300" height="300" viewBox="0 0 300 300" fill="none" xmlns="http://www.w3.org/2000/svg">
<g filter="url(#filter0_d_1_704)">
<path d="M118.658 148.283L113.86 150.858L103.237 159.036C103.237 159.036 70.6992 163.357 69.45 164.294C68.2002 165.231 52.0182 172.915 49.8312 183.225C47.6442 193.536 43.1442 260.806 43.1442 260.806L49.0488 280.683L167.554 280.867L195.346 280.472C195.346 280.472 206.025 255.531 206.025 248.657C206.025 241.783 202.901 190.233 202.901 190.233L169.574 166.734L118.658 148.283Z" fill="#F37335"/>
<path d="M102.931 158.55C102.939 158.557 102.882 158.652 102.766 158.829C102.626 159.031 102.454 159.283 102.244 159.589C101.776 160.237 101.144 161.207 100.403 162.426C100.046 163.044 99.6348 163.71 99.2586 164.461C98.8542 165.196 98.472 166.008 98.0754 166.863C97.3044 168.585 96.5592 170.523 95.9214 172.605C94.665 176.781 94.0194 180.69 93.5856 183.514C93.387 184.896 93.2244 186.031 93.1038 186.868C93.0492 187.236 93.0042 187.537 92.9676 187.78C92.9328 187.989 92.91 188.097 92.8992 188.096C92.8884 188.095 92.8908 187.984 92.9052 187.773C92.9262 187.528 92.9514 187.224 92.9832 186.854C93.0552 186.056 93.183 184.904 93.3666 183.483C93.7452 180.646 94.3578 176.716 95.622 172.515C96.2634 170.419 97.0224 168.469 97.8132 166.743C98.22 165.885 98.613 165.073 99.03 164.338C99.4182 163.588 99.843 162.925 100.214 162.31C100.983 161.1 101.646 160.144 102.145 159.517C102.374 159.224 102.563 158.984 102.715 158.79C102.848 158.626 102.922 158.544 102.931 158.55Z" fill="#263238"/>
<g opacity="0.3">
<path d="M103.67 178.325C103.472 177.692 103.217 176.977 102.602 176.729C102.118 176.534 102.313 176.846 101.83 177.045C97.3296 178.901 95.157 183.062 93.2514 187.75L93.36 187.639C93.0774 188.356 93.3738 189.392 94.0968 189.814C95.1114 190.405 96.4158 190.085 97.4586 189.546C98.5014 189.006 99.456 188.257 100.594 187.966C103.058 187.334 105.508 189.022 107.248 190.879C108.987 192.736 110.552 194.947 112.925 195.867C108.805 190.648 105.652 184.67 103.67 178.325Z" fill="#494949"/>
</g>
<path d="M92.8992 188.096C92.8992 188.096 93.4344 186.664 94.8036 184.28C95.496 183.094 96.4032 181.671 97.6614 180.173C98.3034 179.437 99.0276 178.675 99.903 177.985C100.784 177.315 101.831 176.693 103.071 176.465L103.164 176.448L103.199 176.538C103.953 178.501 104.744 180.645 105.658 182.9C106.574 185.153 107.627 187.522 109.012 189.847C110.388 192.175 112.102 194.451 114.172 196.517C116.236 198.589 118.637 200.45 121.238 202.12C122.105 202.635 122.947 203.178 123.815 203.658C124.691 204.124 125.558 204.586 126.416 205.043L126.26 205.053C127.732 204.037 129.177 203.04 130.592 202.063C131.299 201.575 131.999 201.092 132.691 200.615C133.387 200.142 134.065 199.668 134.706 199.163C137.281 197.154 139.508 194.976 141.428 192.844L141.439 192.834L141.449 192.826C144.119 190.774 146.189 188.425 147.613 186.099C149.067 183.786 149.9 181.528 150.391 179.638C150.878 177.742 151.033 176.205 151.098 175.161C151.135 174.638 151.124 174.236 151.139 173.965C151.148 173.695 151.163 173.554 151.163 173.554C151.163 173.554 151.175 173.694 151.181 173.965C151.18 174.235 151.203 174.639 151.179 175.164C151.139 176.214 151.009 177.761 150.541 179.676C150.069 181.584 149.248 183.868 147.797 186.213C146.376 188.569 144.298 190.953 141.61 193.036L141.63 193.018C139.703 195.175 137.479 197.364 134.888 199.396C134.242 199.907 133.56 200.386 132.866 200.859C132.175 201.338 131.476 201.822 130.768 202.312C129.353 203.292 127.907 204.292 126.435 205.311L126.359 205.363L126.28 205.321C125.417 204.862 124.546 204.399 123.665 203.93C122.793 203.448 121.945 202.902 121.073 202.384C118.456 200.703 116.036 198.827 113.956 196.734C111.871 194.646 110.144 192.345 108.763 189.996C107.374 187.648 106.323 185.262 105.413 183C104.507 180.733 103.726 178.587 102.985 176.62L103.112 176.692C101.927 176.902 100.902 177.497 100.033 178.15C99.1686 178.822 98.4468 179.568 97.8042 180.292C96.5436 181.766 95.6238 183.174 94.9176 184.345C94.215 185.52 93.7248 186.466 93.3996 187.111C93.2448 187.425 93.1242 187.669 93.0354 187.848C92.9496 188.015 92.9046 188.098 92.8992 188.096Z" fill="#263238"/>
<path d="M159.963 173.323C159.963 173.323 160.163 176.824 159.53 182.474C159.214 185.296 158.644 188.642 157.7 192.294C156.763 195.947 155.427 199.892 153.728 203.921L153.499 204.463L153.428 203.875C153.386 203.524 153.353 203.144 153.296 202.766C152.998 200.549 152.475 198.419 151.784 196.427C151.438 195.431 151.051 194.47 150.629 193.547C150.419 193.085 150.197 192.635 149.971 192.194C149.74 191.752 149.525 191.315 149.237 190.942C148.955 190.568 148.612 190.234 148.207 190.082C147.802 189.927 147.358 190.028 147.026 190.305C146.689 190.576 146.41 190.946 146.11 191.277C145.816 191.614 145.526 191.945 145.241 192.271C144.101 193.571 143.038 194.783 142.066 195.892C140.13 198.087 138.558 199.869 137.453 201.122C136.915 201.721 136.492 202.193 136.187 202.533C136.049 202.681 135.939 202.8 135.851 202.895C135.775 202.975 135.733 203.015 135.729 203.011C135.725 203.008 135.758 202.961 135.827 202.874C135.909 202.774 136.012 202.648 136.139 202.492C136.434 202.142 136.843 201.658 137.361 201.041C138.448 199.773 139.994 197.969 141.899 195.746C142.862 194.63 143.915 193.409 145.045 192.1C145.328 191.772 145.616 191.439 145.909 191.101C146.208 190.769 146.474 190.402 146.855 190.088C147.224 189.767 147.811 189.622 148.303 189.817C148.793 190 149.164 190.372 149.466 190.767C149.776 191.165 149.999 191.618 150.232 192.058C150.461 192.502 150.686 192.956 150.899 193.422C151.328 194.351 151.721 195.321 152.072 196.326C152.774 198.335 153.304 200.486 153.605 202.724C153.662 203.106 153.697 203.489 153.739 203.844L153.44 203.798C155.135 199.783 156.474 195.856 157.423 192.221C158.379 188.587 158.969 185.257 159.313 182.447C159.661 179.636 159.8 177.351 159.863 175.773C159.904 174.984 159.904 174.371 159.924 173.956C159.932 173.762 159.939 173.607 159.945 173.483C159.952 173.378 159.958 173.323 159.963 173.323Z" fill="#263238"/>
<path d="M115.213 156.747C115.216 156.751 115.186 156.791 115.122 156.866C115.045 156.953 114.951 157.06 114.835 157.191C114.568 157.462 114.224 157.905 113.78 158.475C112.924 159.634 111.842 161.44 110.905 163.846C109.946 166.239 109.147 169.232 108.751 172.619C108.377 176.004 108.418 179.797 109.231 183.649C109.613 185.578 110.203 187.414 110.908 189.127C111.589 190.852 112.471 192.417 113.374 193.858C115.235 196.716 117.395 198.945 119.375 200.59C120.344 201.446 121.328 202.081 122.15 202.694C123.023 203.232 123.759 203.724 124.387 204.081C125.003 204.42 125.49 204.688 125.846 204.884C125.998 204.971 126.121 205.042 126.222 205.1C126.306 205.15 126.348 205.179 126.346 205.183C126.343 205.188 126.296 205.17 126.208 205.129C126.103 205.078 125.975 205.017 125.817 204.94C125.453 204.757 124.956 204.505 124.327 204.187C123.688 203.845 122.939 203.367 122.053 202.84C121.217 202.239 120.218 201.612 119.234 200.761C117.221 199.126 115.024 196.894 113.131 194.016C112.212 192.564 111.316 190.986 110.624 189.244C109.909 187.515 109.31 185.661 108.924 183.713C108.104 179.824 108.072 175.996 108.464 172.587C108.879 169.174 109.707 166.165 110.699 163.764C111.67 161.352 112.79 159.548 113.683 158.402C114.144 157.84 114.505 157.407 114.788 157.148C114.913 157.026 115.015 156.925 115.098 156.844C115.171 156.775 115.209 156.743 115.213 156.747Z" fill="#263238"/>
<path d="M64.1628 214.395C64.17 214.391 64.209 214.447 64.2816 214.567C64.3668 214.715 64.4712 214.896 64.6026 215.123L64.5144 215.154C64.086 213.139 62.9208 206.956 61.5984 199.645C60.8016 195.142 60.081 191.067 59.55 188.065C59.3082 186.613 59.1102 185.422 58.9644 184.549C58.9062 184.161 58.8588 183.844 58.821 183.591C58.7916 183.371 58.7814 183.255 58.7916 183.253C58.8018 183.251 58.833 183.363 58.8828 183.58C58.9362 183.831 59.0028 184.144 59.0844 184.528C59.2542 185.397 59.4852 186.581 59.7678 188.026C60.3222 191.024 61.0746 195.093 61.9062 199.59C63.2286 206.901 64.3038 213.101 64.608 215.137L64.6536 215.444L64.5192 215.168C64.4046 214.932 64.3134 214.744 64.2384 214.591C64.1802 214.463 64.1556 214.399 64.1628 214.395Z" fill="#263238"/>
<path d="M62.7174 213.164C62.6394 213.201 61.128 210.16 59.343 206.374C57.5568 202.586 56.1726 199.486 56.2506 199.45C56.3286 199.413 57.8394 202.453 59.6256 206.241C61.4112 210.027 62.7954 213.127 62.7174 213.164Z" fill="#263238"/>
<g opacity="0.3">
<path d="M62.103 279.13C65.865 281.021 74.583 277.684 77.7534 273.525C80.9238 269.366 81.8412 263.96 82.5294 258.776C83.5668 250.964 84.3066 243.113 84.747 235.244C91.2006 239.969 99.2904 242.411 107.28 242.05C112.37 241.819 118.171 239.797 119.745 234.951C121.302 230.158 117.949 225.23 114.466 221.587C111.15 218.119 107.529 214.943 103.658 212.108C101.117 210.247 98.3352 208.483 95.2032 208.141C91.8252 207.772 88.4082 209.156 85.8402 211.381C83.2722 213.607 81.4776 216.606 80.163 219.739C76.1496 229.306 76.3662 240.018 75.5466 250.36C74.7276 260.701 73.6302 271.414 64.4676 278.146" fill="#494949"/>
</g>
<path d="M62.3461 279.171C62.3437 279.163 62.4319 279.121 62.6035 279.045C62.7949 278.962 63.0457 278.854 63.3607 278.719C63.9889 278.366 64.9189 277.849 65.9287 276.954C67.9747 275.213 70.4977 272.247 72.8611 268.312L72.8443 268.362C73.3933 264.25 74.0335 259.455 74.7145 254.353C75.8143 246.265 76.7899 238.942 77.5735 233.653C78.0589 231.043 78.4531 228.922 78.7309 227.425C78.8707 226.711 78.9811 226.146 79.0609 225.735C79.0987 225.558 79.1299 225.414 79.1545 225.297C79.1773 225.199 79.1917 225.149 79.1971 225.15C79.2025 225.151 79.1989 225.202 79.1863 225.303C79.1695 225.421 79.1485 225.567 79.1233 225.746C79.0573 226.159 78.9661 226.727 78.8509 227.446C78.5965 228.945 78.2359 231.071 77.7919 233.687C77.0809 239.009 76.1035 246.319 75.0241 254.397C74.3293 259.497 73.6765 264.289 73.1167 268.399L73.1131 268.427L73.0999 268.449C70.6951 272.401 68.1313 275.354 66.0337 277.077C65.0005 277.962 64.0447 278.465 63.3991 278.796C63.0607 278.931 62.7961 279.022 62.6197 279.086C62.4409 279.149 62.3485 279.178 62.3461 279.171Z" fill="#263238"/>
<path d="M120.099 280.473C120.094 280.474 120.075 280.41 120.043 280.284C120.008 280.141 119.964 279.955 119.908 279.721C119.804 279.224 119.605 278.499 119.446 277.546C119.091 275.648 118.725 272.867 118.62 269.412C118.522 265.958 118.687 261.834 119.267 257.302C119.819 252.767 120.737 247.828 121.804 242.672C122.828 237.502 124.117 232.645 125.161 228.209C126.221 223.777 126.903 219.72 127.085 216.28C127.264 212.842 127.049 210.051 126.787 208.144C126.685 207.186 126.52 206.454 126.453 205.95C126.417 205.713 126.388 205.524 126.366 205.379C126.348 205.25 126.341 205.183 126.347 205.182C126.352 205.181 126.369 205.246 126.397 205.373C126.427 205.517 126.466 205.704 126.515 205.939C126.602 206.439 126.786 207.169 126.908 208.128C127.207 210.034 127.458 212.836 127.306 216.293C127.151 219.75 126.487 223.832 125.442 228.275C124.411 232.724 123.134 237.571 122.111 242.736C121.045 247.889 120.119 252.817 119.554 257.339C118.959 261.856 118.772 265.965 118.842 269.407C118.919 272.851 119.25 275.626 119.567 277.527C119.707 278.48 119.887 279.208 119.971 279.709C120.014 279.945 120.049 280.133 120.075 280.278C120.096 280.405 120.104 280.471 120.099 280.473Z" fill="#263238"/>
<path d="M130.196 212.817C130.12 212.767 131.156 211.116 132.305 209.01C133.461 206.907 134.294 205.146 134.377 205.182C134.416 205.199 134.256 205.662 133.943 206.389C133.63 207.115 133.159 208.102 132.579 209.161C131.999 210.219 131.422 211.147 130.978 211.802C130.535 212.456 130.231 212.84 130.196 212.817Z" fill="#263238"/>
<g opacity="0.3">
<path d="M132.13 210.325C135.257 206.666 138.649 203.231 142.267 200.056C143.257 199.187 144.333 198.305 145.632 198.089C147.218 197.826 148.829 198.643 149.929 199.817C151.028 200.99 151.711 202.483 152.375 203.948C153.947 200.08 152.315 195.727 150.695 191.878C150.169 190.627 149.254 189.14 147.911 189.341C147.194 189.449 146.656 190.031 146.182 190.58C140.985 196.613 136.175 202.979 131.791 209.626" fill="#494949"/>
</g>
<g opacity="0.3">
<path d="M184.883 181.746L185.108 179.844C182.823 180.063 180.013 180.331 178.187 181.723C176.058 183.346 175.219 186.112 174.502 188.692C172.871 194.564 177.499 224.774 177.263 230.863C179.289 230.003 180.712 217.038 181.076 214.867C181.963 209.58 180.168 206.279 180.711 204.807C181.254 203.334 181.24 201.726 181.285 200.157C181.483 193.149 182.179 188.215 184.883 181.746Z" fill="#494949"/>
</g>
<path d="M155.06 84.7843C152.156 81.1825 153.107 75.4321 156.431 72.2143C159.756 68.9965 164.812 68.0707 169.375 68.8375C175.979 69.9475 181.923 74.4337 184.802 80.4799C186.358 83.7475 187.206 87.6097 190.062 89.8333C192.572 91.7875 196.024 91.9591 198.881 93.3583C202.711 95.2339 205.18 99.2437 206.056 103.417C206.933 107.591 206.406 111.933 205.523 116.105C204.712 119.935 203.631 124.072 205.276 127.624C206.879 131.087 210.626 132.974 213.092 135.887C217.732 141.367 216.68 150.693 210.935 155.001C209.103 156.374 206.788 157.419 205.913 159.535C205.114 161.467 205.795 163.658 205.754 165.748C205.648 171.128 199.715 175.555 194.527 174.124C191.908 173.401 189.494 171.467 186.803 171.837C184.129 172.204 182.343 174.674 180.17 176.275C175.896 179.423 169.349 178.94 165.584 175.197C164.008 173.63 162.742 171.496 160.593 170.927C158.449 170.359 156.194 171.589 153.997 171.29C151.12 170.898 149.23 168.041 148.381 165.266C147.532 162.49 147.303 159.481 145.867 156.958C143.987 153.655 140.408 151.784 137.401 149.459C130.764 144.328 126.504 136.239 126.029 127.863C125.554 119.487 128.87 110.968 134.884 105.118" fill="#263238"/>
<path d="M114.817 156.76C109.077 163.343 106.813 172.798 108.95 181.267C111.088 189.735 118.171 202.111 126.347 205.182C131.65 201.295 138.465 195.866 143.41 191.533C146.609 188.729 148.307 184.63 149.892 180.682C150.806 178.404 151.735 175.942 151.161 173.555C150.738 171.798 149.548 170.333 148.295 169.03C140.251 160.663 127.99 156.574 116.533 158.435" fill="#EF9D78"/>
<path d="M139.1 95.8055C142.141 89.6387 149.083 86.4419 155.746 88.1399L176.217 93.3581C186.447 96.6551 194.456 112.485 188.425 126.353C183.663 137.304 178.784 151.064 173.89 158.621C164.05 173.817 150.598 170.345 150.598 170.345L143.338 186.541L113.656 158.706L139.1 95.8055Z" fill="#EF9D78"/>
<path d="M173.658 130.636C174.044 130.491 175.048 132.405 177.271 133.475C179.477 134.574 181.66 134.222 181.769 134.61C181.829 134.788 181.334 135.147 180.374 135.321C179.426 135.497 177.992 135.42 176.611 134.745C175.232 134.067 174.314 132.995 173.899 132.149C173.469 131.295 173.473 130.696 173.658 130.636Z" fill="#263238"/>
<path d="M150.478 120.083C150.914 120.002 151.906 122.132 154.295 123.61C156.665 125.116 159.1 125.135 159.197 125.551C159.252 125.743 158.684 126.025 157.61 126.034C156.551 126.049 154.971 125.722 153.488 124.792C152.005 123.86 151.058 122.605 150.65 121.67C150.231 120.724 150.272 120.112 150.478 120.083Z" fill="#263238"/>
<path d="M160.302 142.718C160.348 142.584 161.858 142.964 164.259 143.681C164.861 143.876 165.457 144.003 165.728 143.654C166.049 143.298 166.083 142.569 166.1 141.776C166.177 140.141 166.258 138.429 166.341 136.634C166.744 129.34 167.307 123.446 167.6 123.465C167.894 123.483 167.807 129.411 167.404 136.705C167.291 138.497 167.185 140.207 167.08 141.841C167.008 142.592 167.054 143.501 166.377 144.234C166.031 144.596 165.47 144.721 165.056 144.657C164.638 144.606 164.311 144.468 164.018 144.359C161.677 143.468 160.253 142.85 160.302 142.718Z" fill="#263238"/>
<path d="M150.572 170.385C150.572 170.385 138.718 165.94 130.725 154.562C130.725 154.562 131.174 168.455 148.756 174.456L150.572 170.385Z" fill="#D37A57"/>
<path d="M152.338 112.39C152.714 111.784 155.059 112.605 157.963 112.863C160.863 113.178 163.322 112.833 163.573 113.501C163.681 113.819 163.153 114.351 162.095 114.792C161.045 115.233 159.457 115.527 157.717 115.356C155.977 115.182 154.477 114.583 153.535 113.945C152.584 113.307 152.169 112.68 152.338 112.39Z" fill="#263238"/>
<path d="M178.494 118.994C179.253 118.99 180.187 120.856 181.803 122.642C183.366 124.477 185.101 125.653 184.99 126.395C184.921 126.739 184.291 126.886 183.296 126.591C182.311 126.306 180.996 125.521 179.903 124.276C178.811 123.031 178.21 121.633 178.062 120.628C177.906 119.612 178.14 119.015 178.494 118.994Z" fill="#263238"/>
<path d="M155.099 148.988C155.099 148.988 156.493 148.26 155.846 145.587C155.2 142.914 151.799 140.49 149.647 142.689C149.647 142.689 147.473 142.857 148.328 145.364C149.183 147.87 154.137 151.409 155.06 149.394" fill="#D37A57"/>
<path d="M154.289 151.029C153.893 150.961 154.496 148.352 152.695 145.98C150.899 143.603 148.051 143.247 148.115 142.878C148.117 142.706 148.853 142.515 150.034 142.758C151.194 142.986 152.789 143.748 153.891 145.199C154.988 146.652 155.221 148.304 155.06 149.395C154.906 150.508 154.464 151.086 154.289 151.029Z" fill="#263238"/>
<path d="M121.595 87.28C118.412 89.7208 116.519 93.7564 116.678 97.7644C116.767 100.008 117.314 102.656 115.661 104.175C113.979 105.722 111.331 104.892 109.046 104.904C105.07 104.925 101.377 108.235 100.922 112.185C100.76 113.602 100.944 115.136 100.221 116.365C99.4686 117.645 97.9596 118.218 96.69 118.988C93.5358 120.9 91.5216 124.559 91.5924 128.247C91.6638 131.935 93.8178 135.513 97.044 137.301C98.5116 138.116 100.23 138.624 101.302 139.916C102.532 141.397 102.578 143.495 103.18 145.323C104.335 148.829 107.869 151.406 111.56 151.432C115.25 151.459 118.822 148.934 120.028 145.446" fill="#263238"/>
<path d="M154.775 81.5387C153.573 85.0451 154.012 89.0765 155.941 92.2409C157.87 95.4059 161.252 97.6433 164.92 98.1809C167.765 98.5985 171.16 98.2386 172.996 100.451C174.928 102.779 173.783 106.49 175.31 109.101C177.494 112.832 181.215 115.808 184.746 118.302C187.473 120.227 184.353 125.588 185.542 128.707C186.73 131.827 191.622 138.945 194.957 139.072C195.687 136.282 199.84 124.028 199.912 121.145C199.984 118.262 199.335 115.267 197.551 113C196.573 111.758 195.284 110.767 194.438 109.432C192.609 106.549 193.223 102.817 192.631 99.4541C191.866 95.1203 188.866 91.2437 184.862 89.4155C181.532 87.8945 177.626 87.7259 174.55 85.7393C172.276 84.2711 170.651 81.9215 168.294 80.5907C163.705 77.9975 157.953 79.9733 153.211 82.2743" fill="#263238"/>
<path d="M132.676 116.416C132.202 116.1 129.056 118.482 132.162 120.382C137.603 123.71 142.277 112.466 142.077 108.729C144.849 107.558 147.655 106.369 150.095 104.514C152.536 102.66 156.188 96.5887 156.841 93.5191C158.923 94.3627 168.982 94.4388 168.11 93.8352C166.124 92.4612 162.107 89.514 161.573 87.2076C160.415 82.1976 156.856 77.8405 152.157 76.5307C147.457 75.2209 141.795 77.3646 139.201 81.9168C133.604 80.0682 126.969 81.7308 122.503 86.1C118.037 90.4692 115.921 97.3698 117.177 103.465C117.506 105.061 118.045 106.727 117.533 108.31C116.899 110.271 114.932 111.328 113.367 112.597C109.097 116.058 107.259 122.174 107.785 127.695C108.31 133.216 109.252 135.413 111.985 137.408C117.332 141.313 106.22 151.285 116.174 154.655" fill="#263238"/>
<path d="M206.978 154.532C206.951 154.492 207.329 154.285 207.914 153.737C208.489 153.191 209.32 152.31 209.919 150.916C210.532 149.553 210.95 147.649 210.481 145.564C210.013 143.474 208.435 141.481 206.321 139.783C204.269 138.018 201.574 136.445 199.666 133.67C197.735 130.882 197.419 127.086 198.028 123.487C198.629 119.833 200.151 116.283 201.127 112.498C201.619 110.608 201.926 108.643 201.862 106.647C201.797 104.665 201.355 102.64 200.293 100.925C199.238 99.2057 197.611 97.9241 195.829 97.0577C194.04 96.1829 192.107 95.6699 190.188 95.3399C188.263 95.0183 186.295 94.8371 184.426 94.2347C182.567 93.6797 180.79 92.4551 179.946 90.7049C179.074 88.9895 178.885 87.1685 178.503 85.5203C178.165 83.8553 177.537 82.3517 176.563 81.1121C174.655 78.5987 171.829 77.2061 169.214 76.7141C166.559 76.2317 164.07 76.7495 162.098 77.5709C160.115 78.4139 158.604 79.5455 157.485 80.5703C155.265 82.6721 154.527 84.2621 154.439 84.1967C154.428 84.1901 154.472 84.0929 154.569 83.9087C154.672 83.7287 154.804 83.4461 155.033 83.1101C155.462 82.4207 156.172 81.4409 157.273 80.3483C158.381 79.2701 159.898 78.0743 161.924 77.1659C163.937 76.2809 166.519 75.6959 169.309 76.1651C172.051 76.6451 175.025 78.0617 177.08 80.7131C178.124 82.0073 178.825 83.6645 179.177 85.3667C179.574 87.0539 179.787 88.8293 180.589 90.3695C181.358 91.9265 182.894 92.9891 184.657 93.5183C186.42 94.0817 188.347 94.2575 190.316 94.5785C192.287 94.9121 194.287 95.4347 196.173 96.3533C198.049 97.2623 199.814 98.6381 200.963 100.511C202.117 102.377 202.579 104.543 202.644 106.622C202.71 108.712 202.381 110.761 201.874 112.69C200.863 116.552 199.34 120.071 198.743 123.607C198.134 127.101 198.429 130.696 200.209 133.309C201.968 135.935 204.612 137.544 206.68 139.358C208.806 141.11 210.457 143.235 210.91 145.469C211.363 147.685 210.872 149.653 210.197 151.044C209.532 152.467 208.637 153.34 208.018 153.858C207.386 154.377 206.978 154.532 206.978 154.532Z" fill="#455A64"/>
<path d="M188.573 118.303C188.643 118.331 188.28 119.161 187.915 120.733C187.564 122.297 187.239 124.654 187.702 127.492C187.928 128.905 188.349 130.429 189.061 131.95C189.748 133.493 190.799 134.923 192.001 136.45C192.581 137.226 193.173 138.056 193.602 139.024C194.043 139.982 194.261 141.105 194.168 142.208C193.992 144.438 192.896 146.419 192.078 148.438C191.222 150.436 190.742 152.576 191.525 154.433C192.257 156.285 193.741 157.697 195.09 159.045C196.458 160.389 197.78 161.743 198.615 163.325C199.01 164.12 199.285 164.962 199.371 165.792C199.425 166.619 199.394 167.425 199.193 168.155C198.451 171.13 196.373 172.828 194.901 173.506C194.134 173.833 193.499 173.974 193.067 174.011C192.632 174.038 192.407 174.039 192.406 174.012C192.39 173.918 193.335 173.949 194.766 173.231C196.133 172.505 198.032 170.816 198.651 168.032C198.966 166.662 198.833 165.078 198.038 163.631C197.244 162.181 195.967 160.893 194.582 159.563C193.227 158.226 191.648 156.788 190.807 154.712C190.395 153.685 190.252 152.514 190.406 151.387C190.55 150.257 190.926 149.179 191.351 148.14C192.198 146.072 193.243 144.146 193.4 142.151C193.612 140.145 192.552 138.39 191.42 136.883C190.259 135.38 189.148 133.828 188.468 132.219C187.754 130.626 187.351 129.038 187.154 127.574C186.748 124.634 187.171 122.227 187.62 120.658C187.849 119.869 188.075 119.272 188.263 118.883C188.442 118.49 188.549 118.292 188.573 118.303Z" fill="#455A64"/>
<path d="M98.5476 137.138C98.5362 137.152 98.4204 137.066 98.205 136.886C97.9848 136.711 97.6878 136.417 97.3344 136.001C96.642 135.172 95.7372 133.772 95.3412 131.739C94.9392 129.758 95.0934 127.01 96.8124 124.614C98.4636 122.261 101.588 120.306 105.253 120.483L104.921 120.922C104.25 119.038 103.742 116.924 103.91 114.68C104.041 112.457 105.102 110.083 107.12 108.655C108.101 107.926 109.339 107.462 110.631 107.454C111.938 107.46 113.142 107.964 114.256 108.479C115.373 108.995 116.465 109.576 117.615 109.773C118.757 109.978 119.935 109.655 120.788 108.833C122.065 107.637 122.642 105.859 122.754 104.114C122.895 102.349 122.723 100.552 122.907 98.7575C123.273 95.1581 124.999 91.9385 127.327 89.6639C129.658 87.3497 132.65 86.1017 135.449 85.7195C138.269 85.3397 140.93 85.7783 143.078 86.6789L142.739 86.8127C143.686 84.8555 145.343 83.6477 146.869 83.0231C148.414 82.3817 149.881 82.2911 151.025 82.4033C152.181 82.5239 153.019 82.8749 153.554 83.1377C154.075 83.4383 154.326 83.6231 154.314 83.6405C154.277 83.7437 153.253 82.8695 151.001 82.6901C149.894 82.6259 148.489 82.7567 147.032 83.4053C145.591 84.0359 144.061 85.2143 143.219 87.0341L143.114 87.2615L142.879 87.1679C140.799 86.3381 138.237 85.9547 135.54 86.3489C132.858 86.7485 130.031 87.9605 127.831 90.1757C125.63 92.3549 124.006 95.4329 123.673 98.8331C123.5 100.531 123.676 102.319 123.535 104.177C123.416 106.018 122.809 108.024 121.322 109.412C120.33 110.387 118.816 110.803 117.488 110.548C116.153 110.312 115.028 109.69 113.927 109.186C112.834 108.673 111.734 108.228 110.629 108.223C109.527 108.227 108.443 108.616 107.561 109.267C105.74 110.551 104.762 112.661 104.622 114.739C104.449 116.83 104.909 118.866 105.544 120.701L105.706 121.171L105.211 121.142C101.826 120.94 98.8368 122.734 97.2474 124.928C95.5938 127.152 95.3838 129.75 95.7168 131.672C96.0426 133.638 96.8646 135.028 97.4928 135.878C98.1354 136.73 98.583 137.1 98.5476 137.138Z" fill="#455A64"/>
<path d="M154.529 86.0567C154.568 86.1953 153.361 85.9985 151.823 87.1079C150.29 88.1927 148.963 90.8189 148.573 94.1507L148.539 94.4369L148.257 94.4135C145.423 94.1801 141.842 95.2829 139.42 98.1053C138.837 98.8067 138.324 99.6281 138.001 100.498C137.693 101.391 137.537 102.382 137.386 103.401C137.231 104.42 137.091 105.478 136.771 106.543C136.493 107.6 135.81 108.705 134.878 109.377C132.886 110.932 130.441 111.2 128.303 111.541C126.123 111.835 124.076 112.197 122.31 113.092C118.743 114.821 116.396 117.821 115.367 120.609C114.299 123.425 114.339 125.95 114.548 127.609C114.762 129.289 115.118 130.177 115.043 130.2C115.018 130.209 114.919 129.994 114.753 129.572C114.605 129.145 114.394 128.507 114.245 127.655C113.939 125.974 113.803 123.373 114.844 120.416C115.849 117.485 118.256 114.295 121.99 112.441C123.84 111.478 126.03 111.077 128.19 110.777C130.328 110.437 132.648 110.136 134.389 108.759C136.102 107.552 136.288 105.28 136.621 103.283C136.779 102.262 136.94 101.234 137.289 100.241C137.669 99.2453 138.22 98.3921 138.861 97.6313C141.502 94.6175 145.304 93.5249 148.308 93.8321L147.993 94.0943C148.471 90.6251 149.933 87.9365 151.636 86.8427C152.467 86.2931 153.238 86.1047 153.746 86.0549C154.262 86.0273 154.529 86.0279 154.529 86.0567Z" fill="#455A64"/>
<path d="M133.835 118.124C135.546 114.772 133.247 110.556 129.483 110.564C127.417 110.569 125.194 111.689 123.347 115.231C118.421 124.676 128.92 127.673 129.077 127.411C129.176 127.247 131.831 122.05 133.835 118.124Z" fill="#EF9D78"/>
<path d="M128.059 122.327C128.033 122.275 127.834 122.356 127.49 122.339C127.154 122.321 126.643 122.164 126.247 121.723C125.44 120.836 125.426 118.814 126.268 117.088C126.692 116.216 127.298 115.492 127.957 114.973C128.605 114.432 129.304 114.182 129.853 114.355C130.412 114.5 130.612 114.986 130.589 115.313C130.577 115.643 130.419 115.8 130.461 115.843C130.475 115.88 130.746 115.79 130.874 115.36C130.933 115.153 130.938 114.872 130.811 114.575C130.681 114.272 130.396 114.005 130.027 113.86C129.272 113.531 128.267 113.859 127.544 114.428C126.779 114.98 126.077 115.783 125.6 116.763C124.669 118.698 124.714 120.987 125.873 122.093C126.447 122.613 127.106 122.702 127.508 122.628C127.923 122.546 128.083 122.361 128.059 122.327Z" fill="#D37A57"/>
<path d="M124.425 249.293C123.59 247.744 121.445 246.79 121.445 246.79L119.657 242.38C119.657 242.38 120.372 240.83 119.657 238.922C118.942 237.015 113.696 225.929 113.815 225.571L112.458 225.491C112.458 225.491 117.293 237.223 117.769 237.82C118.246 238.415 118.942 241.907 117.749 242.383C116.557 242.86 114.024 241.569 112.951 240.496C111.878 239.423 108.461 231.352 107.866 229.682C107.27 228.013 108.332 225.69 108.332 225.69L109.285 223.425H107.974C107.974 223.425 107.14 225.809 106.663 228.074C106.186 230.339 111.55 240.234 112.385 241.307C113.219 242.38 116.08 243.214 117.63 244.287C119.18 245.36 118.941 248.698 118.941 248.698C118.941 248.698 117.63 250.486 117.511 252.632C117.391 254.778 122.16 264.91 125.378 267.056C128.597 269.202 132.412 267.652 132.769 267.772C133.127 267.891 133.961 266.102 133.961 266.102C133.961 266.102 125.26 250.843 124.425 249.293ZM128.819 267.013C127.102 266.875 125.335 265.698 124.391 264.453C124 263.936 119.827 256.673 119.288 255.321C118.349 252.961 118.999 251.653 119.341 250.271C119.837 248.264 122.938 249.44 122.938 249.44C122.938 249.44 132.069 265.217 131.863 265.699C131.657 266.179 130.537 267.15 128.819 267.013Z" fill="white"/>
<path d="M133.962 266.102C133.962 266.102 160.55 255.983 161.791 254.837C163.033 253.691 167.521 247.102 167.521 247.102C167.521 247.102 169.717 247.484 169.43 248.057C169.144 248.63 164.942 255.22 160.454 257.129C155.966 259.039 132.77 267.771 132.77 267.771L133.962 266.102Z" fill="white"/>
<path d="M49.8306 182.732L38.8782 245.884C38.8782 245.884 34.8462 258.172 35.4222 260.86C35.9982 263.548 38.0346 275.143 44.1786 278.791C50.3226 282.439 62.493 280.058 64.989 277.562C67.485 275.066 72.4038 270.492 72.9798 268.38C73.5558 266.268 77.5956 234.157 77.5956 234.157L79.197 225.149C79.197 225.149 73.2456 227.069 69.5976 224.573C65.9496 222.077 61.1502 211.325 61.1502 211.325L55.7742 219.581L49.8306 182.732Z" fill="#F37335"/>
<path d="M61.149 211.326C61.158 211.332 61.0854 211.455 60.9396 211.682C60.7734 211.934 60.558 212.262 60.2898 212.669C59.7246 213.524 58.9104 214.765 57.9312 216.314C55.9614 219.407 53.3316 223.737 50.4576 228.538C47.5836 233.342 44.991 237.697 43.0638 240.82C42.1026 242.382 41.3088 243.637 40.7496 244.498C40.4796 244.904 40.2624 245.23 40.0956 245.482C39.9432 245.705 39.8586 245.819 39.8496 245.813C39.8406 245.807 39.9072 245.682 40.0422 245.448C40.1964 245.189 40.3968 244.852 40.6464 244.433C41.1918 243.521 41.9484 242.255 42.8748 240.705C44.763 237.523 47.3412 233.178 50.19 228.377C53.0646 223.574 55.7262 219.259 57.7458 216.194C58.7502 214.658 59.5932 213.434 60.1902 212.599C60.4782 212.206 60.7104 211.889 60.8886 211.645C61.0506 211.43 61.14 211.319 61.149 211.326Z" fill="#263238"/>
<path d="M77.8194 232.894C77.8272 232.902 77.7492 232.992 77.5932 233.156C77.4324 233.316 77.214 233.573 76.8882 233.856C76.2552 234.439 75.2658 235.233 73.8606 235.903C73.1538 236.22 72.3468 236.521 71.4408 236.666C70.5408 236.83 69.549 236.878 68.5272 236.737C67.5066 236.604 66.4512 236.331 65.4198 235.897C64.3914 235.457 63.3756 234.901 62.4006 234.221C61.4436 233.517 60.5988 232.718 59.8608 231.88C59.142 231.023 58.5294 230.133 58.0296 229.237C57.0348 227.44 56.4912 225.65 56.2122 224.132C55.9386 222.607 55.9212 221.348 55.9668 220.487C55.9824 220.056 56.0394 219.724 56.0616 219.499C56.0898 219.274 56.1096 219.156 56.1204 219.157C56.148 219.16 56.1102 219.635 56.0886 220.491C56.0808 221.347 56.1318 222.591 56.4294 224.09C56.733 225.584 57.2904 227.338 58.2816 229.096C58.7796 229.973 59.3862 230.843 60.093 231.68C60.8196 232.499 61.6482 233.279 62.5836 233.968C63.5346 234.63 64.5342 235.181 65.538 235.615C66.5454 236.044 67.572 236.315 68.5638 236.452C69.5568 236.597 70.5198 236.56 71.397 236.411C72.2808 236.281 73.0716 236 73.7694 235.702C75.1572 235.072 76.1556 234.316 76.8078 233.765C77.4576 233.207 77.799 232.874 77.8194 232.894Z" fill="#263238"/>
<path d="M61.149 211.326L69.3414 206.057C69.3414 206.057 91.1844 197.183 93.4032 196.672C95.6214 196.16 98.1816 195.136 99.3762 196.672C100.571 198.208 113.028 207.252 113.028 207.252C113.028 207.252 120.366 221.075 120.366 222.952C120.366 224.828 122.414 227.231 120.366 227.907C118.318 228.583 118.318 228.583 118.318 228.583C118.318 228.583 117.635 231.929 115.076 232.304C112.516 232.678 111.663 232.304 111.663 232.304C111.663 232.304 111.493 235.651 109.445 235.445C107.397 235.238 103.984 232.304 103.984 232.304C103.984 232.304 102.448 234.043 101.254 234.043C100.059 234.043 96.3048 231.484 96.3048 231.484L89.0461 225.17L82.6531 222.952L79.197 225.149C79.197 225.149 71.814 225.778 70.7058 225.175C69.5964 224.573 61.149 211.326 61.149 211.326Z" fill="#EF9D78"/>
<path d="M103.09 232.894C103.069 232.9 102.936 232.555 102.714 231.926C102.607 231.611 102.47 231.227 102.284 230.792C102.101 230.356 101.918 229.849 101.654 229.315C101.407 228.773 101.132 228.182 100.792 227.571C100.48 226.945 100.083 226.312 99.681 225.637C98.8368 224.311 97.8246 222.908 96.6354 221.539C95.4324 220.18 94.1718 218.993 92.9682 217.984C92.3514 217.498 91.7748 217.022 91.1952 216.63C90.633 216.213 90.0834 215.864 89.5788 215.549C89.0838 215.217 88.605 214.97 88.1964 214.732C87.789 214.49 87.4266 214.305 87.1272 214.158C86.5332 213.856 86.208 213.679 86.2164 213.659C86.2248 213.639 86.5668 213.779 87.18 214.049C87.4884 214.18 87.861 214.35 88.2786 214.579C88.698 214.803 89.1876 215.039 89.6934 215.36C90.2088 215.666 90.7704 216.007 91.3434 216.419C91.9344 216.805 92.5224 217.277 93.15 217.762C94.3758 218.769 95.655 219.962 96.87 221.333C98.0712 222.716 99.087 224.14 99.9258 225.486C100.325 226.171 100.717 226.816 101.022 227.452C101.355 228.074 101.62 228.675 101.856 229.226C102.109 229.77 102.279 230.286 102.447 230.731C102.619 231.175 102.739 231.566 102.829 231.89C103.017 232.531 103.111 232.888 103.09 232.894Z" fill="#D37A57"/>
<path d="M111.647 232.684C111.638 232.69 111.575 232.6 111.463 232.422C111.356 232.242 111.181 231.984 110.996 231.63C110.617 230.927 110.135 229.872 109.663 228.525C109.186 227.179 108.728 225.543 108.187 223.745C107.631 221.956 106.984 219.983 105.88 218.134C104.798 216.27 103.28 214.833 101.776 213.733C100.263 212.631 98.8086 211.744 97.6992 210.835C96.5802 209.942 95.8038 209.055 95.3814 208.372C95.175 208.028 95.0244 207.756 94.9476 207.559C94.8624 207.366 94.8228 207.264 94.833 207.259C94.866 207.243 95.0346 207.654 95.4828 208.304C95.9298 208.955 96.7134 209.8 97.836 210.661C98.949 211.537 100.407 212.4 101.945 213.5C103.478 214.599 105.041 216.066 106.148 217.972C107.276 219.862 107.92 221.862 108.463 223.662C108.991 225.471 109.425 227.106 109.873 228.453C110.315 229.801 110.761 230.859 111.104 231.574C111.458 232.284 111.67 232.671 111.647 232.684Z" fill="#D37A57"/>
<path d="M117.803 228.728C117.793 228.73 117.761 228.627 117.711 228.43C117.656 228.198 117.589 227.914 117.506 227.568C117.426 227.192 117.32 226.734 117.166 226.21C117.015 225.686 116.873 225.08 116.642 224.433C116.432 223.78 116.197 223.066 115.891 222.319C115.617 221.559 115.25 220.778 114.881 219.95C114.097 218.316 113.132 216.567 111.964 214.831C110.778 213.105 109.505 211.565 108.274 210.235C107.638 209.588 107.047 208.96 106.441 208.426C105.859 207.866 105.281 207.386 104.751 206.95C104.234 206.497 103.723 206.143 103.291 205.81C102.86 205.473 102.473 205.207 102.153 204.994C101.861 204.79 101.621 204.623 101.426 204.487C101.262 204.368 101.178 204.301 101.184 204.292C101.189 204.283 101.284 204.331 101.46 204.433C101.665 204.557 101.915 204.708 102.22 204.892C102.552 205.09 102.95 205.343 103.393 205.668C103.837 205.989 104.36 206.333 104.89 206.777C105.432 207.205 106.022 207.679 106.616 208.234C107.234 208.763 107.837 209.39 108.482 210.037C109.736 211.367 111.026 212.914 112.222 214.655C113.401 216.406 114.367 218.174 115.142 219.829C115.507 220.667 115.867 221.458 116.132 222.227C116.431 222.983 116.654 223.706 116.853 224.368C117.071 225.024 117.2 225.637 117.335 226.168C117.475 226.699 117.563 227.162 117.625 227.544C117.684 227.895 117.733 228.185 117.773 228.42C117.803 228.62 117.814 228.726 117.803 228.728Z" fill="#D37A57"/>
<path d="M85.6554 205.433C85.6638 205.484 85.2318 205.55 84.6012 205.822C83.9748 206.088 83.1516 206.605 82.524 207.433C81.897 208.263 81.6222 209.195 81.5358 209.871C81.4446 210.551 81.4986 210.985 81.447 210.991C81.414 210.999 81.2784 210.568 81.3156 209.85C81.348 209.139 81.6036 208.132 82.2744 207.245C82.9458 206.359 83.8464 205.84 84.5208 205.616C85.203 205.386 85.6536 205.399 85.6554 205.433Z" fill="#D37A57"/>
<path d="M91.7406 199.651C91.7904 199.732 90.7308 200.402 89.6868 201.515C88.6326 202.619 88.0212 203.714 87.9378 203.669C87.8652 203.641 88.3692 202.445 89.46 201.301C90.5418 200.15 91.7082 199.58 91.7406 199.651Z" fill="#D37A57"/>
<path d="M177.367 128.403C176.329 128.832 176.119 130.072 176.135 131.194C176.156 132.599 176.51 132.828 177.657 135.182C179.531 139.029 181.775 146.321 181.775 146.321C181.775 146.321 179.936 164.742 181.147 169.066C182.24 172.97 185.928 173.969 185.928 173.969L184.249 188.197H204.343C204.343 188.197 203.628 174.426 203.197 170.229C202.741 165.79 203.045 138.938 203.045 138.938L201.07 124.6L196.417 116.553C196.417 116.553 193.996 118.009 195.045 120.959C196.094 123.908 196.787 129.565 196.787 129.565L185.153 112.054C185.153 112.054 182.866 112.601 182.729 116.833C182.729 116.833 179.345 119.035 181.522 122.609C183.953 126.599 186.48 138.59 185.592 138.59L178.373 127.988L177.367 128.403Z" fill="#EF9D78"/>
<path d="M184.248 188.196C184.248 188.196 184.272 187.875 184.339 187.253C184.408 186.623 184.51 185.701 184.644 184.498C184.922 182.072 185.329 178.516 185.851 173.959L185.907 174.043C185.008 173.758 184.135 173.282 183.348 172.623C182.558 171.97 181.877 171.11 181.427 170.091C180.946 169.078 180.823 167.907 180.722 166.735C180.652 165.555 180.623 164.334 180.637 163.075C180.692 158.043 181.081 152.418 181.649 146.308L181.654 146.358C180.713 143.395 179.671 140.268 178.364 137.101C178.034 136.31 177.682 135.523 177.287 134.744C176.913 133.953 176.426 133.218 176.139 132.328C176.01 131.877 175.991 131.412 175.995 130.956C176.005 130.498 176.047 130.032 176.194 129.579C176.335 129.13 176.605 128.681 177.035 128.418C177.252 128.282 177.471 128.209 177.679 128.119L178.316 127.855L178.424 127.81L178.489 127.907C180.883 131.419 183.416 135.135 186.022 138.957L185.75 139.012C185.867 138.124 185.815 137.167 185.714 136.237C185.602 135.301 185.453 134.361 185.233 133.428C184.817 131.557 184.231 129.699 183.552 127.855C182.89 125.998 182.057 124.203 181.246 122.349C180.862 121.405 180.659 120.324 180.921 119.293C181.159 118.261 181.778 117.345 182.639 116.703L182.57 116.814C182.685 115.926 182.857 115.002 183.212 114.109C183.388 113.663 183.617 113.228 183.916 112.833C184.223 112.444 184.574 112.075 185.117 111.901L185.215 111.87L185.279 111.968C185.322 112.032 185.368 112.101 185.414 112.171C189.35 118.096 193.196 123.888 196.911 129.48L196.631 129.584C196.324 127.251 195.952 124.945 195.404 122.724C195.265 122.169 195.109 121.621 194.926 121.087C194.743 120.538 194.608 119.952 194.637 119.36C194.682 118.165 195.367 117.075 196.338 116.426L196.463 116.342L196.543 116.479C198.131 119.23 199.681 121.912 201.191 124.528L201.205 124.553L201.209 124.581C201.896 129.596 202.551 134.382 203.172 138.919L203.173 138.929V138.939C203.09 146.365 203.046 153.16 203.056 159.174C203.063 162.181 203.078 164.993 203.148 167.589C203.185 168.889 203.258 170.123 203.378 171.312C203.477 172.498 203.551 173.631 203.624 174.705C203.901 179.003 204.073 182.376 204.19 184.674C204.243 185.817 204.284 186.695 204.313 187.296C204.338 187.89 204.34 188.196 204.34 188.196C204.34 188.196 204.31 187.891 204.272 187.298C204.235 186.697 204.181 185.82 204.11 184.678C203.968 182.382 203.772 179.01 203.472 174.715C203.393 173.642 203.314 172.51 203.21 171.326C203.085 170.146 203.005 168.892 202.964 167.595C202.883 164.995 202.858 162.183 202.842 159.175C202.814 153.159 202.841 146.364 202.911 138.936L202.912 138.955C202.283 134.418 201.621 129.633 200.926 124.619L200.944 124.671C199.43 122.056 197.878 119.376 196.286 116.626L196.49 116.679C195.615 117.267 194.969 118.285 194.936 119.373C194.91 119.919 195.034 120.456 195.21 120.987C195.398 121.533 195.556 122.088 195.697 122.648C196.252 124.891 196.625 127.198 196.936 129.545L197.023 130.2L196.656 129.648C192.94 124.057 189.092 118.266 185.154 112.342C185.108 112.272 185.062 112.203 185.019 112.139L185.182 112.205C184.8 112.326 184.431 112.665 184.163 113.021C183.887 113.386 183.67 113.797 183.501 114.223C183.161 115.077 182.992 115.98 182.879 116.85L182.871 116.916L182.811 116.961C182.035 117.539 181.435 118.412 181.223 119.362C180.98 120.315 181.165 121.326 181.532 122.229C182.332 124.06 183.178 125.886 183.839 127.746C184.522 129.601 185.11 131.471 185.529 133.359C185.75 134.301 185.9 135.252 186.013 136.201C186.112 137.155 186.171 138.099 186.043 139.068L185.993 139.449L185.771 139.124C183.17 135.3 180.641 131.581 178.251 128.066L178.424 128.118C178.013 128.299 177.54 128.455 177.185 128.656C176.825 128.875 176.591 129.254 176.461 129.664C176.326 130.076 176.284 130.519 176.274 130.959C176.27 131.401 176.288 131.841 176.405 132.251C176.663 133.065 177.157 133.83 177.53 134.62C177.927 135.403 178.282 136.202 178.612 136.996C179.92 140.181 180.955 143.31 181.892 146.283L181.9 146.306L181.897 146.332C181.318 152.432 180.914 158.055 180.842 163.075C180.825 164.331 180.85 165.547 180.915 166.72C181.012 167.887 181.126 169.026 181.591 170.014C182.461 172.019 184.231 173.325 185.945 173.892L186.009 173.913L186.001 173.975C185.448 178.528 185.016 182.082 184.721 184.505C184.571 185.707 184.456 186.627 184.376 187.256C184.3 187.879 184.248 188.196 184.248 188.196Z" fill="#D37A57"/>
<path d="M193.128 140.131C193.106 140.134 193.03 139.78 192.91 139.138C192.8 138.495 192.604 137.571 192.346 136.435C191.808 134.17 190.885 131.071 189.376 127.852C187.879 124.625 186.152 121.894 184.85 119.96C184.2 118.992 183.659 118.217 183.283 117.683C182.909 117.148 182.71 116.846 182.726 116.833C182.744 116.82 182.975 117.098 183.381 117.611C183.788 118.123 184.357 118.88 185.033 119.835C186.385 121.742 188.152 124.471 189.66 127.72C191.18 130.963 192.078 134.099 192.562 136.387C192.794 137.535 192.958 138.469 193.031 139.12C193.114 139.768 193.15 140.128 193.128 140.131Z" fill="#D37A57"/>
<path d="M199.369 135.66C199.289 135.693 198.631 134.297 197.9 132.542C197.168 130.787 196.64 129.337 196.719 129.304C196.799 129.271 197.456 130.667 198.188 132.422C198.92 134.177 199.448 135.626 199.369 135.66Z" fill="#D37A57"/>
<path d="M182.643 182.306C179.119 213.43 174.526 246.562 169.247 280.982H210.149C217.839 263.955 213.137 249.098 211.085 227.922L204.34 179.844L182.643 182.306Z" fill="#F37335"/>
<path d="M169.247 280.982C169.242 280.982 169.247 280.913 169.262 280.78C169.28 280.63 169.304 280.435 169.335 280.189C169.409 279.652 169.513 278.892 169.646 277.923C169.934 275.938 170.347 273.098 170.854 269.599C171.889 262.555 173.315 252.857 174.889 242.144C176.432 231.415 177.736 221.691 178.596 214.642C179.033 211.118 179.364 208.264 179.588 206.291C179.702 205.32 179.791 204.559 179.854 204.02C179.886 203.774 179.911 203.579 179.93 203.43C179.95 203.297 179.962 203.23 179.967 203.23C179.972 203.231 179.971 203.3 179.962 203.434C179.95 203.584 179.935 203.78 179.916 204.026C179.867 204.567 179.797 205.33 179.708 206.304C179.521 208.282 179.224 211.14 178.815 214.669C178.012 221.727 176.741 231.459 175.198 242.189C173.654 252.916 172.162 262.614 171.073 269.632C170.524 273.126 170.078 275.96 169.766 277.942C169.609 278.906 169.485 279.663 169.397 280.199C169.354 280.443 169.32 280.636 169.294 280.785C169.268 280.916 169.253 280.983 169.247 280.982Z" fill="#263238"/>
<path d="M257.869 280.71H141.232L156.282 198.851C156.816 195.948 159.347 193.84 162.299 193.84H267.102C270.943 193.84 273.833 197.336 273.111 201.109L257.869 280.71Z" fill="#9A9A9A"/>
<path d="M141.232 280.71H96.9924L97.17 280.577C101.116 277.617 105.881 275.95 110.812 275.803L142.448 274.873L141.232 280.71Z" fill="#9A9A9A"/>
<path d="M169.247 193.951C169.243 193.981 168.923 193.891 168.304 193.886C167.691 193.882 166.763 194.008 165.713 194.529C164.671 195.043 163.507 195.964 162.605 197.357C161.703 198.757 161.092 200.583 160.7 202.649C160.319 204.719 159.984 207.019 159.571 209.471C159.149 211.923 158.699 214.543 158.184 217.292C157.168 222.794 155.963 228.826 154.654 235.147C152.02 247.789 149.582 259.219 147.988 267.526C147.186 271.679 146.567 275.045 146.148 277.372C145.94 278.512 145.778 279.408 145.66 280.052C145.604 280.337 145.558 280.566 145.522 280.747C145.489 280.903 145.468 280.983 145.46 280.982C145.453 280.981 145.459 280.899 145.478 280.74C145.502 280.558 145.534 280.326 145.573 280.038C145.67 279.391 145.807 278.489 145.98 277.344C146.348 275.006 146.921 271.631 147.685 267.469C149.202 259.142 151.593 247.697 154.226 235.058C155.535 228.739 156.751 222.712 157.788 217.218C158.314 214.472 158.777 211.856 159.214 209.409C159.643 206.959 159.993 204.674 160.397 202.588C160.811 200.507 161.455 198.647 162.399 197.224C163.349 195.802 164.557 194.88 165.638 194.375C166.726 193.865 167.681 193.765 168.305 193.798C168.935 193.832 169.247 193.951 169.247 193.951Z" fill="#263238"/>
<path d="M218.506 235.433C218.506 238.547 215.981 241.072 212.866 241.072C209.752 241.072 207.227 238.547 207.227 235.433C207.227 232.318 209.752 229.793 212.866 229.793C215.981 229.794 218.506 232.318 218.506 235.433Z" fill="#F5F5F5"/>
<path d="M286.571 280.805C286.571 280.891 225.152 280.961 149.407 280.961C73.6338 280.961 12.2286 280.891 12.2286 280.805C12.2286 280.719 73.6344 280.649 149.407 280.649C225.153 280.648 286.571 280.718 286.571 280.805Z" fill="#263238"/>
<path d="M242.043 128.03L240.441 112.964L232.756 114.698L226.135 103L230.26 118.817L238.056 117.03L242.043 128.03Z" fill="white"/>
<path d="M238.915 130.878L231.774 123.527L228.407 127.659L220 124.197L228.798 130.893L232.201 126.687L238.915 130.878Z" fill="white"/>
<path d="M198.002 75.2297L204.492 63.4211L210.2 67.4843L219.65 60.1631L210.832 71.7203L205.052 67.5761L198.002 75.2297Z" fill="white"/>
<path d="M209.912 81.9666L216.623 79.104L217.697 82.7424L224.17 82.7808L216.551 84.7584L215.473 81.0612L209.912 81.9666Z" fill="white"/>
<path d="M174.385 26.6479C174.385 26.6479 174.655 26.4763 175.192 26.1499C175.738 25.8379 176.557 25.3777 177.694 24.8953C179.943 23.9365 183.531 22.7581 188.309 22.9381C188.902 22.9669 189.514 23.0029 190.138 23.0881C190.762 23.1559 191.405 23.2567 192.045 23.4361C192.685 23.6143 193.331 23.8519 193.938 24.2065C194.536 24.5647 195.114 25.0387 195.481 25.6897C195.865 26.3269 195.985 27.1261 195.852 27.8875C195.705 28.6537 195.274 29.3497 194.742 29.9425C193.645 31.1173 192.145 31.9423 190.527 32.4949C187.312 33.6787 183.601 34.3141 179.683 34.0465C175.776 33.7915 171.646 32.6737 167.865 30.4201L167.78 30.3691L167.832 30.2839C169.276 27.9241 171.474 25.9531 174.062 24.5623C176.653 23.1673 179.63 22.3087 182.74 22.0771C185.851 21.8431 189.073 22.1539 192.279 22.8487C193.884 23.1931 195.491 23.6197 197.097 24.1159C198.7 24.6115 200.334 25.1323 201.87 25.9429C203.398 26.7421 204.827 27.8959 205.715 29.4613C206.152 30.2389 206.47 31.1029 206.551 32.0113C206.645 32.9173 206.47 33.8461 206.11 34.6867C205.359 36.3889 203.826 37.5967 202.21 38.4553C200.577 39.3271 198.774 39.8719 196.955 40.2979C189.68 42.0823 181.731 42.3733 173.832 40.8865C173.336 40.8049 172.846 40.6855 172.353 40.5835C171.859 40.4833 171.367 40.3669 170.878 40.2391C169.896 40.0045 168.904 39.7381 167.955 39.3433C167.004 38.9575 166.081 38.4589 165.284 37.7779C164.494 37.1023 163.844 36.1765 163.67 35.1097C163.472 34.0525 163.755 32.9329 164.341 32.0449C164.918 31.1431 165.722 30.4225 166.581 29.8063C167.445 29.1901 168.391 28.7029 169.348 28.2565C169.821 28.0171 170.308 27.8101 170.799 27.6043C171.285 27.3901 171.777 27.1897 172.28 27.0133C176.269 25.5181 180.57 24.6835 184.939 24.6169C187.123 24.5803 189.323 24.7291 191.506 25.0741C192.052 25.1551 192.598 25.2475 193.139 25.3699C193.682 25.4815 194.226 25.5895 194.761 25.7401C195.839 26.0029 196.918 26.3161 197.949 26.7697C198.978 27.2149 199.974 27.7813 200.83 28.5385C201.682 29.2885 202.38 30.2773 202.646 31.4143L202.734 31.8409L202.77 32.2747C202.809 32.5639 202.762 32.8549 202.751 33.1453C202.662 33.7177 202.518 34.2907 202.248 34.8055C201.75 35.8591 200.946 36.7237 200.077 37.4689C199.2 38.2159 198.22 38.8285 197.198 39.3565C196.689 39.6253 196.16 39.8557 195.633 40.0795C195.108 40.3117 194.575 40.5253 194.038 40.7317C191.895 41.5675 189.682 42.2497 187.419 42.7657C182.898 43.8133 178.186 44.2117 173.477 43.9159C171.124 43.7671 168.733 43.2757 166.62 42.1123C165.579 41.5243 164.602 40.7455 163.941 39.7117C163.288 38.6779 162.982 37.4317 163.076 36.2083C163.158 35.2033 163.525 34.2409 164.051 33.4003C164.577 32.5555 165.243 31.8127 165.979 31.1623C167.454 29.8579 169.189 28.8931 170.979 28.1539C174.55 26.6335 178.354 25.7353 182.172 25.4557C184.081 25.3153 185.995 25.3285 187.888 25.4953C188.835 25.5787 189.777 25.6975 190.71 25.8613C191.642 26.0137 192.58 26.2081 193.476 26.5279C194.37 26.8441 195.247 27.2377 196.022 27.7999C196.795 28.3525 197.49 29.0725 197.857 29.9779C198.246 30.8677 198.259 31.9027 197.949 32.8111C197.643 33.7249 197.062 34.5175 196.358 35.1475C194.92 36.4189 193.058 36.9511 191.29 37.3825C189.505 37.8061 187.731 38.2273 185.955 38.6185C182.407 39.4021 178.854 40.0627 175.29 40.3447C171.732 40.6429 168.16 40.5127 164.721 39.8347C161.289 39.1507 157.989 37.8739 155.154 35.9341L155 35.8285L155.14 35.7049C160.074 31.3621 166.223 28.7623 172.4 27.8725C178.589 26.9761 184.861 27.7837 190.3 30.1837C190.966 30.5185 191.611 30.9067 192.172 31.4035C192.737 31.8901 193.219 32.5015 193.47 33.2215C193.71 33.9451 193.671 34.7485 193.365 35.4397C193.052 36.1285 192.529 36.6835 191.949 37.1233C190.777 38.0143 189.397 38.4871 188.062 38.9377C186.712 39.3697 185.339 39.6937 183.962 39.9115C181.204 40.3333 178.432 40.3387 175.764 39.9145C175.101 39.7909 174.415 39.6019 173.87 39.1483C173.316 38.7061 173.045 37.9489 173.178 37.2571C173.328 36.5677 173.751 36.0031 174.229 35.5441C174.708 35.0785 175.265 34.7125 175.848 34.4101C180.601 32.2711 185.72 31.5991 190.468 32.1181C191.655 32.2507 192.834 32.4709 193.928 32.9143C195.017 33.3487 196.03 34.0297 196.712 34.9741C197.398 35.9011 197.798 37.0597 197.667 38.2027C197.541 39.3571 196.815 40.3231 195.988 41.0197C195.154 41.7361 194.209 42.2521 193.294 42.7777C192.361 43.2733 191.423 43.7323 190.464 44.1031C188.556 44.8651 186.616 45.3871 184.705 45.6955C180.877 46.3129 177.178 46.0597 173.91 45.2257L173.799 45.1975L173.866 45.1051C175.454 42.9217 177.646 41.4409 179.87 40.6231C182.103 39.8065 184.393 39.6157 186.423 39.9781C187.439 40.1401 188.404 40.4707 189.193 41.0167C189.583 41.2927 189.924 41.6293 190.173 42.0169C190.412 42.4087 190.575 42.8425 190.615 43.2811C190.713 44.1655 190.389 44.9929 189.955 45.6433C189.523 46.3063 188.966 46.8205 188.408 47.2453C187.276 48.0991 186.065 48.4597 185.089 48.8575C184.098 49.2337 183.279 49.5859 182.658 49.9393C182.04 50.2951 181.614 50.6329 181.354 50.8831C181.217 51.0013 181.132 51.1081 181.066 51.1705C181.002 51.2359 180.969 51.2665 180.969 51.2665C180.969 51.2665 181.082 51.1225 181.339 50.8675C181.596 50.6113 182.019 50.2663 182.638 49.9027C183.258 49.5415 184.078 49.1821 185.067 48.7993C186.042 48.3949 187.246 48.0283 188.359 47.1793C188.909 46.7569 189.458 46.2457 189.879 45.5923C190.303 44.9509 190.612 44.1439 190.515 43.2919C190.475 42.8683 190.315 42.4507 190.084 42.0733C189.842 41.6995 189.511 41.3749 189.13 41.1067C188.359 40.5763 187.408 40.2523 186.404 40.0957C184.394 39.7429 182.126 39.9379 179.918 40.7521C177.719 41.5669 175.555 43.0369 173.992 45.1951L173.949 45.0745C177.199 45.8959 180.876 46.1401 184.677 45.5197C186.576 45.2095 188.5 44.6881 190.395 43.9279C191.346 43.5583 192.276 43.1005 193.201 42.6073C194.109 42.0853 195.049 41.5681 195.859 40.8685C196.666 40.1863 197.349 39.2641 197.465 38.1786C197.587 37.1005 197.206 35.9899 196.544 35.0977C195.887 34.1911 194.913 33.5365 193.848 33.1123C192.78 32.6809 191.62 32.4649 190.444 32.3353C185.738 31.8241 180.645 32.5045 175.954 34.6213C175.392 34.9135 174.851 35.2699 174.394 35.7157C173.937 36.1549 173.545 36.6907 173.415 37.3027C173.301 37.9087 173.533 38.5675 174.027 38.9629C174.513 39.3691 175.162 39.5557 175.807 39.6733C178.44 40.0885 181.194 40.0825 183.922 39.6613C185.287 39.4441 186.646 39.1219 187.983 38.6929C189.308 38.2453 190.668 37.7737 191.79 36.9157C192.348 36.4921 192.837 35.9659 193.125 35.3329C193.404 34.6987 193.438 33.9667 193.219 33.3049C192.989 32.6455 192.539 32.0695 191.997 31.6027C191.458 31.1275 190.832 30.7489 190.181 30.4231C184.811 28.0585 178.574 27.2545 172.44 28.1497C166.313 29.0359 160.218 31.6189 155.333 35.9221L155.319 35.6929C158.117 37.6057 161.379 38.8675 164.779 39.5431C168.187 40.2127 171.729 40.3417 175.266 40.0435C178.809 39.7621 182.349 39.1033 185.89 38.3203C187.661 37.9297 189.437 37.5073 191.218 37.0843C192.977 36.6565 194.79 36.1273 196.153 34.9177C196.824 34.3183 197.373 33.5641 197.657 32.7127C197.944 31.8673 197.932 30.9181 197.572 30.0949C197.235 29.2597 196.584 28.5799 195.842 28.0501C195.1 27.5113 194.247 27.1273 193.374 26.8195C192.498 26.5069 191.586 26.3179 190.657 26.1661C189.733 26.0047 188.799 25.8865 187.861 25.8043C185.984 25.6393 184.087 25.6261 182.194 25.7659C178.409 26.0437 174.639 26.9341 171.1 28.4413C169.325 29.1745 167.629 30.1201 166.186 31.3957C164.768 32.6533 163.545 34.3147 163.386 36.2353C163.299 37.3897 163.587 38.5669 164.203 39.5431C164.827 40.5205 165.762 41.2693 166.773 41.8393C168.822 42.9691 171.177 43.4581 173.497 43.6039C178.174 43.8979 182.857 43.5025 187.35 42.4621C189.598 41.9497 191.797 41.2723 193.927 40.4425C194.46 40.2373 194.99 40.0249 195.511 39.7945C196.037 39.5713 196.557 39.3451 197.057 39.0811C198.061 38.5627 199.024 37.9603 199.878 37.2331C200.725 36.5077 201.5 35.6701 201.972 34.6711C202.229 34.1821 202.362 33.6445 202.447 33.1081C202.456 32.8363 202.503 32.5639 202.464 32.2927L202.432 31.8853L202.349 31.4857C202.101 30.4213 201.447 29.4883 200.628 28.7665C199.806 28.0393 198.837 27.4849 197.828 27.0487C196.819 26.6035 195.76 26.2951 194.688 26.0335C194.157 25.8841 193.617 25.7773 193.078 25.6663C192.542 25.5445 192.001 25.4533 191.459 25.3723C189.294 25.0297 187.111 24.8809 184.945 24.9163C180.61 24.9805 176.342 25.8067 172.384 27.2887C171.885 27.4639 171.396 27.6619 170.914 27.8743C170.428 28.0777 169.944 28.2829 169.475 28.5205C168.522 28.9645 167.594 29.4421 166.749 30.0433C165.91 30.6439 165.133 31.3441 164.586 32.1997C164.03 33.0439 163.773 34.0759 163.954 35.0587C164.115 36.0469 164.715 36.9109 165.472 37.5595C166.234 38.2117 167.132 38.7001 168.063 39.0781C168.994 39.4663 169.965 39.7285 170.946 39.9631C171.433 40.0903 171.922 40.2067 172.414 40.3069C172.905 40.4089 173.391 40.5283 173.884 40.6093C181.741 42.0937 189.652 41.8099 196.893 40.0399C198.708 39.6169 200.481 39.0805 202.089 38.2249C203.677 37.3837 205.161 36.2053 205.876 34.5835C206.22 33.7813 206.389 32.8975 206.299 32.0341C206.224 31.1677 205.919 30.3361 205.498 29.5849C204.64 28.0705 203.257 26.9473 201.755 26.1589C200.247 25.3603 198.625 24.8407 197.027 24.3445C195.427 23.8477 193.827 23.4217 192.23 23.0773C189.041 22.3825 185.843 22.0705 182.757 22.2985C179.676 22.5247 176.727 23.3707 174.162 24.7471C171.6 26.1193 169.428 28.0627 168 30.3871L167.967 30.2509C171.715 32.4925 175.815 33.6097 179.695 33.8707C183.588 34.1431 187.277 33.5191 190.474 32.3503C192.085 31.8049 193.559 30.9943 194.637 29.8465C195.159 29.2681 195.576 28.5949 195.719 27.8617C195.848 27.1339 195.736 26.3671 195.369 25.7551C195.019 25.1293 194.461 24.6667 193.876 24.3145C193.283 23.9653 192.646 23.7295 192.015 23.5513C191.382 23.3719 190.748 23.2705 190.125 23.2009C189.505 23.1145 188.896 23.0761 188.305 23.0455C183.549 22.8493 179.967 24.0061 177.716 24.9463C176.578 25.4197 175.756 25.8709 175.207 26.1745C174.665 26.4913 174.385 26.6479 174.385 26.6479Z" fill="#263238"/>
</g>
<defs>
<filter id="filter0_d_1_704" x="-4" y="0" width="308" height="308" filterUnits="userSpaceOnUse" color-interpolation-filters="sRGB">
<feFlood flood-opacity="0" result="BackgroundImageFix"/>
<feColorMatrix in="SourceAlpha" type="matrix" values="0 0 0 0 0 0 0 0 0 0 0 0 0 0 0 0 0 0 127 0" result="hardAlpha"/>
<feOffset dy="4"/>
<feGaussianBlur stdDeviation="2"/>
<feComposite in2="hardAlpha" operator="out"/>
<feColorMatrix type="matrix" values="0 0 0 0 0 0 0 0 0 0 0 0 0 0 0 0 0 0 0.25 0"/>
<feBlend mode="normal" in2="BackgroundImageFix" result="effect1_dropShadow_1_704"/>
<feBlend mode="normal" in="SourceGraphic" in2="effect1_dropShadow_1_704" result="shape"/>
</filter>
</defs>
</svg>
