<svg width="1440" height="238" viewBox="0 0 1440 238" fill="none" xmlns="http://www.w3.org/2000/svg">
<path fill-rule="evenodd" clip-rule="evenodd" d="M0 79.5373L34.0472 75.2545C69.0958 70.3599 137.19 61.7943 206.286 75.2545C274.381 88.1028 343.476 123.589 411.571 136.437C480.667 149.897 549.763 141.332 617.857 132.154C686.953 123.589 755.047 114.411 824.143 92.3856C892.237 70.3599 961.333 35.4859 1030.43 39.7686C1098.52 44.0514 1167.62 88.1028 1235.71 88.1028C1304.81 88.1028 1372.9 44.0514 1407.95 22.0257L1442 0V238H1407.95C1372.9 238 1304.81 238 1235.71 238C1167.62 238 1098.52 238 1030.43 238C961.333 238 892.237 238 824.143 238C755.047 238 686.953 238 617.857 238C549.763 238 480.667 238 411.571 238C343.476 238 274.381 238 206.286 238C137.19 238 69.0958 238 34.0472 238H0V79.5373Z" fill="white"/>
</svg>
