<svg width="450" height="300" viewBox="0 0 450 300" fill="none" xmlns="http://www.w3.org/2000/svg">
<path d="M375 0H75V300H375V0Z" fill="white"/>
<path d="M84.3904 61.2774C62.2102 53.3622 37.2298 68.7558 32.0344 84.5112C25.8292 103.329 45.799 120.962 48.2218 125.224C51.682 131.311 48.265 138.796 45.6412 145.288C39.3604 160.826 36.7402 176.399 48.4714 188.369C56.8828 196.951 63.13 200.411 75.1228 201.175C91.3199 202.206 107.675 200.726 123.423 196.803C130.934 194.932 138.987 192.53 146.195 195.352C152.255 197.726 156.346 203.295 160.426 208.366C164.834 213.845 169.704 219.117 175.775 222.665C181.847 226.213 189.314 227.875 196.029 225.787C201.32 224.141 205.646 220.394 209.965 216.923C215.496 212.477 221.274 208.34 227.264 204.535C233.813 200.376 241.042 196.501 248.798 196.664C259.038 196.88 267.62 203.935 276.457 209.112C285.294 214.288 297.428 217.448 305.113 210.677C312.284 204.359 318.329 193.94 327.165 190.297C337.896 185.87 350.115 189.275 361.067 193.122C372.02 196.969 383.664 201.293 394.941 198.538C407.711 195.417 417 183.328 419.494 170.421C421.988 157.514 418.626 144.074 412.993 132.196C409.373 124.563 404.694 117.237 398.083 111.978C383.774 100.595 362.049 100.012 350.397 85.9218C338.504 71.5404 341.178 47.4756 326.162 36.3936C316.465 29.2368 302.978 30.5484 291.373 33.801C279.768 37.0536 248.263 52.3548 223.013 41.5392C145.52 8.3442 116.399 72.7002 84.3904 61.2774Z" fill="#FCD19C"/>
<mask id="mask0_102_2822" style="mask-type:luminance" maskUnits="userSpaceOnUse" x="30" y="31" width="391" height="196">
<path d="M84.3904 61.2774C62.2102 53.3622 37.2298 68.7558 32.0344 84.5112C25.8292 103.329 45.799 120.962 48.2218 125.224C51.682 131.311 48.265 138.796 45.6412 145.288C39.3604 160.826 36.7402 176.399 48.4714 188.369C56.8828 196.951 63.13 200.411 75.1228 201.175C91.3199 202.206 107.675 200.726 123.423 196.803C130.934 194.932 138.987 192.53 146.195 195.352C152.255 197.726 156.346 203.295 160.426 208.366C164.834 213.845 169.704 219.117 175.775 222.665C181.847 226.213 189.314 227.875 196.029 225.787C201.32 224.141 205.646 220.394 209.965 216.923C215.496 212.477 221.274 208.34 227.264 204.535C233.813 200.376 241.042 196.501 248.798 196.664C259.038 196.88 267.62 203.935 276.457 209.112C285.294 214.288 297.428 217.448 305.113 210.677C312.284 204.359 318.329 193.94 327.165 190.297C337.896 185.87 350.115 189.275 361.067 193.122C372.02 196.969 383.664 201.293 394.941 198.538C407.711 195.417 417 183.328 419.494 170.421C421.988 157.514 418.626 144.074 412.993 132.196C409.373 124.563 404.694 117.237 398.083 111.978C383.774 100.595 362.049 100.012 350.397 85.9218C338.504 71.5404 341.178 47.4756 326.162 36.3936C316.465 29.2368 302.978 30.5484 291.373 33.801C279.768 37.0536 248.263 52.3548 223.013 41.5392C145.52 8.3442 116.399 72.7002 84.3904 61.2774Z" fill="white"/>
</mask>
<g mask="url(#mask0_102_2822)">
<path d="M194.161 237.121C183.921 224.026 177.129 207.471 173.412 191.363C168.999 172.238 172.612 151.78 177.697 133.13C177.154 133.201 176.611 133.272 176.068 133.343C189.421 162.593 190.624 195.18 191.588 226.79C191.623 227.927 193.395 227.932 193.36 226.79C192.372 194.886 191.181 161.926 177.607 132.443C177.277 131.726 176.166 131.963 175.979 132.656C170.941 151.376 167.459 172.187 171.842 191.348C175.59 207.732 182.628 224.701 192.808 238.165C193.552 239.149 194.934 238.109 194.161 237.121Z" fill="white"/>
<path d="M193.208 226.025C194.717 212.266 196.751 199.066 202.791 186.472C208.666 174.221 215.127 162.029 221.91 150.26C221.355 150.11 220.801 149.96 220.246 149.81C221.424 165.761 220.302 181.385 215.247 196.648C212.774 204.115 209.495 211.31 205.474 218.072C203.44 221.492 201.212 224.793 198.815 227.969C196.516 231.015 193.997 233.884 192.555 237.455C192.107 238.564 193.863 239.229 194.444 238.252C198.634 231.208 204.014 225.008 208.091 217.873C211.998 211.034 215.175 203.761 217.557 196.253C222.272 181.394 224.339 165.055 222 149.573C221.888 148.826 220.682 148.696 220.368 149.359C214.215 162.354 206.71 174.704 200.772 187.802C195.273 199.93 193.732 212.904 192.495 226.026C192.451 226.485 193.159 226.476 193.208 226.025Z" fill="white"/>
<path d="M178.271 158.726C178.142 172.141 180.503 185.681 183.056 198.805C184.467 206.061 186.059 213.284 187.859 220.455C188.658 223.636 189.5 226.807 190.404 229.959C191.118 232.445 191.604 235.85 193.159 237.96C193.409 238.3 194.015 238.22 194.007 237.73C193.967 235.274 192.628 232.612 191.942 230.262C191.033 227.145 190.188 224.009 189.385 220.863C187.564 213.726 185.955 206.534 184.525 199.309C181.895 186.02 179.301 172.321 179.304 158.726C179.304 158.06 178.277 158.06 178.271 158.726Z" fill="white"/>
<path d="M193.979 237.847C196.848 225.554 201.783 213.872 206.395 202.16C210.103 192.746 214.62 182.647 214.857 172.371C214.869 171.826 214.063 171.841 214.02 172.371C213.148 182.916 208.837 193.045 204.993 202.781C200.486 214.194 195.817 225.603 193.125 237.611C193 238.166 193.849 238.404 193.979 237.847Z" fill="white"/>
<path d="M39.3634 206.445C31.1836 193.189 26.5192 177.024 24.8206 161.611C22.8406 143.649 28.2988 125.261 34.8556 108.712C34.2826 108.712 33.7102 108.712 33.1372 108.712C42.4504 137.153 40.2382 167.337 37.8658 196.679C37.774 197.816 39.547 197.81 39.6376 196.679C42.0034 167.228 44.3056 136.757 34.8556 108.239C34.5646 107.36 33.454 107.431 33.1372 108.239C26.4946 125.177 21.1678 144.146 23.3908 162.464C25.255 177.826 29.9464 193.94 37.876 207.314C38.4412 208.268 39.9472 207.391 39.3634 206.445Z" fill="white"/>
<path d="M39.5227 196.109C42.3007 183.745 45.4795 171.861 52.2097 160.982C58.9339 150.112 66.2809 139.359 73.8823 129.088C73.3273 128.938 72.7729 128.787 72.2179 128.637C71.6119 143.497 69.0061 157.814 62.7067 171.377C59.7445 177.755 56.1343 183.833 51.9301 189.471C49.6387 192.544 47.1529 195.467 44.5183 198.251C42.0925 200.815 39.4069 203.213 37.7263 206.358C37.0807 207.566 38.7211 208.429 39.5113 207.401C44.2075 201.291 49.8373 196.027 54.3757 189.77C58.6969 183.813 62.3581 177.377 65.3059 170.635C71.0083 157.589 74.6011 142.941 74.0047 128.637C73.9681 127.757 72.8131 127.415 72.3403 128.186C65.4433 139.438 57.3487 149.936 50.5549 161.252C44.1367 171.944 41.3419 183.83 38.8345 195.919C38.7421 196.366 39.4219 196.559 39.5227 196.109Z" fill="white"/>
<path d="M32.6181 132.5C31.0893 145.101 31.9125 158.069 32.9613 170.674C33.5169 177.347 34.2351 184.007 35.1411 190.642C35.5479 193.621 35.9925 196.595 36.4977 199.559C36.8967 201.899 36.9693 205.063 38.2263 207.11C38.4801 207.524 39.0243 207.309 39.0747 206.88C39.3357 204.67 38.3415 202.052 37.9599 199.874C37.4463 196.945 36.9939 194.006 36.5805 191.062C35.5893 184.001 34.8237 176.908 34.2381 169.804C33.2229 157.493 32.2827 144.82 33.6519 132.501C33.7257 131.837 32.6973 131.849 32.6181 132.5Z" fill="white"/>
<path d="M39.0463 206.998C43.0651 195.677 49.0195 185.179 54.6025 174.584C58.8505 166.522 63.7999 157.924 65.0269 148.754C65.0893 148.289 64.2967 148.183 64.2049 148.643C62.2477 158.452 57.1549 167.468 52.5157 176.213C47.2429 186.154 41.8675 196.093 38.1913 206.762C38.0059 207.303 38.8573 207.531 39.0463 206.998Z" fill="white"/>
<path d="M403.301 198.026C388.567 188.284 376.104 173.911 366.881 158.959C355.805 141.004 352.44 118.948 351.26 98.2032C350.753 98.4132 350.246 98.6232 349.739 98.8332C373.22 123.941 385.506 156.567 397.209 188.285C397.6 189.346 399.314 188.887 398.918 187.814C387.108 155.852 374.747 122.812 351 97.5732C350.488 97.0296 349.433 97.4304 349.479 98.2032C350.045 107.655 351.321 117.11 353.254 126.379C354.865 134.108 356.683 142.009 359.921 149.242C365.832 162.444 375.212 174.33 385.253 184.637C390.54 190.065 396.166 195.231 402.433 199.514C403.346 200.139 404.225 198.637 403.301 198.026Z" fill="white"/>
<path d="M398.531 187.052C395.424 172.774 392.96 158.773 394.743 144.133C396.515 129.592 398.997 114.919 401.862 100.557C401.318 100.628 400.773 100.699 400.229 100.771C406.89 116.546 410.989 132.887 410.987 150.092C410.985 158.476 410.102 166.854 408.306 175.045C407.416 179.102 406.3 183.105 404.979 187.042C403.686 190.898 402.101 194.673 401.832 198.77C401.757 199.926 403.621 200.186 403.863 199.045C405.689 190.418 409.099 182.262 410.813 173.587C412.44 165.35 413.191 156.928 413.052 148.534C412.775 131.918 409.341 114.742 401.772 99.8682C401.325 98.9916 400.205 99.531 400.107 100.319C398.282 115.169 395.079 129.84 393.402 144.709C391.765 159.231 394.566 173.155 397.843 187.241C397.947 187.69 398.629 187.5 398.531 187.052Z" fill="white"/>
<path d="M360.609 123.857C365.074 137.63 372.142 150.659 379.259 163.206C383.183 170.123 387.282 176.945 391.578 183.638C393.473 186.591 395.41 189.519 397.406 192.405C398.921 194.596 400.462 197.569 402.637 199.163C402.949 199.392 403.441 199.009 403.306 198.649C402.36 196.145 400.132 193.898 398.609 191.702C396.609 188.818 394.669 185.892 392.769 182.942C388.543 176.378 384.509 169.689 380.641 162.908C373.478 150.349 366.2 137.344 361.605 123.583C361.396 122.954 360.403 123.22 360.609 123.857Z" fill="white"/>
<path d="M403.31 198.77C402.041 185.353 403.077 171.853 403.779 158.434C404.345 147.632 405.501 135.845 402.267 125.343C402.108 124.829 401.33 125.041 401.46 125.566C404.177 136.527 403.238 148.255 402.645 159.411C401.948 172.516 401.078 185.676 402.424 198.77C402.482 199.33 403.364 199.34 403.31 198.77Z" fill="white"/>
<path d="M327.989 211.951C327.208 207.67 325.381 203.507 323.757 199.496C321.582 194.124 319.235 188.821 316.873 183.529C315.067 179.485 313.171 175.472 311.458 171.387C309.645 167.063 308.722 162.376 308.932 157.68C308.967 156.74 309.054 155.805 309.195 154.875C309.213 153.335 310.015 152.849 311.6 153.418C313.73 153.363 314.212 153.718 315.798 154.949C317.541 156.303 319.029 157.849 320.399 159.577C320.786 160.065 321.659 159.537 321.449 158.965C319.04 152.426 317.089 145.733 315.717 138.898C315.417 137.405 315.09 135.929 315.33 134.406C315.477 133.474 315.816 131.792 316.861 131.425C317.811 131.09 319.992 132.068 320.718 132.736C322.114 134.021 323.204 136.104 324.308 137.647C325.429 139.211 326.555 140.773 327.678 142.336C328.014 142.802 328.851 142.546 328.662 141.922C325.685 132.036 323.338 120.861 324.33 110.483C324.6 107.653 325.317 104.567 327.319 102.425C329.2 100.414 332.218 99.3276 334.257 101.788C336.09 104 336.874 106.946 337.401 109.71C338.791 117.004 338.401 124.675 337.878 132.038C337.358 139.348 336.456 146.617 335.533 153.884C335.422 154.76 336.673 154.757 336.949 154.076C338.367 150.577 340.323 145.515 344.04 143.828C347.277 142.359 345.612 148.516 345.218 149.963C343.524 156.189 340.574 161.942 337.451 167.554C337.065 168.247 337.956 168.912 338.532 168.388C339.708 167.319 341.182 165.808 342.734 165.314C346.149 164.225 345.462 169.349 344.625 171.182C343.568 173.501 342.014 175.583 340.848 177.853C338.947 181.555 337.173 185.319 335.429 189.097C333.378 193.536 331.212 197.936 329.352 202.46C328.131 205.427 326.575 208.817 326.444 212.078C326.388 213.472 328.553 213.47 328.609 212.078C328.783 207.748 331.305 202.958 332.895 199.015C335.113 193.513 337.597 188.135 340.241 182.825C341.066 181.166 341.886 179.498 342.802 177.887C344.358 175.148 346.672 172.351 347.062 169.118C347.286 167.26 346.815 163.696 344.551 163.257C342.07 162.776 339.103 165.901 337.558 167.414C337.919 167.692 338.279 167.971 338.64 168.248C340.708 164.182 342.673 160.04 344.465 155.845C345.863 152.567 347.702 148.702 347.476 145.034C347.329 142.655 345.917 141.124 343.589 142.259C339.178 144.411 337.197 149.374 335.559 153.692C336.031 153.757 336.503 153.82 336.975 153.884C338.411 140.152 340.732 125.95 338.927 112.148C338.407 108.17 337.449 102.16 333.825 99.6396C331.482 98.0112 328.533 99.4632 326.74 101.263C324.422 103.59 323.515 106.867 323.18 110.05C322.07 120.6 324.562 132.175 327.624 142.207C327.952 142.069 328.281 141.931 328.608 141.793C327.051 139.644 318.745 124.701 314.976 132.233C313.288 135.605 314.792 140.129 315.575 143.492C316.822 148.847 318.399 154.118 320.238 159.299C320.588 159.095 320.938 158.892 321.288 158.688C319.186 155.971 315.677 151.95 312.059 151.26C308.651 150.61 307.841 153.907 307.629 156.598C307.034 164.164 309.639 170.676 312.697 177.372C315.518 183.548 318.355 189.718 321.041 195.955C323.279 201.153 325.967 206.609 327.063 212.205C327.183 212.813 328.099 212.554 327.989 211.951Z" fill="white"/>
<path d="M327.834 212.078C329.194 196.203 329.941 180.278 330.918 164.376C332.01 146.6 334.102 128.76 331.844 110.977C331.784 110.504 331.048 110.476 331.081 110.977C331.747 121.234 332.368 131.372 331.709 141.654C331.223 149.23 330.601 156.796 330.145 164.375C329.189 180.274 328.482 196.199 327.218 212.078C327.187 212.473 327.8 212.47 327.834 212.078Z" fill="white"/>
<path d="M96.2727 219.789C97.2585 215.794 97.3239 211.509 97.4913 207.42C97.7319 201.537 97.7607 195.645 97.7769 189.758C97.7889 185.397 97.6821 181.021 97.8249 176.662C97.9779 171.999 99.1077 167.413 101.271 163.27C102.155 161.579 102.375 160.708 104.42 160.612C106.45 160.518 106.701 161.309 107.666 162.936C108.964 165.123 109.856 167.452 110.484 169.91C110.666 170.626 111.67 170.427 111.718 169.744C112.212 162.668 113.141 155.54 114.865 148.648C115.167 147.44 115.535 146.236 116.253 145.199C116.822 143.959 117.758 143.725 119.06 144.495C120.324 144.139 121.061 144.458 121.267 145.454C121.601 145.964 121.686 146.659 121.833 147.239C122.691 150.638 123.231 154.152 123.931 157.588C124.064 158.238 124.917 157.993 124.989 157.444C126.289 147.508 128.703 136.594 133.701 127.8C134.86 125.762 136.309 123.754 138.312 122.469C140.577 121.016 144.32 120.116 145.777 123.131C146.976 125.612 146.39 129.074 145.833 131.612C144.258 138.786 140.807 145.558 137.363 151.99C133.917 158.423 130.13 164.657 126.321 170.879C125.886 171.589 126.868 172.312 127.453 171.752C129.094 170.185 130.764 168.629 132.688 167.41C133.687 166.776 137.525 164.544 138.853 165.44C140.606 166.624 137.246 170.432 136.368 171.49C132.401 176.278 127.535 180.175 122.57 183.872C121.994 184.301 122.296 185.393 123.101 185.131C124.58 184.647 126.135 184.179 127.698 184.083C130.254 183.925 130.185 186.205 129.157 188.048C127.709 190.642 124.51 192.041 122.238 193.804C119.261 196.114 116.391 198.57 113.54 201.033C109.58 204.455 105.56 207.823 101.718 211.381C99.3303 213.592 96.3573 216.146 94.8747 219.115C94.2537 220.358 96.1215 221.456 96.7449 220.208C98.6871 216.319 102.91 212.997 105.994 210.05C110.345 205.893 114.876 201.952 119.541 198.152C121.077 196.9 122.621 195.67 124.246 194.536C126.635 192.868 129.552 191.255 130.854 188.514C131.604 186.938 132.273 183.82 130.363 182.78C128.276 181.645 124.699 183.079 122.735 183.805C122.958 184.188 123.182 184.571 123.405 184.955C126.761 182.253 130.049 179.441 133.233 176.538C135.851 174.15 138.984 171.463 140.408 168.121C141.143 166.396 141.147 164.167 138.981 163.81C134.136 163.012 129.485 167.685 126.433 170.735C126.81 171.026 127.188 171.317 127.566 171.608C134.502 159.673 142.613 147.585 146.36 134.159C147.336 130.66 149.039 123.853 145.811 120.939C144.032 119.333 141.089 119.78 139.093 120.656C135.952 122.035 133.806 124.998 132.263 127.949C127.564 136.926 125.178 147.467 123.911 157.446C124.263 157.399 124.616 157.351 124.968 157.303C124.413 154.626 122.888 137.844 116.468 143.527C113.697 145.979 113.267 150.51 112.61 153.89C111.593 159.129 110.897 164.427 110.46 169.745C110.872 169.689 111.283 169.633 111.695 169.578C110.904 166.317 109.328 160.829 106.172 158.989C103.448 157.402 101.537 159.941 100.336 162.112C96.8109 168.481 96.4437 175.247 96.4833 182.32C96.5211 189.003 96.5823 195.686 96.4803 202.369C96.3945 207.992 96.6303 214.021 95.3469 219.535C95.2077 220.134 96.1245 220.39 96.2727 219.789Z" fill="white"/>
<path d="M96.0755 219.817C103.854 205.85 111.08 191.581 118.525 177.436C126.466 162.347 135.274 147.57 140.251 131.143C140.396 130.666 139.685 130.488 139.516 130.94C135.982 140.348 132.481 149.647 127.764 158.55C124.353 164.988 120.833 171.367 117.45 177.82C110.164 191.72 103.096 205.747 95.5433 219.506C95.3537 219.853 95.8823 220.163 96.0755 219.817Z" fill="white"/>
<path d="M44.953 135.844C45.415 133.232 47.6608 130.931 49.3636 129.034C51.3784 126.79 53.5222 124.654 55.7188 122.588C61.0042 117.617 67.3816 114.221 72.8242 109.479C78.7858 104.285 83.5168 97.8024 87.5962 91.0716C92.2804 83.343 95.7664 74.8056 102.073 68.181C101.661 68.1276 101.249 68.0748 100.836 68.0214C104.424 75.5304 102.064 84.018 97.5388 90.5784C92.6818 97.62 85.18 102.17 77.9776 106.481C71.5378 110.335 65.3146 114.383 59.4766 119.111C53.7142 123.777 47.7982 128.963 43.8916 135.347C43.3708 136.198 44.6512 136.907 45.2092 136.118C50.128 129.161 56.53 123.388 63.2122 118.159C70.273 112.635 78.1564 108.532 85.6048 103.595C97.1248 95.9592 109.178 81.8388 102.197 67.2264C101.979 66.7704 101.288 66.7224 100.961 67.0668C94.7974 73.5408 91.2142 81.8064 86.7802 89.4522C82.3936 97.0164 77.2702 104.282 70.4248 109.828C66.895 112.687 62.878 114.869 59.353 117.734C57.3598 119.353 55.489 121.14 53.6518 122.932C50.3812 126.121 44.8618 130.783 44.1478 135.621C44.0692 136.143 44.8582 136.379 44.953 135.844Z" fill="white"/>
<path d="M61.8148 117.129C72.538 114.247 82.2514 105.21 93.475 111.89C102.119 117.034 108.471 127.666 119.713 126.945C119.483 126.544 119.253 126.143 119.022 125.741C116.39 131.126 113.193 137.256 106.886 138.833C103.208 139.753 99.301 138.998 95.6986 138.106C92.299 137.264 88.8154 136.268 85.8874 134.279C78.4258 129.21 73.0912 112.12 61.1596 117.747C60.214 118.193 61.0384 119.59 61.9792 119.149C69.898 115.439 75.448 124.921 79.3078 130.097C83.083 135.16 87.6652 137.831 93.7216 139.455C99.19 140.921 105.395 142.121 110.619 139.225C115.447 136.547 118.108 131.332 120.404 126.548C120.644 126.047 120.367 125.296 119.713 125.344C107.475 126.249 101.094 112.944 90.5584 109.183C80.149 105.467 71.1544 113.871 61.6636 116.582C61.3144 116.683 61.462 117.224 61.8148 117.129Z" fill="white"/>
<path d="M44.8052 135.881C49.8326 128.608 55.1336 121.249 59.4212 113.507C62.8712 107.279 58.838 101.738 56.546 95.7936C53.723 88.473 51.6746 80.8686 50.387 73.131C50.2952 72.5802 49.4852 72.54 49.2338 72.9804C46.1792 78.3288 42.9812 83.6118 40.0592 89.0334C37.5884 93.6186 35.3312 98.685 35.498 104.005C35.8334 114.736 49.7666 124.492 43.9658 135.39C43.5566 136.159 44.7272 136.844 45.1346 136.073C50.369 126.167 40.6214 117.595 37.667 108.827C35.4818 102.343 37.8314 95.9106 40.8782 90.1434C43.8386 84.54 47.1482 79.101 50.324 73.617C49.9394 73.5666 49.5554 73.5168 49.1708 73.4664C50.2994 80.5038 52.0202 87.4098 54.4886 94.0998C55.5836 97.068 56.8616 99.9396 58.13 102.835C59.9978 107.097 59.9648 110.387 57.6824 114.463C53.6234 121.712 48.9098 128.677 44.2952 135.582C44.0828 135.901 44.591 136.192 44.8052 135.881Z" fill="white"/>
<path d="M47.3422 86.5668C45.79 90.3348 44.9782 94.3764 45.3592 98.4558C45.7606 102.754 47.7082 106.445 48.7438 110.569C50.9692 119.431 47.5402 127.514 44.041 135.434C43.7326 136.132 44.6062 136.646 45.061 136.03C49.366 130.201 51.3124 121.27 50.7046 114.136C50.3344 109.789 48.2824 106.055 47.2186 101.893C45.937 96.8784 46.2766 91.6038 47.9596 86.7372C48.0964 86.34 47.4946 86.1966 47.3422 86.5668Z" fill="white"/>
<path d="M59.5176 119.653C64.1988 117.794 69.8796 114.475 75.0366 114.628C80.805 114.799 85.4268 118.85 89.163 122.846C94.152 128.182 100.696 136.627 109.075 132.902C109.712 132.619 109.259 131.567 108.601 131.778C97.3752 135.381 91.518 121.277 83.5002 116.335C80.3778 114.41 76.6788 113.26 72.996 113.818C68.3142 114.528 63.609 117.33 59.319 119.18C59.0526 119.295 59.2446 119.761 59.5176 119.653Z" fill="white"/>
<path d="M263.675 210.626C261.017 207.161 261.479 200.7 261.358 196.555C261.175 190.275 262.37 184.288 262.844 178.054C263.447 170.12 261.892 162.128 259.661 154.547C257.308 146.55 253.617 138.88 252.979 130.469C252.646 130.723 252.314 130.976 251.982 131.229C258.68 133.235 262.89 139.139 264.785 145.629C267.089 153.518 265.668 161.717 264.101 169.604C262.687 176.719 261.506 183.787 261.128 191.04C260.785 197.632 260.69 204.65 262.578 211.04C262.858 211.986 264.258 211.592 264.049 210.635C262.415 203.134 262.391 195.413 262.922 187.784C263.542 178.9 265.927 170.371 267.081 161.571C268.661 149.519 265.805 133.726 252.401 129.71C251.938 129.572 251.365 129.961 251.404 130.47C252.025 138.645 255.397 146.144 257.857 153.87C260.71 162.83 262.448 171.996 261.208 181.402C260.424 187.349 259.943 193 260.29 198.994C260.505 202.717 260.524 208.085 263.018 211.133C263.316 211.496 263.965 211.003 263.675 210.626Z" fill="white"/>
<path d="M261.336 187.757C265.945 178.804 265.807 166.675 277.123 163.174C285.908 160.457 297.125 162.717 303.535 154.647C303.09 154.529 302.644 154.412 302.199 154.294C304.731 160.675 306.783 167.573 301.609 173.27C297.651 177.629 290.91 181.968 284.929 182.281C277.434 182.674 264.394 178.163 261.283 188.491C260.98 189.494 262.545 189.922 262.849 188.923C264.874 182.268 273.148 183.003 278.541 183.66C284.751 184.416 289.687 183.845 295.077 180.534C299.155 178.028 303.638 174.968 305.605 170.423C307.969 164.957 305.844 159.043 303.741 153.869C303.545 153.387 302.818 152.984 302.404 153.516C295.473 162.436 282.364 158.48 273.35 163.481C264.615 168.328 264.814 179.435 260.848 187.472C260.687 187.796 261.168 188.083 261.336 187.757Z" fill="white"/>
<path d="M263.599 210.758C262.652 206.687 261.626 202.631 260.576 198.584C259.524 194.528 258.683 190.244 257.171 186.326C255.189 181.192 249.806 180.412 245.162 178.707C237.948 176.059 231.052 172.577 224.589 168.425C224.134 168.133 223.493 168.619 223.663 169.137C225.469 174.672 227.11 180.282 229.093 185.757C230.626 189.988 232.595 194.298 236.033 197.329C243.403 203.827 258.881 200.4 262.663 211.016C262.953 211.832 264.263 211.478 263.968 210.656C260.513 201.056 248.788 202.293 241.039 198.964C235.43 196.555 232.492 191.338 230.452 185.851C228.371 180.254 226.694 174.487 224.879 168.801C224.57 169.039 224.261 169.276 223.953 169.513C229.292 172.993 234.885 176.005 240.783 178.425C243.698 179.621 246.671 180.599 249.655 181.6C253.414 182.861 255.533 184.791 256.828 188.563C259.328 195.85 261.157 203.446 263.031 210.914C263.122 211.285 263.685 211.128 263.599 210.758Z" fill="white"/>
<path d="M231.724 178.769C233.211 181.935 235.269 184.827 238.012 187.03C241.02 189.446 244.472 190.5 247.893 192.137C255.888 195.962 259.34 203.552 262.804 211.136C263.099 211.78 264.002 211.296 263.884 210.68C262.615 204.057 257.542 197.096 252.199 193.139C248.892 190.69 244.888 189.858 241.37 187.819C237.514 185.584 234.416 182.339 232.276 178.447C232.075 178.08 231.551 178.401 231.724 178.769Z" fill="white"/>
<path d="M261.659 190.798C263.393 186.195 264.645 180.078 268.395 176.686C272.265 173.185 277.866 172.8 282.82 172.782C289.261 172.759 298.59 173.093 301.055 165.478C301.266 164.825 300.225 164.364 299.931 165.004C295.369 174.923 282.081 170.006 273.68 172.647C265.194 175.315 263.735 183.096 261.16 190.661C261.052 190.978 261.543 191.104 261.659 190.798Z" fill="white"/>
</g>
<path d="M218.642 266.009C243.643 266.009 263.91 261.909 263.91 256.851C263.91 251.793 243.643 247.693 218.642 247.693C193.641 247.693 173.374 251.793 173.374 256.851C173.374 261.909 193.641 266.009 218.642 266.009Z" fill="#E8E8E8"/>
<path d="M219.771 257.653C236.742 257.653 250.5 255.028 250.5 251.791C250.5 248.553 236.742 245.928 219.771 245.928C202.8 245.928 189.042 248.553 189.042 251.791C189.042 255.028 202.8 257.653 219.771 257.653Z" fill="#282D5C"/>
<path d="M222.904 143.236H216.637V249.777H222.904V143.236Z" fill="#282D5C"/>
<path d="M302.254 52.3542H137.287V144.137H302.254V52.3542Z" fill="#A2AAA7"/>
<path d="M296.594 58.0152H142.948V138.477H296.594V58.0152Z" fill="white"/>
<path d="M245.131 65.2596C237.899 64.8168 230.647 70.4586 231.002 77.982C231.34 85.152 235.973 91.2078 243.619 91.2114C250.294 91.2144 257.093 84.4398 256.378 77.6244C255.797 72.0858 250.889 65.7714 245.131 65.2668C244.813 65.2392 244.772 65.7186 245.058 65.8056C247.505 66.5496 249.583 67.233 251.251 69.2646C252.847 71.208 254.509 73.4556 255.196 75.8892C257.09 82.5966 250.868 90.0894 244.089 90.381C237.099 90.6822 232.601 85.4604 231.906 78.963C231.106 71.4894 237.787 65.5236 245.131 65.8218C245.494 65.8374 245.49 65.2818 245.131 65.2596Z" fill="#D1D1D1"/>
<path d="M234.144 86.0682C237.132 83.5602 240.3 81.3006 243.354 78.8778C243.706 78.5982 243.206 78.0948 242.856 78.3804C239.842 80.8452 236.682 83.0946 233.826 85.7496C233.611 85.9494 233.925 86.2512 234.144 86.0682Z" fill="#D1D1D1"/>
<path d="M241.267 65.844C241.825 70.1154 242.203 74.4288 242.935 78.6756C242.968 78.8688 243.301 78.8262 243.281 78.6288C242.838 74.346 242.171 70.068 241.571 65.8032C241.546 65.6322 241.244 65.6712 241.267 65.844Z" fill="#D1D1D1"/>
<path d="M243.259 78.783C244.828 77.1894 246.321 75.5292 247.787 73.8402C249.122 72.3024 250.647 70.8234 251.817 69.159C252.045 68.835 251.566 68.5266 251.298 68.7588C249.715 70.1298 248.409 71.9526 247.054 73.5462C245.669 75.1746 244.316 76.8294 242.951 78.4752C242.775 78.687 243.059 78.9864 243.259 78.783Z" fill="#D1D1D1"/>
<path d="M243.039 78.8664C246.872 80.2842 250.47 81.6456 253.747 84.15C254.196 84.4932 254.654 83.721 254.194 83.385C250.779 80.8926 247.157 79.6578 243.169 78.3918C242.864 78.2946 242.746 78.7578 243.039 78.8664Z" fill="#D1D1D1"/>
<path d="M244.916 76.5C245.286 77.1102 245.67 77.7102 245.931 78.3762C246.15 78.936 246.306 79.7286 246.832 80.0616C246.976 80.1528 247.121 80.0286 247.138 79.8858C247.214 79.2828 246.697 78.5052 246.418 77.973C246.092 77.3502 245.665 76.8048 245.202 76.2786C245.065 76.122 244.809 76.3242 244.916 76.5Z" fill="#D1D1D1"/>
<path d="M246.546 74.7114C247.225 75.684 247.92 76.6566 248.47 77.7102C249.057 78.8334 249.409 80.0436 249.884 81.2124C250.003 81.5058 250.473 81.396 250.372 81.078C249.595 78.6336 248.349 76.5912 246.825 74.5482C246.703 74.3844 246.424 74.538 246.546 74.7114Z" fill="#D1D1D1"/>
<path d="M248.538 72.6216C249.54 74.442 250.488 76.2834 251.339 78.1788C252.18 80.0532 252.742 82.1112 253.741 83.9022C253.895 84.1788 254.285 83.9826 254.229 83.6964C253.468 79.752 250.95 75.7986 248.891 72.4158C248.754 72.1914 248.412 72.3906 248.538 72.6216Z" fill="#D1D1D1"/>
<path d="M250.338 70.3674C251.496 72.3744 252.374 74.553 253.247 76.6944C253.859 78.198 254.32 80.3424 255.459 81.5406C255.631 81.7218 255.974 81.5874 255.963 81.3318C255.886 79.6014 254.638 77.5998 253.945 76.05C253.027 73.9974 252.076 71.9532 250.763 70.1184C250.582 69.8658 250.177 70.0878 250.338 70.3674Z" fill="#D1D1D1"/>
<path d="M216.04 66.108C211.049 65.9448 206.332 67.4034 203.742 71.9304C201.596 75.681 200.944 79.3764 202.717 83.4708C205.107 88.9908 210.944 92.118 216.949 90.5418C222.819 89.0016 226.588 84.069 226.184 78.0726C225.822 72.7098 222.166 66.129 216.04 66.1122C215.717 66.1116 215.625 66.633 215.961 66.6924C222.488 67.845 225.776 74.0052 225.478 80.2104C225.041 89.2866 212.649 93.0648 206.165 87.5112C204.126 85.764 202.756 82.5306 202.34 79.938C202.005 77.8446 202.652 76.0698 203.444 74.1912C205.718 68.7978 210.269 66.6018 216.039 66.7074C216.427 66.7152 216.425 66.1206 216.04 66.108Z" fill="#D1D1D1"/>
<path d="M202.714 80.0634C210.33 79.7484 218.118 79.6728 225.703 78.9372C226.009 78.9078 226.023 78.447 225.703 78.4494C218.107 78.519 210.25 78.7416 202.714 79.707C202.494 79.7358 202.479 80.0736 202.714 80.0634Z" fill="#D1D1D1"/>
<path d="M214.231 79.2576C215.619 77.5404 217.139 75.9324 218.606 74.2848C219.888 72.8448 221.511 71.2896 222.271 69.489C222.324 69.3624 222.177 69.2118 222.065 69.33C220.564 70.9098 219.296 72.7578 217.841 74.3922C216.495 75.9036 215.133 77.3958 213.899 79.002C213.755 79.1898 214.08 79.4436 214.231 79.2576Z" fill="#D1D1D1"/>
<path d="M212.9 66.8124C212.82 70.9194 213.179 75.1194 213.855 79.1706C213.899 79.4298 214.335 79.3716 214.316 79.1082C214.009 74.9964 213.307 70.9494 213.312 66.8124C213.312 66.5466 212.904 66.5466 212.9 66.8124Z" fill="#D1D1D1"/>
<path d="M213.899 79.0014C213.043 80.7354 212.134 82.4394 211.184 84.1242C210.245 85.7874 209.053 87.4068 208.295 89.154C208.228 89.31 208.418 89.505 208.553 89.3526C211.027 86.5626 212.682 82.5624 214.264 79.2138C214.378 78.9714 214.02 78.7572 213.899 79.0014Z" fill="#D1D1D1"/>
<path d="M210.225 87.2562C210.638 87.8904 211.094 88.4724 211.617 89.0208C212.031 89.4546 212.624 90.2346 213.24 90.3234C213.363 90.3408 213.531 90.2418 213.471 90.093C213.24 89.5236 212.515 89.1354 212.078 88.7076C211.534 88.1754 211.027 87.5982 210.549 87.0066C210.401 86.8242 210.098 87.0612 210.225 87.2562Z" fill="#D1D1D1"/>
<path d="M210.708 85.371C211.586 86.3814 212.527 87.327 213.472 88.275C214.194 89.0004 215.018 90.201 215.987 90.5754C216.127 90.6294 216.272 90.4674 216.229 90.333C215.911 89.3394 214.677 88.5066 213.939 87.8076C212.97 86.8884 211.99 85.9782 211.033 85.0464C210.819 84.8376 210.516 85.1496 210.708 85.371Z" fill="#D1D1D1"/>
<path d="M212.105 83.8704C213.027 84.9636 213.971 86.0382 214.933 87.096C215.767 88.0122 216.617 89.2278 217.69 89.8638C217.838 89.952 218.015 89.7756 217.927 89.6268C217.287 88.5516 216.115 87.6798 215.249 86.7798C214.259 85.7508 213.287 84.7044 212.337 83.6388C212.195 83.4792 211.97 83.7108 212.105 83.8704Z" fill="#D1D1D1"/>
<path d="M212.994 81.2586C213.855 82.7748 214.852 84.2004 215.957 85.5486C216.995 86.814 218.181 88.4202 219.628 89.2284C219.794 89.3208 220.041 89.121 219.91 88.9464C218.991 87.7194 217.715 86.7318 216.708 85.5612C215.486 84.1398 214.356 82.6344 213.382 81.0318C213.232 80.784 212.85 81.006 212.994 81.2586Z" fill="#D1D1D1"/>
<path d="M213.969 79.221C215.382 80.8434 216.659 82.5822 217.965 84.2892C218.911 85.5246 219.9 87.3666 221.231 88.1892C221.389 88.287 221.537 88.0992 221.468 87.9522C220.74 86.406 219.086 84.9444 218.018 83.6118C216.769 82.0536 215.541 80.4714 214.194 78.9954C214.055 78.843 213.836 79.0674 213.969 79.221Z" fill="#D1D1D1"/>
<path d="M216.54 79.5906C217.517 80.8548 218.525 82.092 219.566 83.304C220.543 84.4416 221.583 85.986 222.89 86.748C223.062 86.8482 223.256 86.649 223.16 86.4786C222.443 85.2156 221.084 84.1824 220.098 83.1192C218.969 81.9024 217.873 80.6568 216.813 79.3806C216.688 79.2306 216.419 79.4346 216.54 79.5906Z" fill="#D1D1D1"/>
<path d="M219.742 79.3896C220.576 80.2236 221.383 81.0822 222.153 81.9744C222.824 82.7508 223.425 83.82 224.278 84.3906C224.4 84.4716 224.584 84.336 224.533 84.195C224.192 83.2542 223.291 82.479 222.624 81.7536C221.787 80.8422 220.912 79.9692 220.008 79.125C219.832 78.96 219.571 79.218 219.742 79.3896Z" fill="#D1D1D1"/>
<path d="M222.334 79.056C222.854 79.5444 223.341 80.0598 223.823 80.5854C224.263 81.0666 224.718 81.6858 225.297 81.9954C225.536 82.1232 225.852 81.855 225.688 81.6042C225.328 81.0534 224.731 80.6118 224.273 80.1354C223.778 79.6224 223.277 79.119 222.745 78.6444C222.468 78.3972 222.06 78.798 222.334 79.056Z" fill="#D1D1D1"/>
<path d="M279.231 88.6236C285.039 84.9942 285.965 78.1302 283.035 72.2244C280.242 66.5946 271.506 64.701 266.411 67.8888C260.944 71.3094 257.964 79.9206 262.153 85.4274C263.805 87.5994 266.461 89.7702 269.027 90.756C272.296 92.0124 276.442 90.3768 279.229 88.62C279.561 88.4112 279.273 87.966 278.931 88.11C276.08 89.3154 272.387 91.1568 269.266 90.0054C267.035 89.1822 264.944 87.4554 263.367 85.713C258.76 80.6184 261.252 71.9058 266.768 68.499C271.698 65.454 280.157 67.3848 282.585 72.9924C284.976 78.5124 284.258 84.666 278.929 88.1058C278.606 88.314 278.902 88.8294 279.231 88.6236Z" fill="#D1D1D1"/>
<path d="M279.949 69.2958C274.659 75.0462 269.072 80.742 264.107 86.772C263.912 87.0096 264.228 87.345 264.452 87.117C269.905 81.5616 275.436 75.7062 280.2 69.5478C280.337 69.372 280.109 69.1224 279.949 69.2958Z" fill="#D1D1D1"/>
<path d="M271.994 78.4338C272.372 82.1724 271.867 86.3808 273.12 89.9646C273.166 90.096 273.388 90.0864 273.378 89.9298C273.122 86.1294 272.901 82.2126 272.415 78.4338C272.382 78.171 271.966 78.1608 271.994 78.4338Z" fill="#D1D1D1"/>
<path d="M281.734 86.2932C278.909 83.3424 275.678 80.5638 272.322 78.2316C272.104 78.0804 271.839 78.4236 272.038 78.5994C275.126 81.3282 278.527 83.6478 281.443 86.5842C281.63 86.7738 281.918 86.4846 281.734 86.2932Z" fill="#D1D1D1"/>
<path d="M272.408 78.378C271.174 74.733 270.534 70.8216 269.192 67.2372C269.132 67.077 268.854 67.0824 268.87 67.281C269.17 71.04 270.739 74.961 272.002 78.4902C272.091 78.7428 272.496 78.6372 272.408 78.378Z" fill="#D1D1D1"/>
<path d="M269.172 69.9462C268.411 69.789 267.66 69.696 266.881 69.6804C266.208 69.6672 265.481 69.6096 264.866 69.9102C264.722 69.9804 264.758 70.2186 264.911 70.2528C265.545 70.3956 266.231 70.233 266.881 70.2294C267.627 70.2252 268.375 70.2762 269.117 70.3512C269.348 70.3746 269.399 69.993 269.172 69.9462Z" fill="#D1D1D1"/>
<path d="M270.161 71.6202C268.862 71.5314 267.565 71.5242 266.263 71.5218C265.156 71.5194 263.858 71.3262 262.793 71.655C262.6 71.715 262.614 71.9688 262.793 72.0348C263.839 72.4182 265.168 72.2088 266.263 72.1794C267.562 72.1446 268.862 72.0996 270.161 72.0798C270.46 72.0756 270.454 71.6406 270.161 71.6202Z" fill="#D1D1D1"/>
<path d="M270.235 73.6692C267.652 73.452 264.605 72.9024 262.045 73.3812C261.879 73.4118 261.879 73.6848 262.045 73.7154C263.29 73.9482 264.618 73.8102 265.883 73.8342C267.335 73.8618 268.785 73.9158 270.235 73.9974C270.447 74.0094 270.443 73.6866 270.235 73.6692Z" fill="#D1D1D1"/>
<path d="M271.456 76.1448C268.356 75.3012 264.302 74.4588 261.124 75.2004C260.882 75.2568 260.961 75.5832 261.179 75.6054C264.618 75.9576 267.911 75.7536 271.336 76.5786C271.618 76.6464 271.736 76.221 271.456 76.1448Z" fill="#D1D1D1"/>
<path d="M272.205 78.2748C270.182 78.1302 268.172 77.8338 266.162 77.5656C264.447 77.337 262.452 76.7952 260.726 77.0682C260.549 77.0964 260.573 77.3592 260.726 77.403C262.424 77.8872 264.408 77.8314 266.162 78.0246C268.172 78.246 270.184 78.4962 272.205 78.594C272.411 78.603 272.408 78.2892 272.205 78.2748Z" fill="#D1D1D1"/>
<path d="M270.08 79.8258C267.117 79.4484 263.528 78.6948 260.572 79.2612C260.383 79.2972 260.385 79.6026 260.572 79.641C262.014 79.938 263.563 79.7946 265.033 79.8486C266.718 79.9104 268.401 80.019 270.08 80.1732C270.305 80.193 270.296 79.8534 270.08 79.8258Z" fill="#D1D1D1"/>
<path d="M268.002 82.2384C266.882 82.236 265.764 82.2048 264.646 82.1274C263.554 82.0518 262.387 81.7878 261.302 81.9042C261.109 81.9252 261.065 82.176 261.256 82.245C263.241 82.9596 265.922 82.6812 268.001 82.6134C268.243 82.6056 268.244 82.239 268.002 82.2384Z" fill="#D1D1D1"/>
<path d="M266.406 84.306C265.056 84.3456 263.549 84.0264 262.229 84.3234C261.969 84.3822 261.944 84.8358 262.229 84.8748C263.561 85.0566 265.062 84.9612 266.406 84.8874C266.777 84.867 266.782 84.2952 266.406 84.306Z" fill="#D1D1D1"/>
<path d="M225.479 101.428C225.144 111.125 225.106 120.839 224.998 130.541C224.992 131.093 225.851 131.093 225.856 130.541C225.947 120.839 226.077 111.129 225.943 101.428C225.939 101.129 225.489 101.13 225.479 101.428Z" fill="#D1D1D1"/>
<path d="M225.711 101.639C226.69 101.665 227.66 101.636 228.638 101.608C229.083 101.596 229.834 101.41 230.261 101.568C230.9 101.804 230.494 101.524 230.784 102.179C231.272 103.279 230.813 105.904 230.805 107.111C230.794 108.656 230.769 110.201 230.741 111.747C230.624 117.981 230.026 124.439 230.644 130.652C230.697 131.186 231.462 131.204 231.488 130.652C231.946 120.934 231.84 110.959 231.542 101.233C231.536 101.057 231.424 100.908 231.256 100.858C229.654 100.377 227.27 100.918 225.655 101.225C225.415 101.27 225.481 101.633 225.711 101.639Z" fill="#D1D1D1"/>
<path d="M234.546 104.174C234.813 112.997 233.762 121.919 234.419 130.718C234.455 131.192 235.15 131.203 235.164 130.718C235.422 121.93 235.703 112.946 235.038 104.174C235.014 103.862 234.536 103.854 234.546 104.174Z" fill="#D1D1D1"/>
<path d="M234.793 104.399C235.585 104.417 239.222 104.104 239.543 104.479C239.843 104.828 239.61 106.463 239.618 106.912C239.681 110.136 239.689 113.361 239.717 116.585C239.745 119.914 239.773 123.242 239.809 126.571C239.822 127.865 239.798 129.886 240.035 130.801C240.134 131.186 240.731 131.023 240.631 130.636C240.721 130.983 240.724 129.641 240.726 129.365C240.739 127.96 240.676 126.548 240.655 125.142C240.598 121.208 240.552 117.274 240.476 113.34C240.426 110.716 240.895 107.386 240.251 104.827C239.727 102.743 236.641 103.868 234.792 103.95C234.504 103.962 234.502 104.393 234.793 104.399Z" fill="#D1D1D1"/>
<path d="M245.029 130.706C245.368 126.907 245.153 123.036 245.095 119.227C245.068 117.438 245.024 115.648 245.037 113.858C245.05 112.153 244.883 112.455 246.523 112.472C247.349 112.481 248.184 112.556 249.008 112.523C249.136 112.519 249.737 112.453 249.831 112.524C249.714 112.435 249.483 112.222 249.632 112.534C250.095 113.507 249.649 115.834 249.637 116.873C249.586 121.531 249.483 126.191 249.239 130.842C249.209 131.42 250.115 131.421 250.139 130.842C250.303 126.876 250.331 122.903 250.336 118.934C250.339 116.831 250.748 114.167 250.235 112.105C250.198 111.957 250.06 111.871 249.916 111.862C248.817 111.793 245.522 111.135 244.659 111.795C244.039 112.268 244.321 113.615 244.319 114.292C244.306 119.762 244.423 125.236 244.48 130.706C244.484 131.065 244.997 131.053 245.029 130.706Z" fill="#D1D1D1"/>
<path d="M252.872 130.541C253.056 126.022 253.035 121.496 253.035 116.974C253.035 114.746 253.032 112.52 253.028 110.293C253.027 109.836 252.779 108.458 253.019 108.044C253.242 107.659 254.896 107.889 255.687 107.893C256.594 107.898 256.987 107.689 257.31 108.326C257.529 108.758 257.349 109.769 257.353 110.245C257.373 112.195 257.341 114.146 257.306 116.095C257.222 120.814 256.649 125.648 256.813 130.355C256.83 130.846 257.616 131.006 257.711 130.477C258.752 124.618 258.198 118.069 258.12 112.135C258.109 111.255 258.531 108.313 257.938 107.528C257.107 106.428 253.742 107.024 252.59 107.02C252.359 107.018 252.163 107.216 252.163 107.446C252.163 115.144 252.41 122.843 252.309 130.541C252.305 130.904 252.857 130.901 252.872 130.541Z" fill="#D1D1D1"/>
<path d="M221.027 101.975C221.105 112.809 220.585 123.698 220.977 134.524C220.99 134.879 221.521 134.881 221.53 134.524C221.825 123.706 221.698 112.79 221.355 101.975C221.348 101.764 221.026 101.763 221.027 101.975Z" fill="#D1D1D1"/>
<path d="M216.213 130.96C223.59 130.902 230.962 131.051 238.337 131.161C245.644 131.27 253.164 131.636 260.438 130.808C260.87 130.759 260.896 130.11 260.438 130.114C253.066 130.18 245.717 130.484 238.337 130.384C230.964 130.283 223.584 130.096 216.213 130.388C215.847 130.402 215.844 130.963 216.213 130.96Z" fill="#D1D1D1"/>
<path d="M227.285 97.2432C230.45 96.654 233.564 96.5982 236.65 97.6524C239.522 98.6334 241.99 100.539 244.49 102.205C245.853 103.112 247.333 104.509 249.108 104.138C250.738 103.798 252.374 102.086 253.631 101.058C253.916 100.825 253.51 100.423 253.227 100.654C252.17 101.514 250.898 102.902 249.55 103.319C247.603 103.923 246.173 102.649 244.772 101.723C242.635 100.312 240.531 98.7366 238.18 97.6974C234.725 96.1698 230.825 95.886 227.19 96.9C226.966 96.9624 227.062 97.2846 227.285 97.2432Z" fill="#D1D1D1"/>
<path d="M251.199 101.404C251.8 101.013 252.738 101.083 253.428 101.134C253.339 101.017 253.25 100.9 253.16 100.782C253.098 101.128 253.02 101.471 252.932 101.812C252.794 102.342 252.556 102.803 252.369 103.309C252.264 103.594 252.644 103.742 252.836 103.58C253.214 103.259 253.342 102.53 253.457 102.076C253.553 101.698 253.634 101.314 253.697 100.93C253.727 100.745 253.623 100.589 253.428 100.577C252.647 100.533 251.613 100.503 250.938 100.958C250.665 101.143 250.919 101.585 251.199 101.404Z" fill="#D1D1D1"/>
<path d="M162.049 70.617C161.934 83.1936 161.808 95.832 162.235 108.403C162.249 108.812 162.867 108.814 162.873 108.403C163.045 95.8242 162.662 83.1894 162.293 70.617C162.288 70.4604 162.05 70.4598 162.049 70.617Z" fill="#D1D1D1"/>
<path d="M158.174 105.611C165.368 105.512 172.564 105.896 179.756 105.706C186.673 105.524 193.578 105.094 200.497 104.956C200.955 104.947 200.956 104.252 200.497 104.243C193.587 104.107 186.656 104.882 179.756 105.146C172.565 105.422 165.368 105.103 158.174 105.386C158.03 105.391 158.029 105.613 158.174 105.611Z" fill="#D1D1D1"/>
<path d="M159.599 100.427C162.68 97.0134 165.439 93.3774 168.371 89.847C170.063 87.81 169.525 90.693 169.802 92.2476C170.248 94.7478 170.824 97.2168 171.483 99.669C171.555 99.936 171.936 99.987 172.074 99.7464C174.446 95.607 176.959 91.5528 179.661 87.6192C180.017 87.1002 180.606 85.7166 181.349 85.8528C181.65 85.908 182.179 88.434 182.319 88.923C183.012 91.3344 183.533 93.7806 183.947 96.2544C183.995 96.5394 184.403 96.5502 184.535 96.3312C185.952 93.9708 187.265 91.479 188.816 89.2026C189.728 87.8634 189.496 87.822 189.911 89.385C190.31 90.8886 190.546 92.4594 190.861 93.9834C190.919 94.2618 191.262 94.2972 191.448 94.1382C193.573 92.322 195.867 90.7914 197.88 88.842C198.188 88.5432 197.718 88.0746 197.409 88.3716C195.984 89.7396 194.243 91.5744 192.434 92.421C191.094 93.048 191.591 93.078 191.049 91.5018C190.554 90.0636 190.387 88.4004 190.072 86.9112C190.011 86.6238 189.605 86.5986 189.466 86.832C188.551 88.3614 187.637 89.8908 186.722 91.4202C186.218 92.2632 185.761 93.1632 185.198 93.969C184.555 94.8894 184.85 95.2128 184.288 94.4988C183.581 93.6012 183.514 90.8976 183.214 89.7906C182.745 88.062 182.19 86.3634 181.587 84.6774C181.494 84.4158 181.179 84.3816 181.021 84.6036C178.36 88.3416 175.826 92.163 173.462 96.0966C171.821 98.8278 171.915 99.048 171.176 95.8086C170.578 93.1824 170.123 90.5352 169.77 87.8646C169.728 87.5472 169.382 87.4476 169.185 87.7062C165.985 91.9128 162.587 95.949 158.996 99.8256C158.623 100.227 159.231 100.835 159.599 100.427Z" fill="#D1D1D1"/>
<path d="M196.014 86.9142C196.509 87.6174 197.009 88.3176 197.518 89.0106C197.911 89.5452 198.29 90.3642 198.912 90.633C199.041 90.6888 199.258 90.6288 199.236 90.447C199.148 89.7216 198.461 89.1162 198.029 88.5474C197.519 87.8772 197 87.2166 196.478 86.5572C196.271 86.2956 195.821 86.6406 196.014 86.9142Z" fill="#D1D1D1"/>
<path d="M196.355 87.0774C197.728 86.8158 199.086 86.4198 200.496 86.4684C200.397 86.295 200.297 86.121 200.198 85.9476C199.877 86.6868 199.685 87.447 199.489 88.2264C199.301 88.9764 198.873 89.6916 198.786 90.447C198.767 90.6156 199.004 90.7506 199.139 90.6492C199.667 90.2544 199.831 89.5752 200.007 88.9578C200.261 88.065 200.422 87.153 200.796 86.2968C200.9 86.0574 200.78 85.7862 200.497 85.776C199.029 85.7214 197.608 86.1642 196.183 86.454C195.773 86.5362 195.948 87.1548 196.355 87.0774Z" fill="#D1D1D1"/>
<path d="M150.506 271.3C164.685 271.3 176.18 268.342 176.18 264.694C176.18 261.046 164.685 258.089 150.506 258.089C136.326 258.089 124.831 261.046 124.831 264.694C124.831 268.342 136.326 271.3 150.506 271.3Z" fill="#E8E8E8"/>
<path d="M132.871 264.465C133.964 266.495 150.739 266.866 150.739 263.472C150.6 262.343 146.087 261.831 144.968 261.63C140.553 260.837 138.27 254.828 139.05 250.215C137.546 250.204 135.67 248.853 134.166 248.843C134.204 250.259 132.387 263.567 132.871 264.465Z" fill="#5678D3"/>
<path d="M151.564 263.315C152.658 265.345 169.432 265.716 169.432 262.322C169.294 261.194 164.78 260.681 163.66 260.48C159.246 259.687 156.963 253.679 157.743 249.066C156.238 249.055 154.362 247.704 152.859 247.694C152.897 249.11 151.081 262.417 151.564 263.315Z" fill="#436ABF"/>
<path d="M133.29 257.426H140.096C140.594 248.531 142.977 231.384 144.162 217.625C145.094 206.803 147.735 193.769 147.799 180.831C149.33 192.229 151.828 205.277 150.807 217.016C149.646 230.378 152.324 244.777 151.949 256.603C154.74 256.49 156.288 256.949 159.08 256.836C162.812 232.059 164.441 202.853 165.098 170.731C157.068 168.185 128.088 169.273 128.299 171.532C129.289 182.1 132.018 200.706 131.451 215.944C130.92 230.209 133.018 246.938 133.29 257.426Z" fill="#282D5C"/>
<path d="M190.96 114.8C192.048 114.818 204.505 106.844 207.964 104.051C209.849 102.528 211.771 100.966 213.067 98.9172C215.012 95.8416 214.092 94.9932 217.174 92.1372C223.562 87.372 217.501 93.3618 217.573 94.9632C217.631 96.2232 219.267 97.2102 219.147 98.2458C218.987 99.627 216.607 102.947 215.324 102.412C212.04 108.942 195.995 125.194 193.568 125.497C182.378 126.895 176.32 126.767 165.046 126.495C164.318 126.495 166.777 113.732 166.804 113.395C174.425 112.647 183.116 114.673 190.96 114.8Z" fill="#FFCDBB"/>
<path d="M127.179 114.318C122.529 117.163 119.087 125.288 117.425 129.834C120.404 130.918 126.41 134.717 129.572 134.945C129.438 146.216 128.433 160.259 128.298 171.53C141.686 171.052 151.708 171.209 165.097 170.73C165.097 158.946 165.011 140.545 163.62 127.574C166.631 127.479 170.19 127.964 175.093 127.408C176.451 121.991 176.3 118.627 175.901 113.395C174.555 113.423 162.029 111.851 154.473 111.883C150.529 111.9 143.099 112.811 139.377 112.433C135.683 112.058 128.797 113.292 127.179 114.318Z" fill="#5678D3"/>
<path d="M130.143 119.522C130.357 121.023 130.531 122.496 130.533 124.014C130.535 125.335 130.324 126.653 130.365 127.969C130.371 128.177 130.66 128.215 130.723 128.018C131.577 125.374 131.19 122.07 130.556 119.408C130.491 119.133 130.105 119.258 130.143 119.522Z" fill="#4D6FBC"/>
<path d="M132.977 121.799C133.136 123.667 133.081 125.513 132.649 127.345C132.267 128.965 131.468 130.406 130.982 131.983C130.928 132.159 131.174 132.313 131.3 132.168C133.592 129.528 133.931 125.11 133.497 121.8C133.455 121.476 132.948 121.46 132.977 121.799Z" fill="#4D6FBC"/>
<path d="M160.276 118.504C160.69 119.744 161.045 120.998 161.338 122.272C161.627 123.53 161.682 124.899 162.135 126.1C162.213 126.307 162.492 126.268 162.514 126.048C162.759 123.603 161.527 120.633 160.635 118.405C160.549 118.188 160.198 118.272 160.276 118.504Z" fill="#4D6FBC"/>
<path d="M163.124 118.223C163.542 120.964 163.504 123.71 163.818 126.448C163.857 126.785 164.311 126.789 164.346 126.448C164.622 123.724 164.076 120.775 163.551 118.106C163.495 117.822 163.082 117.947 163.124 118.223Z" fill="#4D6FBC"/>
<path d="M137.24 114.61C138.836 118.942 141.318 122.563 146.331 122.83C151.822 123.121 154.939 118.816 155.965 113.892C156.036 113.551 155.542 113.41 155.44 113.747C153.954 118.685 151.053 123.244 145.103 122.071C141.018 121.265 139.146 117.985 137.617 114.452C137.525 114.239 137.16 114.391 137.24 114.61Z" fill="#4D6FBC"/>
<path d="M143.467 132.492C144.029 134.036 145.019 135.244 146.219 136.35C147.606 137.629 149.158 139.081 150.85 139.937C151.032 140.029 151.202 139.811 151.066 139.657C148.798 137.094 145.306 135.756 144.046 132.333C143.913 131.974 143.334 132.127 143.467 132.492Z" fill="#4D6FBC"/>
<path d="M143.078 135.748C144.275 137.38 145.985 139.213 147.947 139.9C148.216 139.994 148.328 139.617 148.128 139.472C147.252 138.834 146.297 138.358 145.456 137.656C144.688 137.015 144.006 136.293 143.387 135.509C143.251 135.335 142.946 135.567 143.078 135.748Z" fill="#4D6FBC"/>
<path d="M149.827 141.94H142.243C141.868 141.94 141.563 142.244 141.563 142.619V156.823C141.563 157.198 141.868 157.502 142.243 157.502H149.827C150.202 157.502 150.506 157.198 150.506 156.823V142.619C150.506 142.244 150.202 141.94 149.827 141.94Z" fill="white"/>
<path d="M146.794 144.39C146.794 144.809 146.454 145.148 146.035 145.148C145.616 145.148 145.277 144.809 145.277 144.39C145.277 143.971 145.617 143.632 146.035 143.632C146.454 143.632 146.794 143.971 146.794 144.39Z" fill="#282D5C"/>
<path d="M113.294 152.483C120.81 158.045 140.064 152.159 141.684 152.35C143.179 152.527 146.334 152.347 146.697 152.185C150.096 150.669 148.36 148.289 146.07 148.05C145.26 147.965 144.444 148.187 143.631 148.139C142.818 148.091 141.914 147.629 141.802 146.822C141.684 145.973 142.233 144.669 141.387 144.535C140.622 145.59 139.932 146.699 139.323 147.85C134.877 147.929 126.166 145.276 121.72 145.148C124.955 140.813 127.224 139.228 129.572 134.945C127.11 133.948 119.887 130.831 117.424 129.834C114.575 137.384 109.894 149.966 113.294 152.483Z" fill="#FFCDBB"/>
<path d="M155.694 98.376C155.673 98.5458 155.643 98.73 155.516 98.8446C155.413 98.9382 155.267 98.9658 155.128 98.9778C154.622 99.0228 154.104 98.916 153.657 98.6748C153.518 98.5998 153.379 98.5044 153.314 98.3604C153.267 98.2572 153.264 98.1408 153.261 98.0274C153.214 95.9688 153.166 93.9102 153.118 91.8516C153.113 91.6248 153.119 91.3698 153.282 91.212C154.371 90.159 155.664 91.5258 155.829 92.508C156.142 94.3782 155.929 96.5088 155.694 98.376Z" fill="#282D5C"/>
<path d="M153.269 98.0352C153.348 97.2288 154.157 94.323 155.174 94.2552C156.2 94.1868 156.845 95.2404 156.995 96.1482C157.193 97.3518 157.001 98.604 156.449 99.7164C156.171 100.277 155.717 100.856 155.037 100.946C154.328 101.04 153.659 100.531 153.403 99.933C153.147 99.3354 153.206 98.6724 153.269 98.0352Z" fill="#F4AF9A"/>
<path d="M138.494 112.376C138.494 115.575 141.393 121.078 146.864 121.078C151.872 121.078 154.473 115.672 154.473 111.883C154.473 111.883 152.6 111.593 152.27 111.437C150.378 110.54 151.506 107.529 151.335 106.131C151.25 105.415 139.173 101.732 139.377 102.638C139.719 104.155 140.331 112.182 138.494 112.376Z" fill="#F4AF9A"/>
<path d="M154.551 98.8416C154.102 104.906 150.832 109.853 146.245 109.853C141.657 109.853 137.938 104.923 137.938 98.8416C137.938 92.76 141.657 87.8304 146.245 87.8304C150.832 87.8304 155.25 89.3946 154.551 98.8416Z" fill="#FFCDBB"/>
<path d="M133.108 89.9958C133.252 90.2292 133.486 90.3972 133.668 90.6048C134.51 91.5654 134.048 92.9988 133.735 94.2174C133.667 94.4784 133.614 94.7724 133.76 95.0016C133.918 95.2494 134.249 95.3304 134.549 95.3712C136.655 95.661 138.88 95.0238 140.475 93.6744C141.035 93.2004 141.525 92.6412 142.152 92.2512C142.779 91.8612 143.61 91.6638 144.274 91.992C144.8 92.2518 145.166 92.8074 145.748 92.9076C146.983 93.1194 147.695 91.1808 148.945 91.2768C149.5 91.3194 149.914 91.7586 150.346 92.094C152.094 93.4506 154.596 93.2802 156.83 93.039C157.166 93.003 157.522 92.958 157.78 92.7498C158.391 92.2554 158.015 91.2774 157.451 90.735C156.886 90.1926 156.13 89.7192 155.995 88.9638C155.9 88.4316 156.137 87.8256 155.825 87.375C155.519 86.9316 154.871 86.9016 154.339 86.7504C152.282 86.166 151.435 83.3826 149.311 83.091C148.246 82.9446 147.143 83.502 146.111 83.2152C145.608 83.0754 145.18 82.7472 144.676 82.611C143.24 82.2234 141.952 83.4534 140.83 84.396C139.583 85.4442 131.707 87.7188 133.108 89.9958Z" fill="#282D5C"/>
<path d="M139.049 93.036C138.321 93.0936 136.398 92.9892 135.714 92.7318C135.436 92.4162 135.316 97.881 136.77 99.9282C138.469 100.13 138.457 99.6384 138.695 97.9776C138.929 96.3414 139.048 94.689 139.049 93.036Z" fill="#282D5C"/>
<path d="M139.193 99.2232C139.113 98.4168 138.305 95.511 137.288 95.4432C136.262 95.3748 135.616 96.4284 135.467 97.3362C135.269 98.5398 135.46 99.792 136.012 100.904C136.29 101.465 136.745 102.044 137.424 102.134C138.134 102.228 138.803 101.719 139.058 101.121C139.313 100.524 139.255 99.861 139.193 99.2232Z" fill="#FFCDBB"/>
<path d="M143.834 98.5902C144.992 98.5902 144.994 96.7902 143.834 96.7902C142.676 96.7902 142.674 98.5902 143.834 98.5902Z" fill="#282D5C"/>
<path d="M151.558 98.1942C152.716 98.1942 152.719 96.3942 151.558 96.3942C150.4 96.3942 150.398 98.1942 151.558 98.1942Z" fill="#282D5C"/>
<path d="M144.76 103.715C144.76 103.715 145.521 107.212 147.289 107.197C148.637 107.185 149.096 104.674 149.305 103.613C147.798 103.749 146.275 103.783 144.76 103.715Z" fill="white"/>
<path d="M141.863 95.871C142.297 95.6406 142.778 95.4906 143.266 95.4258C143.709 95.367 144.154 95.5032 144.583 95.3916C144.944 95.298 144.971 94.8234 144.682 94.6332C144.215 94.326 143.517 94.4466 142.998 94.5672C142.42 94.7022 141.935 95.0004 141.488 95.385C141.213 95.622 141.564 96.03 141.863 95.871Z" fill="#282D5C"/>
<path d="M149.827 94.9962C150.457 94.9926 151.004 95.112 151.588 95.334C151.936 95.4666 152.462 95.4828 152.485 94.9872C152.511 94.4478 151.794 94.2756 151.383 94.1928C150.819 94.0794 150.28 94.0872 149.725 94.236C149.305 94.3494 149.388 94.9986 149.827 94.9962Z" fill="#282D5C"/>
<path d="M136.718 97.401C136.063 97.8606 136.099 98.5722 136.232 99.2946C136.338 99.8652 136.609 100.649 137.212 100.865C137.788 101.07 137.948 100.536 137.623 100.159C137.188 99.6534 136.765 98.4912 137.199 97.8828C137.401 97.599 137.001 97.2024 136.718 97.401Z" fill="#F4AF9A"/>
<path d="M146.854 97.002C146.66 97.7676 146.831 98.5722 147.129 99.2922C147.264 99.6156 147.472 99.8832 147.629 100.19C147.997 100.912 147.604 101.189 147.246 101.782C147.118 101.993 147.369 102.226 147.576 102.112C148.142 101.799 148.73 101.113 148.504 100.419C148.344 99.9288 147.905 99.5304 147.686 99.0582C147.38 98.4 147.336 97.7022 147.203 97.002C147.168 96.8238 146.896 96.8364 146.854 97.002Z" fill="#F4AF9A"/>
<path d="M142.596 99.8958C142.936 99.9294 143.283 99.9306 143.625 99.9378C143.914 99.9438 144.186 99.9774 144.446 99.8352C144.533 99.7878 144.533 99.6522 144.446 99.6042C144.186 99.462 143.914 99.495 143.625 99.5016C143.283 99.5088 142.936 99.51 142.596 99.5436C142.371 99.5664 142.37 99.8736 142.596 99.8958Z" fill="#F4AF9A"/>
<path d="M151.41 99.9234C151.764 99.927 152.231 100.018 152.55 99.8424C152.679 99.771 152.679 99.5694 152.55 99.4986C152.232 99.3234 151.762 99.414 151.41 99.4176C151.084 99.4206 151.083 99.9204 151.41 99.9234Z" fill="#F4AF9A"/>
<path d="M355.672 272.432C386.488 272.432 411.469 265.643 411.469 257.269C411.469 248.895 386.488 242.107 355.672 242.107C324.855 242.107 299.874 248.895 299.874 257.269C299.874 265.643 324.855 272.432 355.672 272.432Z" fill="#E8E8E8"/>
<path d="M395.102 216.193C395.102 216.193 395.965 251.803 394.022 255.905C392.079 260.008 379.773 264.491 364.444 264.301C349.115 264.11 340.521 260.224 337.536 257.417C335.129 255.154 336.943 220.725 337.521 213.268L395.102 216.193Z" fill="#FA574F"/>
<path d="M391.638 208.541C391.638 208.541 395.75 211.442 395.102 216.193C394.455 220.942 381.042 223.693 372.114 223.533C363.186 223.373 346.187 223.899 338.26 217.131C338.26 217.131 335.032 212.09 342.074 209.284C349.115 206.477 375.877 202.424 391.638 208.541Z" fill="#E54242"/>
<path d="M367.616 217.127C381.723 217.127 393.158 214.259 393.158 210.722C393.158 207.185 381.723 204.318 367.616 204.318C353.509 204.318 342.073 207.185 342.073 210.722C342.073 214.259 353.509 217.127 367.616 217.127Z" fill="#FA574F"/>
<path d="M337.191 200.398C334.407 201.323 329.204 203.936 327.412 206.259C325.62 208.582 327.997 211.028 330.637 212.305C331.428 212.688 332.324 212.778 333.198 212.862C338.685 213.389 341.804 213.902 347.279 213.268C353.309 212.569 359.26 211.384 363.255 209.081C367.251 206.78 370.011 204.302 368.82 199.847C368.367 198.153 367.377 196.645 366.215 195.332C365.352 194.357 364.367 193.459 363.19 192.9C357.394 190.15 343.011 198.461 337.191 200.398Z" fill="#C17846"/>
<path d="M339.394 193.75C339.874 195.246 340.585 196.712 341.742 197.776C343.958 199.812 347.292 199.967 350.29 199.698C350.996 198.167 350.325 196.144 348.844 195.339C347.893 194.822 346.62 194.701 346.065 193.771C345.802 193.331 345.767 192.797 345.74 192.286C345.386 185.366 349.824 175.801 350.572 168.912C350.86 166.253 342.25 165.724 342.074 168.049C341.642 173.759 337.459 187.715 339.394 193.75Z" fill="#FFCDBB"/>
<path d="M347.929 157.252C341.556 161.03 342.075 168.047 342.075 168.047C344.748 169.771 346.788 172.155 350.579 172.146C350.277 168.488 348.846 156.709 347.929 157.252Z" fill="#75C0FB"/>
<path d="M325.583 245.447L317.245 253.93C317.245 253.93 315.112 255.486 311.765 253.003C310.568 252.115 308.743 259.588 317.163 260.884C320.63 261.417 320.375 261.488 320.375 261.488C320.375 261.488 320.399 260.087 321.805 258.274C324.206 255.173 328.789 250.761 330.764 249.331C333.895 247.064 325.583 245.447 325.583 245.447Z" fill="#FFCDBB"/>
<path d="M348.777 232.169C339.844 243.179 337.142 245.747 326.878 253.003C325.278 251.93 322.207 247.942 322.858 247.357C328.795 242.015 328.635 241.196 333.32 234.727C338.354 227.777 339.558 225.112 345.337 218.927C346.524 217.657 351.112 210.494 352.125 209.082C354.085 206.349 359.429 201.404 360.586 198.053C362.008 193.937 360.342 193.816 364.566 192.754C370.419 191.284 381.177 198.766 381.177 198.766C382.257 204.318 380.314 207.636 377.615 210.722C369.719 219.752 356.336 222.852 348.777 232.169Z" fill="#E39157"/>
<path d="M306.583 250.304C305.396 250.199 304.905 251.992 306.069 253.867C311.504 262.628 316.596 265.421 316.731 265.349C318.242 264.553 319.465 264.26 320.556 260.954C320.556 260.954 310.475 259.451 313.714 254.086C313.714 254.086 309.282 249.765 306.583 250.304Z" fill="#54585B"/>
<path d="M347.067 215.71L358.71 218.141C358.71 218.141 361.172 219.095 360.891 223.252C360.791 224.74 368.065 222.237 364.605 214.452C363.181 211.247 363.378 211.422 363.378 211.422C363.378 211.422 362.186 212.158 359.901 211.957C355.993 211.612 349.805 210.139 347.534 209.251C343.935 207.842 347.067 215.71 347.067 215.71Z" fill="#FFCDBB"/>
<path d="M361.421 229.07C361.974 230.126 363.748 229.571 364.697 227.579C369.131 218.27 368.729 212.477 368.597 212.402C367.111 211.561 366.203 210.689 362.832 211.559C362.832 211.559 367.016 220.853 360.751 221.027C360.751 221.027 359.509 227.092 361.421 229.07Z" fill="#54585B"/>
<path d="M330.009 215.097C335.661 217.148 335.221 216.92 341.234 216.952C346.623 216.981 347.161 216.691 352.124 217.387C352.473 215.639 353.364 212.573 353.713 210.825C350.808 210.231 348.055 209.352 344.731 207.877C338.668 205.185 337.521 204.764 333.989 204.318C332.043 204.072 329.037 204.318 327.412 206.259C325.974 207.979 324.969 213.268 330.009 215.097Z" fill="#D1834E"/>
<path d="M373.719 155.356C378.868 165.576 381.176 189.862 381.176 198.766C374.052 197.194 369.842 200.169 364.551 198.766C359.476 197.419 356.791 195.536 351.68 194.333C355.675 186.821 355.009 188.048 353.509 181.671C353.138 180.092 350.602 178.437 349.737 176.993C347.342 172.996 349.138 168.229 348.658 165.55C348.193 162.956 347.893 160.214 347.929 157.253C347.929 157.253 350.879 155.212 353.218 154.77C360.236 153.445 372.515 152.965 373.719 155.356Z" fill="#75C0FB"/>
<path d="M349.058 170.865C350.01 168.328 349.875 164.787 348.319 162.499C348.218 162.35 347.946 162.437 348.011 162.629C348.446 163.904 348.952 165.062 349.116 166.415C349.297 167.916 349.11 169.322 348.814 170.798C348.781 170.959 349.001 171.017 349.058 170.865Z" fill="#63B4EA"/>
<path d="M347.291 164.662C347.597 165.556 347.932 166.427 348.135 167.353C348.338 168.272 348.305 169.232 348.539 170.137C348.573 170.271 348.789 170.279 348.819 170.137C349.182 168.404 348.414 166.044 347.556 164.55C347.477 164.411 347.237 164.503 347.291 164.662Z" fill="#63B4EA"/>
<path d="M359.029 177.29C361.186 180.962 366.649 180.889 369.875 178.71C370.031 178.604 369.936 178.356 369.745 178.402C367.833 178.859 366.163 179.779 364.12 179.677C362.213 179.581 360.413 178.726 359.389 177.08C359.248 176.852 358.892 177.057 359.029 177.29Z" fill="#63B4EA"/>
<path d="M353.757 180.31C354.375 180.359 354.988 180.238 355.552 179.978C356.004 179.77 356.664 179.396 356.812 178.888C356.848 178.767 356.716 178.691 356.616 178.737C356.181 178.937 355.872 179.368 355.427 179.593C354.898 179.86 354.346 179.968 353.757 179.987C353.547 179.993 353.551 180.293 353.757 180.31Z" fill="#63B4EA"/>
<path d="M384.835 188.709C381.932 194.171 358.273 196.195 352.814 198.747C345.47 199.111 351.524 193.958 352.814 192.348C353.355 191.673 358.649 192.755 359.429 192.382C366.553 188.974 371.562 188.315 378.046 183.808C378.922 183.199 372.814 168.19 372.333 166.775C377.02 162.765 378.208 159.482 380.853 163.989C384.002 169.355 386.682 183.808 384.835 188.709Z" fill="#FFCDBB"/>
<path d="M381.608 164.377C378.36 167.034 371.87 169.822 371.462 169.628C371.092 169.453 370.238 167.89 370.02 167.542C367.948 164.228 366.846 153.253 372.114 154.342C377.83 155.525 379.334 160.998 381.608 164.377Z" fill="#75C0FB"/>
<path d="M369.761 158.395C368.498 159.308 368.592 161.317 368.79 162.689C369.07 164.629 369.95 167.207 371.281 168.695C371.439 168.872 371.69 168.647 371.594 168.454C370.877 167.014 370.067 165.661 369.584 164.111C369.124 162.636 368.518 159.788 369.939 158.627C370.068 158.521 369.897 158.296 369.761 158.395Z" fill="#63B4EA"/>
<path d="M317.217 181.67H342.825L350.384 198.053H325.367L317.217 181.67Z" fill="#BCBBBB"/>
<path d="M316.568 181.67H342.178L349.736 198.053H324.719L316.568 181.67Z" fill="#D1D1D1"/>
<path d="M330.742 188.954C330.909 189.46 331.353 189.817 331.783 190.132C331.981 190.277 332.193 190.433 332.281 190.663C332.391 190.949 332.289 191.294 332.442 191.559C332.568 191.776 332.835 191.875 333.085 191.881C333.688 191.896 334.239 191.458 334.489 190.909C334.607 190.652 334.669 190.354 334.58 190.085C334.387 189.505 333.597 189.304 333.382 188.732C333.199 188.246 333.485 187.623 333.159 187.22C332.153 185.979 330.361 187.801 330.742 188.954Z" fill="white"/>
<path d="M359.428 198.053H324.719V200.169H359.428V198.053Z" fill="#BCBBBB"/>
<path d="M359.428 198.053H349.736V200.169H359.428V198.053Z" fill="#A09F9F"/>
<path d="M361.544 126.803C362.86 126.224 364.448 126.313 365.692 127.032C367.757 128.227 368.552 130.745 369.397 132.976C370.074 134.765 370.909 136.536 372.217 137.932C373.525 139.328 375.376 140.314 377.287 140.212C376.242 142.778 373.079 144.26 370.439 143.422C367.702 142.552 366.108 139.814 364.361 137.535C363.913 136.95 363.403 136.357 362.704 136.123C361.582 135.748 360.263 136.394 359.203 135.87C358.538 135.541 358.16 134.837 357.824 134.177C356.397 131.372 358.774 128.02 361.544 126.803Z" fill="#75432E"/>
<path d="M365.846 153.235C363.905 152.09 363.544 151.423 362.501 148.625L361.376 145.539C359.834 142.991 356.969 144.646 354.738 146.618C355.69 149.807 356.812 153.326 353.217 154.769C351.432 159.141 355.765 163.077 358.345 163.351C361.159 163.649 368.31 160.437 368.288 153.797C368.288 153.797 366.41 153.568 365.846 153.235Z" fill="#F4AF9A"/>
<path d="M362.085 143.656C362.571 150.81 359.857 154.253 355.268 154.799C350.538 155.362 346.32 147.698 346.081 141.001C345.853 134.635 350.705 131.014 356.245 131.014C361.784 131.013 361.653 137.3 362.085 143.656Z" fill="#FFCDBB"/>
<path d="M357.05 138.415C359.266 135.971 360.759 146.269 362.013 146.269C363.9 146.269 364.824 142.921 365.227 139.873C365.373 138.771 364.672 135.361 364.175 134.367C362.313 130.643 360.665 130.568 359.641 130.36C356.884 128.295 352.74 128.803 350.646 129.64C348.922 130.33 347.302 131.075 345.34 134.216C344.105 136.192 342.395 141.539 346.472 142.64C351.432 143.98 353.989 141.791 357.05 138.415Z" fill="#875135"/>
<path d="M355.269 146.377C355.721 146.377 356.106 145.992 356.106 145.54C356.106 145.086 355.723 144.703 355.269 144.703C354.817 144.703 354.433 145.087 354.433 145.54C354.433 145.994 354.815 146.377 355.269 146.377Z" fill="#875135"/>
<path d="M349.244 146.92C349.697 146.92 350.081 146.536 350.081 146.083C350.081 145.63 349.698 145.246 349.244 145.246C348.792 145.246 348.407 145.631 348.407 146.083C348.407 146.537 348.79 146.92 349.244 146.92Z" fill="#875135"/>
<path d="M353.757 142.898C354.137 142.618 354.525 142.427 355.009 142.463C355.407 142.492 355.808 142.667 356.204 142.603C356.352 142.579 356.332 142.39 356.24 142.32C355.875 142.039 355.226 141.971 354.777 142.025C354.299 142.083 353.916 142.33 353.561 142.644C353.426 142.763 353.608 143.008 353.757 142.898Z" fill="#875135"/>
<path d="M350.008 143.437C349.094 143.152 347.768 143.336 347.241 144.248C347.174 144.365 347.285 144.512 347.416 144.476C347.794 144.371 348.109 144.069 348.461 143.891C348.933 143.651 349.411 143.635 349.922 143.749C350.125 143.794 350.208 143.498 350.008 143.437Z" fill="#875135"/>
<path d="M352.35 151.964C352.824 152.247 353.412 152.218 353.931 152.083C354.353 151.973 354.993 151.714 355.044 151.217C355.056 151.107 354.927 151.026 354.831 151.054C354.467 151.161 354.15 151.414 353.778 151.529C353.378 151.653 352.899 151.756 352.484 151.646C352.293 151.595 352.179 151.862 352.35 151.964Z" fill="#F4AF9A"/>
<path d="M363.453 143.255C363.321 142.33 363.101 141.286 362.317 140.813C362.116 140.692 361.874 140.618 361.648 140.679C361.301 140.772 361.1 141.143 360.986 141.494C360.745 142.231 360.589 144.101 360.589 144.101C360.545 145.237 360.994 146.383 361.789 147.17C361.842 147.223 361.9 147.275 361.971 147.295C362.052 147.318 362.138 147.293 362.217 147.263C362.91 146.997 363.358 146.272 363.509 145.526C363.659 144.78 363.56 144.008 363.453 143.255Z" fill="#FFCDBB"/>
<path d="M361.908 146.074C361.935 146.075 361.962 146.077 361.989 146.078C362.473 146.103 362.475 145.3 361.989 145.325C361.962 145.326 361.935 145.328 361.908 145.329C361.428 145.354 361.428 146.05 361.908 146.074Z" fill="white"/>
<path d="M361.602 142.889C361.619 142.798 361.646 142.711 361.684 142.626C361.939 142.598 362.072 142.686 362.083 142.889C362.152 143.022 362.159 143.237 362.183 143.381C362.245 143.759 362.231 144.17 362.38 144.525C362.449 144.688 362.67 144.707 362.733 144.525C362.872 144.118 362.773 143.654 362.692 143.241C362.619 142.87 362.554 142.386 362.236 142.136C361.661 141.686 361.257 142.308 361.243 142.84C361.238 143.045 361.555 143.091 361.602 142.889Z" fill="#F4AF9A"/>
<path d="M358.237 147.432C358.348 147.834 357.833 148.328 357.086 148.535C356.339 148.743 355.644 148.585 355.532 148.183C355.42 147.781 355.935 147.287 356.682 147.079C357.429 146.872 358.124 147.03 358.237 147.432Z" fill="#F9B5A0"/>
<path d="M350.617 149.195C350.672 149.608 350.274 150.003 349.729 150.076C349.183 150.148 348.696 149.872 348.641 149.458C348.586 149.045 348.983 148.65 349.529 148.577C350.074 148.505 350.561 148.781 350.617 149.195Z" fill="#F9B5A0"/>
<path d="M351.315 145.594C351.378 146.557 352.128 148.082 351.335 148.883C351.215 149.004 351.25 149.192 351.386 149.281C351.916 149.627 352.628 149.963 353.258 149.743C353.367 149.704 353.428 149.516 353.295 149.46C352.733 149.222 352.181 149.186 351.641 148.844C351.659 148.976 351.675 149.109 351.693 149.242C352.584 148.318 352.048 146.588 351.66 145.547C351.596 145.375 351.302 145.382 351.315 145.594Z" fill="#F4AF9A"/>
<path d="M271.275 271.401C286.153 271.401 298.213 268.444 298.213 264.796C298.213 261.148 286.153 258.19 271.275 258.19C256.398 258.19 244.338 261.148 244.338 264.796C244.338 268.444 256.398 271.401 271.275 271.401Z" fill="#E8E8E8"/>
<path d="M262.68 257.224C260.403 260.781 255.646 261.546 251.91 263.515C251.581 263.688 251.226 263.915 251.15 264.279C251.003 264.988 251.948 265.369 252.667 265.448C258.646 266.116 264.7 266.101 270.676 265.403C270.001 261.438 269.085 257.513 267.933 253.66C267.807 253.241 267.676 252.815 267.425 252.457C266.461 251.08 264.384 251.336 262.753 251.745C262.72 253.557 262.687 255.369 262.653 257.181" fill="#FA574F"/>
<path d="M281.974 257.41C279.746 260.891 275.091 261.64 271.435 263.566C271.112 263.736 270.764 263.958 270.691 264.314C270.547 265.008 271.472 265.381 272.176 265.459C278.026 266.113 283.952 266.098 289.799 265.415C289.139 261.534 288.242 257.693 287.114 253.922C286.991 253.512 286.862 253.096 286.618 252.745C285.674 251.397 283.642 251.648 282.046 252.049C282.013 253.822 281.98 255.595 281.948 257.369" fill="#FA574F"/>
<path d="M261.361 258.688C263.923 258.79 266.726 258.578 269.289 258.679C271.014 246.786 270.442 234.404 270.012 221.068C269.63 209.219 274.687 201.985 278.216 186.586C277.039 199.184 277.25 207.049 277.546 216.748C277.927 229.252 279.581 243.299 280.908 258.681C283.334 259.442 285.764 259.128 288.404 258.679C289.909 244.037 289.593 232.52 290.649 216.748C291.562 203.116 295.729 190.057 296.15 174.68C296.162 174.245 296.083 173.78 295.805 173.446C295.412 172.97 294.706 172.937 294.089 172.943C283.738 173.042 268.879 172.322 258.529 172.493C258.529 172.493 257.189 176.233 257.52 180.628C258.01 187.142 256.669 208.448 258.13 220.359C260.808 242.171 260.758 258.656 261.361 258.688Z" fill="#0C2D41"/>
<path d="M254.875 88.3608C251.708 84.7452 249.74 84.8844 246.237 81.5934C243.84 80.3922 240.17 79.3554 241.128 80.3538C241.811 81.066 246.182 84.0642 245.879 85.0038C245.748 85.4094 243.008 86.13 243.958 88.3608C244.937 90.6618 249.518 91.2666 251.412 92.898C251.645 93.0978 254.875 88.3608 254.875 88.3608Z" fill="#FFCDBB"/>
<path d="M296.903 137.785C297.249 133.078 298.698 128.378 298.047 123.703C297.724 121.382 296.926 118.651 292.276 113.509C283.066 103.322 268.281 93.4734 253.118 86.1294C251.981 87.0378 249.619 90.462 249.619 92.7138C263.266 102.543 271.933 111.917 280.349 116.303C276.853 114.481 271.446 115.717 270.368 115.587C266.848 115.163 263.375 115.591 260.617 117.148C258.622 119.997 257.927 126.649 260.249 138.169C259.121 146.462 260.928 163.916 257.927 175.169C277.04 176.749 278.765 175.295 296.151 174.679C294.702 160.73 295.945 150.832 296.903 137.785Z" fill="#F9A146"/>
<path d="M269.832 117.992C274.04 121.17 279.664 121.648 284.678 120.076C285.056 119.957 284.898 119.368 284.513 119.48C279.581 120.908 274.392 120.264 269.993 117.717C269.81 117.611 269.672 117.872 269.832 117.992Z" fill="#E89142"/>
<path d="M285.557 115.422C286.347 115.238 287.133 115.157 287.944 115.191C288.654 115.22 289.355 115.466 290.058 115.439C290.285 115.43 290.37 115.133 290.173 115.011C288.888 114.212 286.808 114.602 285.447 115.025C285.194 115.103 285.298 115.482 285.557 115.422Z" fill="#E89142"/>
<path d="M285.303 114.29C285.826 113.974 286.373 113.723 286.965 113.565C287.5 113.422 288.053 113.419 288.587 113.29C288.767 113.247 288.783 112.943 288.587 112.91C287.414 112.715 286.071 113.338 285.118 113.974C284.924 114.104 285.1 114.414 285.303 114.29Z" fill="#E89142"/>
<path d="M273.312 156.141C277.735 152.363 281.214 147.521 286.317 144.576C286.745 144.329 286.358 143.664 285.928 143.912C280.767 146.892 277.242 151.775 272.769 155.598C272.392 155.92 272.938 156.461 273.312 156.141Z" fill="#E89142"/>
<path d="M274.74 160.777C278.647 157.843 282.776 156.406 287.314 154.788C287.708 154.648 287.545 154.115 287.145 154.173C282.582 154.829 278.034 157.501 274.433 160.25C274.127 160.485 274.425 161.013 274.74 160.777Z" fill="#E89142"/>
<path d="M285.065 100.263C285.065 106.683 275.594 112.928 270.012 112.928C266.261 112.928 265.481 109.538 265.061 106.049C265.012 105.643 263.61 105.15 263.581 104.715C263.489 103.324 264.974 101.863 264.849 100.263C263.938 88.6386 269.375 88.6386 274.957 88.6386C280.54 88.6386 285.065 93.843 285.065 100.263Z" fill="#FFCDBB"/>
<path d="M284.997 116.303C282.167 113.307 282.157 106.627 281.823 106.628C278.651 106.635 275.423 106.491 272.267 106.713C272.141 107.423 271.344 114.109 270.012 116.303C274.828 119.422 286.15 117.523 284.997 116.303Z" fill="#FFCDBB"/>
<path d="M260.991 90.5634C259.856 91.872 261.504 93.8706 263.209 94.1754C261.641 94.4298 260.764 95.415 262.145 95.9136C264.771 97.125 267.793 97.4598 270.62 96.8526C270.759 97.9404 271.21 98.9658 271.402 100.046C271.519 100.704 271.539 101.375 271.559 102.044C271.644 104.967 273.917 107.924 275.497 109.457C277.546 110.423 278.741 110.48 280.064 110.233C283.886 109.517 284.888 107.081 285.714 104.41C286.784 100.948 286.68 97.0812 285.674 93.5994C283.583 86.3622 276.482 86.5752 273.887 86.13C270.877 85.614 263.225 87.987 260.991 90.5634Z" fill="#54585B"/>
<path d="M274.086 100.731C273.867 99.969 273.573 99.0684 272.802 98.883C272.148 98.7252 271.473 99.1974 271.171 99.7992C270.869 100.401 270.851 101.101 270.839 101.774C270.839 101.774 270.62 107.639 273.569 105.481C274.275 104.965 274.713 102.921 274.086 100.731Z" fill="#FFCDBB"/>
<path d="M266.16 101.163C267.318 101.163 267.321 99.363 266.16 99.363C265.002 99.363 265 101.163 266.16 101.163Z" fill="#54585B"/>
<path d="M265.592 98.1936C266.176 98.2176 266.759 98.175 267.343 98.2146C267.87 98.2506 268.424 98.4384 268.927 98.2356C269.154 98.1438 269.298 97.8432 269.082 97.6482C268.638 97.2456 268.047 97.2558 267.468 97.2264C266.805 97.1922 266.127 97.1928 265.476 97.3374C264.981 97.4478 265.116 98.1744 265.592 98.1936Z" fill="#54585B"/>
<path d="M265.994 106.628C266.738 106.639 267.481 106.649 268.224 106.66C268.356 108.056 269.027 110.472 267.738 110.372C267.046 110.318 266.324 107.477 266.07 106.663" fill="white"/>
<path d="M272.021 100.55C272.387 100.9 272.437 101.977 272.488 102.443C272.538 102.899 272.722 103.687 272.324 104C272.106 104.173 272.346 104.496 272.58 104.439C272.626 104.428 272.672 104.416 272.719 104.405C272.856 104.372 272.92 104.25 272.934 104.122C273.027 103.321 272.871 102.442 272.838 101.636C272.814 101.083 272.768 100.543 272.277 100.219C272.076 100.087 271.849 100.385 272.021 100.55Z" fill="#F4AF9A"/>
<path d="M271.932 112.473C272.422 112.291 272.734 111.907 272.979 111.458C273.227 111.005 273.526 110.39 273.399 109.867C273.354 109.68 273.1 109.663 273.005 109.815C272.778 110.177 272.74 110.64 272.549 111.027C272.362 111.405 272.13 111.82 271.734 112.001C271.471 112.123 271.658 112.575 271.932 112.473Z" fill="#F4AF9A"/>
<path d="M265.812 102.181C266.073 102.252 266.735 102.537 266.852 102.105C266.974 101.656 266.219 101.638 265.972 101.602C265.601 101.549 265.429 102.076 265.812 102.181Z" fill="#F4AF9A"/>
<path d="M259.531 163.918C259.804 164.687 260.643 166.523 260.802 167.324C260.992 168.28 260.305 169.157 259.779 169.976C257.966 172.801 257.782 174.297 258.369 177.532C257.986 180.463 254.264 175.029 255.388 172.351C255.668 171.685 256.841 168.636 256.279 167.557C255.482 166.03 254.453 164.86 253.752 163.204C254.398 161.972 256.657 161.071 257.293 159.834C259.166 161.533 258.717 161.625 259.531 163.918Z" fill="#FFCDBB"/>
<path d="M260.616 117.148C259.885 117.56 257.764 119.186 257.293 119.878C247.368 130.334 244.463 138.561 243.655 144.934C244.868 152.717 248.638 158.873 255.179 167.777C257.621 167.777 259.492 164.509 259.93 163.141C257.706 157.115 255.854 147.577 253.752 144.936C258.971 140.376 259.536 138.755 262.356 136.758C269.229 131.81 266.488 114.769 260.616 117.148Z" fill="#F9A146"/>
<path d="M261.616 136.613C262.927 134.735 264.098 132.073 264.338 129.784C264.364 129.53 263.953 129.417 263.849 129.651C263.415 130.63 263.152 131.67 262.766 132.669C262.282 133.921 261.643 135.089 261.106 136.315C260.955 136.661 261.395 136.93 261.616 136.613Z" fill="#E89142"/>
<path d="M262.996 136.895C264.978 135.036 267.23 133.094 268.712 130.799C268.87 130.554 268.529 130.331 268.329 130.504C266.26 132.283 264.535 134.566 262.625 136.524C262.388 136.766 262.75 137.126 262.996 136.895Z" fill="#E89142"/>
<path d="M81.9112 271.3C94.9056 271.3 105.44 268.342 105.44 264.694C105.44 261.046 94.9056 258.089 81.9112 258.089C68.9168 258.089 58.3828 261.046 58.3828 264.694C58.3828 268.342 68.9168 271.3 81.9112 271.3Z" fill="#E8E8E8"/>
<path d="M64.4588 108.5C63.0842 110.514 60.8798 116.196 62.8136 119.465C63.407 120.469 64.6046 122.18 64.4588 123.337C64.1168 126.047 61.5746 126.926 60.6566 128.299C58.1456 132.057 58.3202 136.884 62.1062 139.351C63.8156 140.465 66.2162 141.392 66.2954 143.431C66.3266 144.239 65.9414 145.069 66.1958 145.838C66.4166 146.506 67.0622 146.933 67.691 147.249C72.8186 149.828 78.9608 148.399 84.506 146.918C85.6346 146.617 86.8298 146.276 87.6128 145.409C88.1858 144.775 88.4678 143.924 88.5764 143.075C89.0348 139.502 84.1436 136.444 85.1978 132.999C85.8146 130.984 87.3602 130.652 87.9176 128.62C88.8104 125.366 86.702 124.427 86.2994 121.077C86.1026 119.441 88.6148 115.76 87.7046 112.659C87.0242 110.341 84.1994 103.328 78.6068 102.584C71.5076 101.641 67.4624 104.1 64.4588 108.5Z" fill="#F9A146"/>
<path d="M71.8263 254.983C73.6557 254.996 75.6447 255.316 77.4747 255.33C77.4177 245.345 77.6697 233.394 78.9183 223.487C80.4411 211.401 80.6811 195.992 80.6811 184.065C82.4505 196.7 85.5645 214.541 84.1743 218.382C81.1191 226.825 81.5973 245.873 80.8833 255.156C81.6297 256.226 84.5337 255.697 85.7217 255.156C86.9097 254.615 92.3667 229.703 94.9359 218.635C95.8329 214.769 98.2701 190.331 94.9359 176.353C94.3749 174.001 91.4295 168.56 79.9011 168.599C67.1001 168.641 64.1169 176.452 64.1169 176.452C63.1419 193.544 68.5371 214.076 68.5029 217.152C68.4513 221.854 67.4673 227.297 67.5405 232.066C67.6743 240.845 69.6843 246.435 71.8263 254.983Z" fill="#244281"/>
<path d="M91.7236 263.263C93.2398 262.733 92.1076 261.14 91.1134 260.548C89.7214 259.72 88.0084 259.27 86.3914 258.411C85.9282 258.165 85.8586 256.882 86.1586 256.057C86.605 254.827 88.1602 253.528 86.0758 253.528C85.2598 253.528 82.1572 253.18 80.6548 252.801C78.88 252.353 80.3932 256.214 80.1328 257.693C79.951 258.727 79.3354 261.619 79.9726 262.58C80.6494 263.602 83.2102 262.96 84.3874 263.202C85.1632 263.362 90.9052 263.55 91.7236 263.263Z" fill="#C17846"/>
<path d="M72.2284 264.882C75.8176 265.597 77.9968 265.79 81.3376 265.917C83.0638 265.982 85.75 265.754 84.8764 263.848C84.067 262.859 81.2692 261.445 79.6876 260.392C79.2124 260.075 78.7186 259.738 78.4522 259.233C78.2518 258.853 78.2014 258.415 78.154 257.987C78.037 256.933 79.6906 252.397 76.3342 254.065C75.4762 254.492 72.3064 253.574 71.8366 253.536C69.7588 253.365 71.9602 256.189 72.0874 257.185C72.4054 259.676 70.948 264.284 72.2284 264.882Z" fill="#E39157"/>
<path d="M104.294 121.241C103.525 120.181 101.565 120.891 101.352 121.549C101.1 122.326 101.307 116.986 100.644 116.859C100.139 116.859 99.5007 119.936 100.038 124.079C100.134 124.818 100.612 126.664 101.352 126.751C102.211 126.852 101.453 129.633 101.251 132.26H105.345C105.294 130.91 104.472 127.407 105.142 126.144C105.629 124.783 105.629 121.892 104.294 121.241Z" fill="#FFCDBB"/>
<path d="M105.616 128.621C103.54 128.872 102.777 128.992 100.702 129.242C101.151 134.887 99.2497 141.195 98.0161 146.721C96.8653 144.033 93.7705 135.188 89.6767 132.105C85.8859 138.518 86.9161 144.111 88.9693 148.787C90.6679 153.344 94.4065 160.577 97.8649 159.929C105.142 159.987 105.738 141.897 105.616 128.621Z" fill="#329FA5"/>
<path d="M97.4863 148.46C96.8659 149.904 96.1927 151.327 95.9359 152.89C95.7691 153.907 95.5267 155.237 96.2785 156.054C96.4129 156.2 96.6127 156.042 96.5839 155.876C96.1315 153.239 97.0339 151.073 97.9567 148.659C98.0605 148.389 97.6015 148.192 97.4863 148.46Z" fill="#288E8E"/>
<path d="M89.7716 151.82C89.9504 144.329 91.418 141.514 89.531 134.231C88.1912 132.614 85.982 131.3 82.451 129.242C82.451 129.242 75.614 129.986 70.8248 129.633C70.8248 129.633 62.606 131.562 62.9096 135.304C63.3692 140.972 65.1758 146.065 65.747 150.309C67.8614 166.791 68.8658 164.027 64.1174 176.453C76.6964 177.103 82.1756 175.543 93.881 174.178C88.4756 163.29 89.522 162.268 89.7716 151.82Z" fill="#FA574F"/>
<path d="M75.4662 172.22C75.6852 177.986 76.0236 176.89 74.3856 182.453C70.1934 183.408 65.4816 182.978 61.6182 180.809C61.125 180.532 63.6174 175.346 64.4064 169.484C65.1954 163.621 67.2894 162.282 63.3684 151.82C61.068 147.869 59.7948 134.928 61.3236 133.34C63.5724 131.005 70.824 129.633 70.824 129.633C69.36 141.212 75.066 161.682 75.4662 172.22Z" fill="#329FA5"/>
<path d="M89.6772 132.106C86.9898 131.069 83.3742 129.319 82.4502 129.242C82.9224 132.871 83.487 137.713 83.685 143.526C83.8806 149.273 82.9536 151.182 83.208 156.927C83.7168 168.416 82.785 171.173 85.6926 182.347C88.7598 182.347 94.857 181.484 96.7458 179.567C93.7632 171.273 91.1886 166.504 90.8898 160.412C90.735 157.251 92.151 153.406 92.919 149.471C94.1832 140.52 91.9644 133.166 89.6772 132.106Z" fill="#329FA5"/>
<path d="M89.353 135.202C88.1356 141.109 93.265 145.421 92.3746 151.162C92.338 151.397 92.6674 151.592 92.7946 151.339C93.8038 149.32 93.2596 147.29 92.3932 145.285C90.9196 141.873 89.8414 139.06 89.7586 135.257C89.7532 135.032 89.4016 134.966 89.353 135.202Z" fill="#288E8E"/>
<path d="M73.1306 150.567C74.1344 151.382 75.1634 151.821 76.4276 151.294C77.4902 150.851 78.692 149.665 78.9272 148.516C78.9692 148.31 78.7346 148.055 78.5276 148.209C77.894 148.682 77.5844 149.426 77.0114 149.971C75.8924 151.036 74.6792 150.954 73.4546 150.147C73.205 149.983 72.893 150.374 73.1306 150.567Z" fill="#E84646"/>
<path d="M80.5344 148.444C80.814 149.186 81.3804 150.101 82.1778 150.365C82.5444 150.486 82.8054 149.99 82.5462 149.732C82.2966 149.483 81.9762 149.322 81.726 149.068C81.4728 148.81 81.258 148.528 81.0828 148.213C80.9214 147.923 80.412 148.12 80.5344 148.444Z" fill="#E84646"/>
<path d="M82.2337 116.918C82.4605 116.18 82.9417 115.259 83.8705 115.219C84.8119 115.179 85.2181 116.105 85.1983 116.861C85.1749 117.755 84.9079 118.662 84.4219 119.5C84.0493 120.142 83.1745 120.844 82.4557 120.524C82.1905 120.407 82.0429 120.175 81.9355 119.944C81.5035 119.017 82.2337 116.918 82.2337 116.918Z" fill="#F4AF9A"/>
<path d="M70.8242 129.661C72.0674 136.59 78.2798 139.487 78.2798 139.487C80.0546 137.713 83.2154 133.412 82.4504 129.242C82.4504 129.242 80.5328 129.173 80.2886 128.571C79.376 126.319 80.6108 124.22 80.2292 120.722C80.1746 120.393 71.6492 120.776 70.9172 120.917C71.795 124.499 72.9038 125.045 72.6584 128.672C72.6176 129.278 70.8242 129.661 70.8242 129.661Z" fill="#F4AF9A"/>
<path d="M83.3565 117.603C82.9197 123.106 81.0345 127.557 76.4325 127.557C71.8305 127.557 68.7129 121.914 68.0019 116.44C66.9909 108.653 70.8603 105.644 75.4617 105.644C80.0637 105.644 84.0819 108.455 83.3565 117.603Z" fill="#FFCDBB"/>
<path d="M75.5146 122.198C75.646 122.978 76.513 124.961 77.7058 124.769C78.7942 124.594 79.1278 123.604 79.519 121.892L75.5146 122.198Z" fill="white"/>
<path d="M77.1054 109.358C77.2662 110.124 77.2164 110.265 77.3772 111.03C77.9202 112.348 81.396 111.269 82.9944 110.446C85.764 109.019 84.627 107.387 83.8602 106.666C80.5068 103.513 75.0822 102.37 70.7736 104.215C66.465 106.059 63.765 110.947 64.9776 115.27C65.205 116.081 65.553 116.861 65.7108 117.686C65.8116 118.213 65.8368 118.762 66.0708 119.249C66.618 120.389 67.1064 120.095 68.1426 119.317C69.0594 119.759 68.4042 120.24 68.9556 118.622C69.936 115.746 69.9324 113.129 69.9324 113.129C71.6238 112.754 74.7204 111.788 77.1054 109.358Z" fill="#F9A146"/>
<path d="M69.0383 117.335C68.6765 116.569 68.0309 115.655 67.1117 115.807C66.1799 115.961 65.9549 117.068 66.1163 117.898C66.3071 118.879 66.7397 119.822 67.3745 120.644C67.8611 121.273 68.8517 121.863 69.4979 121.36C69.7361 121.174 69.8375 120.887 69.8999 120.61C70.1495 119.496 69.0383 117.335 69.0383 117.335Z" fill="#FFCDBB"/>
<path d="M74.6586 117.113C74.9238 116.99 75.0702 116.785 75.147 116.509C75.2832 116.022 74.9076 115.624 74.4432 115.586C74.1426 115.561 73.9194 115.684 73.7124 115.888C73.4376 116.158 73.4136 116.614 73.6512 116.912C73.9074 117.233 74.2956 117.283 74.6586 117.113Z" fill="#6C645B"/>
<path d="M80.5905 116.553C80.6205 116.553 80.6511 116.554 80.6811 116.554C81.1107 116.556 81.4209 116.201 81.4443 115.79C81.4611 115.497 81.2991 115.286 81.0663 115.132C80.6961 114.885 80.2569 115.091 80.0223 115.405C80.0055 115.428 79.9881 115.451 79.9713 115.474C79.6335 115.927 80.0937 116.55 80.5905 116.553Z" fill="#6C645B"/>
<path d="M79.946 113.292C80.3798 113.166 80.8184 113.097 81.2708 113.107C81.6242 113.116 81.9524 113.256 82.2746 113.084C82.3886 113.023 82.3994 112.862 82.3142 112.775C82.0226 112.474 81.5414 112.565 81.155 112.612C80.687 112.668 80.2478 112.798 79.8158 112.984C79.6382 113.059 79.7654 113.344 79.946 113.292Z" fill="#D17828"/>
<path d="M73.1723 113.729C73.6061 113.603 74.0447 113.534 74.4971 113.545C74.8505 113.553 75.1787 113.693 75.5009 113.521C75.6149 113.461 75.6257 113.3 75.5405 113.212C75.2489 112.911 74.7677 113.002 74.3813 113.049C73.9133 113.105 73.4741 113.236 73.0421 113.421C72.8651 113.497 72.9917 113.782 73.1723 113.729Z" fill="#D17828"/>
<path d="M68.1639 121.031C68.9961 121.031 68.9979 119.738 68.1639 119.738C67.3317 119.738 67.3299 121.031 68.1639 121.031Z" fill="#FA574F"/>
<path d="M83.5119 120.051C84.0639 120.051 84.0645 119.193 83.5119 119.193C82.9599 119.193 82.9593 120.051 83.5119 120.051Z" fill="#FA574F"/>
<path d="M68.0863 117.202C67.6759 116.685 66.9589 116.614 66.7807 117.326C66.6379 117.896 66.7783 119.08 67.4767 119.23C67.5703 119.249 67.6843 119.185 67.6771 119.077C67.6477 118.646 67.3123 118.31 67.2715 117.863C67.2589 117.724 67.2355 117.493 67.3045 117.362C67.4149 117.155 67.6327 117.373 67.7659 117.523C67.9627 117.745 68.2633 117.425 68.0863 117.202Z" fill="#F4AF9A"/>
<path d="M77.1385 116.86C77.1265 117.408 77.2501 117.937 77.4673 118.439C77.5657 118.667 77.6803 118.887 77.8153 119.095C77.8843 119.201 78.2077 119.508 78.1849 119.636C78.1555 119.798 76.8847 120.271 77.5153 120.589C77.8705 120.769 78.7129 120.115 78.7963 119.773C78.8947 119.368 78.4585 119.001 78.2677 118.702C77.8945 118.118 77.7355 117.467 77.5993 116.798C77.5453 116.531 77.1445 116.602 77.1385 116.86Z" fill="#F4AF9A"/>
<path d="M74.98 119.717C74.98 120.086 74.425 120.385 73.741 120.385C73.057 120.385 72.502 120.086 72.502 119.717C72.502 119.349 73.057 119.05 73.741 119.05C74.425 119.05 74.98 119.349 74.98 119.717Z" fill="#F9B5A0"/>
<path d="M81.5391 119.694C82.1985 119.511 82.653 119.075 82.5544 118.72C82.4558 118.365 81.8414 118.226 81.1821 118.409C80.5228 118.592 80.0682 119.028 80.1668 119.383C80.2654 119.738 80.8798 119.878 81.5391 119.694Z" fill="#F9B5A0"/>
<path d="M78.2963 175.463L75.6581 171.383C75.2345 170.729 74.3609 170.541 73.7057 170.965L63.7703 177.388C63.1157 177.812 62.9279 178.685 63.3515 179.341L65.9897 183.421C66.4133 184.075 67.2869 184.263 67.9421 183.839L77.8775 177.416C78.5321 176.992 78.7199 176.118 78.2963 175.463Z" fill="#282D5C"/>
<path d="M75.422 174.86C75.422 175.237 75.1166 175.543 74.7398 175.543C74.363 175.543 74.0576 175.237 74.0576 174.86C74.0576 174.484 74.363 174.178 74.7398 174.178C75.1166 174.178 75.422 174.484 75.422 174.86Z" fill="white"/>
<path d="M70.824 174.336C70.0548 173.059 72.7458 171.986 71.0274 171.688C68.1594 171.838 68.1468 171.688 66.8904 170.78C66.8904 170.78 63.6396 168.818 61.7784 168.599C61.491 169.121 60.6426 171.92 60.6564 172.516C63.3684 174.608 65.2254 174.046 67.5402 177.065C67.95 177.599 72.291 181.027 73.4892 178.726C73.4418 177.236 71.5932 175.612 70.824 174.336Z" fill="#FFCDBB"/>
<path d="M50.5583 162.913C52.5239 165.788 60.6887 174.986 65.1275 175.789C66.0455 173.638 66.5099 172.472 67.0295 170.193C62.8019 168.148 57.2375 159.933 57.4157 159.553C58.8065 156.576 61.0937 152.74 62.8085 149.471C64.8113 145.654 66.0245 143.026 66.0245 138.275C66.0245 136.737 65.1779 131.236 63.7403 131.784C59.6561 133.341 57.5915 136.898 55.4105 141.964C53.1143 147.298 47.6777 158.698 50.5583 162.913Z" fill="#329FA5"/>
<path d="M53.5363 157.88C53.9695 158.143 54.4075 158.396 54.8575 158.629C55.2145 158.815 55.6171 159.113 56.0293 159.091C56.1439 159.085 56.2621 158.945 56.1769 158.834C55.9225 158.502 55.4785 158.381 55.1119 158.194C54.6607 157.964 54.2137 157.726 53.7733 157.476C53.5099 157.327 53.2783 157.724 53.5363 157.88Z" fill="#288E8E"/>
<path d="M53.9716 160.286C54.3952 160.251 54.8194 160.24 55.2436 160.267C55.6168 160.292 55.9978 160.426 56.3614 160.325C56.4778 160.293 56.4808 160.149 56.3926 160.085C56.0998 159.875 55.6852 159.89 55.3342 159.871C54.8782 159.845 54.4252 159.863 53.971 159.91C53.7352 159.935 53.7292 160.306 53.9716 160.286Z" fill="#288E8E"/>
<path d="M61.655 138.056C62.0762 139.612 62.3426 141.152 62.3906 142.765C62.4278 144.016 62.2514 145.3 62.5298 146.524C62.582 146.753 62.909 146.731 62.9726 146.524C63.7646 143.932 63.2426 140.3 62.1686 137.84C62.039 137.543 61.5734 137.757 61.655 138.056Z" fill="#288E8E"/>
<path d="M64.3512 146.631C64.7646 144.917 65.3388 142.711 65.0076 140.946C64.968 140.735 64.638 140.745 64.5918 140.946C64.4094 141.739 64.4514 142.564 64.3764 143.374C64.278 144.428 64.104 145.467 63.8814 146.501C63.8154 146.807 64.2774 146.938 64.3512 146.631Z" fill="#288E8E"/>
</svg>
