<svg width="250" height="250" viewBox="0 0 250 250" fill="none" xmlns="http://www.w3.org/2000/svg">
<path d="M158.762 125.358C134.743 125.13 113.006 124.924 97.2509 124.775C89.3909 124.737 83.0284 124.707 78.6099 124.686C76.4209 124.691 74.7174 124.695 73.5414 124.697C72.9739 124.705 72.5364 124.711 72.2234 124.715C71.9264 124.722 71.7744 124.73 71.7744 124.739C71.7744 124.748 71.9264 124.758 72.2234 124.768C72.5369 124.775 72.9739 124.785 73.5414 124.799C74.7174 124.813 76.4209 124.835 78.6094 124.862C83.0274 124.885 89.3904 124.919 97.2504 124.961C113.007 124.971 134.744 124.985 158.764 125C182.773 124.997 204.514 125.029 220.253 125.143C228.122 125.199 234.491 125.273 238.892 125.357C241.093 125.399 242.802 125.442 243.96 125.487C245.119 125.531 245.727 125.576 245.727 125.619C245.727 125.661 245.118 125.7 243.959 125.733C242.8 125.765 241.091 125.792 238.89 125.812C234.488 125.851 228.119 125.86 220.249 125.837C204.51 125.792 182.77 125.603 158.762 125.358Z" fill="#EBEBEB"/>
<path d="M158.283 130.704C134.592 126.796 113.152 123.259 97.6122 120.696C89.8537 119.455 83.5727 118.45 79.2112 117.753C77.0482 117.423 75.3647 117.166 74.2022 116.989C73.6402 116.91 73.2072 116.849 72.8972 116.806C72.6027 116.768 72.4512 116.753 72.4492 116.762C72.4477 116.771 72.5962 116.804 72.8882 116.86C73.1967 116.915 73.6267 116.993 74.1847 117.093C75.3442 117.288 77.0232 117.571 79.1812 117.934C83.5422 118.635 89.8222 119.644 97.5797 120.89C113.143 123.313 134.615 126.656 158.342 130.35C182.059 134.024 203.532 137.385 219.062 139.91C226.827 141.171 233.107 142.22 237.441 142.978C239.609 143.357 241.29 143.663 242.427 143.885C243.564 144.107 244.158 144.245 244.151 144.288C244.144 144.331 243.536 144.277 242.386 144.132C241.236 143.987 239.543 143.752 237.366 143.434C233.011 142.799 226.717 141.833 218.947 140.604C203.406 138.148 181.96 134.628 158.283 130.704Z" fill="#EBEBEB"/>
<path d="M156.962 135.908C134.19 128.369 113.584 121.546 98.6468 116.6C91.1833 114.17 85.1413 112.203 80.9453 110.836C78.8618 110.175 77.2403 109.66 76.1203 109.305C75.5778 109.14 75.1603 109.012 74.8608 108.921C74.5758 108.838 74.4288 108.8 74.4258 108.809C74.4228 108.818 74.5643 108.874 74.8433 108.974C75.1388 109.077 75.5513 109.22 76.0868 109.407C77.2008 109.78 78.8133 110.319 80.8863 111.013C85.0813 112.383 91.1213 114.355 98.5833 116.791C113.566 121.6 134.236 128.235 157.077 135.566C179.912 142.876 200.58 149.529 215.513 154.434C222.98 156.886 229.013 158.898 233.173 160.32C235.252 161.031 236.863 161.595 237.951 161.991C239.039 162.388 239.603 162.617 239.589 162.658C239.575 162.7 238.984 162.552 237.871 162.231C236.758 161.91 235.124 161.415 233.024 160.763C228.825 159.46 222.764 157.529 215.287 155.108C200.332 150.27 179.715 143.462 156.962 135.908Z" fill="#EBEBEB"/>
<path d="M154.826 140.838C133.541 129.86 114.278 119.926 100.316 112.725C93.3332 109.167 87.6802 106.286 83.7552 104.286C81.8032 103.309 80.2837 102.549 79.2357 102.025C78.7262 101.777 78.3342 101.586 78.0532 101.45C77.7852 101.323 77.6462 101.262 77.6417 101.27C77.6372 101.279 77.7682 101.356 78.0277 101.498C78.3027 101.645 78.6877 101.851 79.1867 102.118C80.2267 102.658 81.7337 103.442 83.6702 104.448C87.5937 106.451 93.2447 109.336 100.225 112.899C114.253 119.974 133.606 129.736 154.992 140.522C176.375 151.287 195.724 161.065 209.688 168.226C216.671 171.806 222.309 174.728 226.19 176.777C228.13 177.802 229.632 178.608 230.643 179.167C231.654 179.727 232.175 180.04 232.155 180.078C232.135 180.117 231.575 179.878 230.527 179.388C229.48 178.897 227.945 178.155 225.976 177.185C222.037 175.246 216.36 172.397 209.363 168.846C195.366 161.747 176.092 151.826 154.826 140.838Z" fill="#EBEBEB"/>
<path d="M151.933 145.378C132.649 131.254 115.198 118.473 102.549 109.208C96.2159 104.617 91.0894 100.901 87.5294 98.32C85.7564 97.054 84.3764 96.0695 83.4234 95.389C82.9599 95.066 82.6024 94.8175 82.3469 94.639C82.1024 94.4725 81.9744 94.391 81.9689 94.3985C81.9634 94.406 82.0804 94.502 82.3144 94.683C82.5634 94.871 82.9104 95.133 83.3609 95.4735C84.3029 96.168 85.6669 97.174 87.4204 98.4665C90.9789 101.05 96.1024 104.77 102.432 109.365C115.167 118.516 132.735 131.14 152.148 145.09C171.562 159.019 189.123 171.659 201.78 180.885C208.11 185.497 213.215 189.253 216.723 191.875C218.478 193.186 219.833 194.214 220.743 194.923C221.653 195.631 222.118 196.021 222.092 196.056C222.066 196.091 221.55 195.769 220.593 195.123C219.637 194.477 218.238 193.508 216.447 192.246C212.864 189.724 207.708 186.036 201.36 181.45C188.66 172.279 171.196 159.51 151.933 145.378Z" fill="#EBEBEB"/>
<path d="M148.359 149.417C131.536 132.507 116.314 117.205 105.28 106.113C99.748 100.606 95.2695 96.1485 92.16 93.053C90.608 91.5305 89.4005 90.346 88.5665 89.528C88.1595 89.1375 87.846 88.837 87.621 88.622C87.406 88.42 87.292 88.32 87.2855 88.3265C87.2785 88.333 87.3795 88.446 87.582 88.6605C87.798 88.8845 88.1 89.1965 88.4915 89.6015C89.3125 90.432 90.5015 91.635 92.0295 93.1805C95.137 96.278 99.612 100.739 105.14 106.249C116.276 117.241 131.639 132.407 148.616 149.165C165.597 165.902 180.951 181.083 191.999 192.138C197.524 197.664 201.975 202.157 205.027 205.286C206.553 206.85 207.729 208.073 208.516 208.912C209.304 209.752 209.701 210.208 209.671 210.238C209.64 210.269 209.181 209.872 208.337 209.087C207.494 208.302 206.266 207.129 204.695 205.609C201.554 202.567 197.043 198.133 191.495 192.629C180.397 181.624 165.159 166.331 148.359 149.417Z" fill="#EBEBEB"/>
<path d="M144.192 152.858C130.242 133.574 117.618 116.123 108.468 103.473C103.872 97.1855 100.151 92.095 97.5675 88.5605C96.2745 86.8185 95.2686 85.4635 94.5736 84.5275C94.2331 84.0795 93.9706 83.7345 93.7826 83.4875C93.6021 83.255 93.5055 83.1385 93.4975 83.144C93.49 83.1495 93.5711 83.2765 93.7376 83.5195C93.9156 83.7735 94.164 84.128 94.487 84.589C95.167 85.5355 96.1521 86.906 97.4176 88.667C99.9986 92.2035 103.716 97.2965 108.307 103.587C117.574 116.154 130.358 133.491 144.485 152.65C158.62 171.788 171.393 189.138 180.563 201.753C185.149 208.06 188.837 213.181 191.358 216.74C192.619 218.519 193.589 219.907 194.234 220.858C194.879 221.808 195.2 222.319 195.164 222.345C195.129 222.37 194.739 221.908 194.029 221.003C193.32 220.099 192.292 218.752 190.98 217.009C188.356 213.523 184.599 208.451 179.987 202.163C170.76 189.588 158.119 172.143 144.192 152.858Z" fill="#EBEBEB"/>
<path d="M139.531 155.616C128.81 134.418 119.109 115.235 112.077 101.33C108.535 94.4105 105.667 88.8095 103.675 84.9195C102.674 83 101.895 81.506 101.357 80.4745C101.092 79.9795 100.887 79.5985 100.741 79.3255C100.599 79.068 100.522 78.9385 100.513 78.9425C100.505 78.947 100.565 79.085 100.691 79.3505C100.826 79.629 101.016 80.0175 101.261 80.5225C101.783 81.562 102.538 83.0675 103.509 85.0025C105.497 88.8935 108.361 94.497 111.898 101.419C119.059 115.26 128.938 134.355 139.854 155.455C150.782 176.537 160.647 195.643 167.704 209.517C171.234 216.454 174.065 222.08 175.991 225.984C176.954 227.936 177.691 229.457 178.178 230.495C178.664 231.533 178.9 232.088 178.861 232.107C178.821 232.127 178.509 231.61 177.952 230.607C177.394 229.605 176.592 228.116 175.573 226.192C173.534 222.345 170.627 216.756 167.068 209.834C159.947 195.992 150.229 176.812 139.531 155.616Z" fill="#EBEBEB"/>
<path d="M134.489 157.62C127.284 135.022 120.765 114.572 116.039 99.7495C113.644 92.367 111.706 86.39 110.36 82.24C109.677 80.189 109.146 78.593 108.779 77.491C108.596 76.961 108.455 76.553 108.353 76.2605C108.254 75.9845 108.199 75.844 108.19 75.847C108.181 75.85 108.218 75.9955 108.3 76.2775C108.389 76.5735 108.514 76.987 108.676 77.5235C109.025 78.631 109.531 80.235 110.18 82.2965C111.523 86.4475 113.457 92.4255 115.846 99.81C120.709 114.589 127.419 134.979 134.834 157.511C142.263 180.025 148.957 200.424 153.713 215.22C156.092 222.618 157.989 228.614 159.268 232.768C159.908 234.845 160.393 236.461 160.708 237.562C161.023 238.662 161.167 239.247 161.124 239.26C161.082 239.273 160.856 238.715 160.465 237.638C160.075 236.562 159.52 234.967 158.82 232.909C157.42 228.793 155.441 222.823 153.031 215.435C148.209 200.66 141.671 180.212 134.489 157.62Z" fill="#EBEBEB"/>
<path d="M129.188 158.816C125.679 135.382 122.503 114.175 120.2 98.803C119.013 91.1405 118.053 84.9375 117.386 80.6305C117.039 78.499 116.769 76.8405 116.583 75.6955C116.487 75.1435 116.413 74.719 116.359 74.4145C116.306 74.1265 116.273 73.9795 116.264 73.981C116.255 73.9825 116.269 74.132 116.305 74.423C116.346 74.7295 116.403 75.1565 116.478 75.7115C116.646 76.8595 116.889 78.522 117.202 80.6585C117.866 84.9665 118.822 91.17 120.003 98.833C122.448 114.183 125.821 135.361 129.547 158.762C133.291 182.149 136.647 203.332 138.982 218.682C140.152 226.356 141.069 232.572 141.669 236.873C141.97 239.023 142.191 240.695 142.326 241.83C142.462 242.966 142.511 243.566 142.467 243.572C142.424 243.579 142.29 242.992 142.076 241.868C141.862 240.744 141.569 239.084 141.206 236.943C140.481 232.661 139.479 226.458 138.278 218.788C135.871 203.449 132.678 182.241 129.188 158.816Z" fill="#EBEBEB"/>
<path d="M123.762 159.179C123.978 135.491 124.174 114.056 124.316 98.518C124.349 90.767 124.376 84.492 124.395 80.135C124.388 77.9765 124.383 76.2965 124.38 75.137C124.372 74.577 124.365 74.146 124.361 73.837C124.353 73.544 124.345 73.394 124.336 73.394C124.327 73.394 124.317 73.544 124.307 73.8365C124.3 74.1455 124.29 74.5765 124.277 75.136C124.263 76.2955 124.242 77.9755 124.216 80.134C124.195 84.4915 124.164 90.766 124.127 98.517C124.126 114.055 124.126 135.492 124.125 159.18C124.143 182.856 124.124 204.297 124.018 219.818C123.966 227.578 123.895 233.859 123.813 238.2C123.772 240.37 123.728 242.055 123.684 243.198C123.639 244.34 123.595 244.94 123.551 244.94C123.508 244.94 123.468 244.34 123.435 243.197C123.401 242.054 123.373 240.368 123.352 238.198C123.309 233.857 123.296 227.575 123.315 219.815C123.351 204.294 123.528 182.854 123.762 159.179Z" fill="#EBEBEB"/>
<path d="M118.342 158.71C122.29 135.344 125.863 114.199 128.452 98.872C129.706 91.22 130.72 85.0255 131.425 80.724C131.758 78.5905 132.017 76.93 132.196 75.784C132.276 75.2295 132.337 74.803 132.381 74.497C132.42 74.2065 132.435 74.057 132.426 74.0555C132.416 74.054 132.383 74.2005 132.326 74.488C132.27 74.792 132.192 75.216 132.09 75.767C131.893 76.9105 131.608 78.5665 131.241 80.6945C130.534 84.9955 129.514 91.1895 128.255 98.8405C125.807 114.19 122.431 135.366 118.7 158.767C114.99 182.159 111.596 203.337 109.045 218.654C107.771 226.312 106.711 232.506 105.945 236.781C105.562 238.918 105.253 240.576 105.028 241.698C104.804 242.82 104.664 243.406 104.621 243.398C104.577 243.391 104.632 242.793 104.778 241.658C104.924 240.523 105.162 238.854 105.482 236.706C106.124 232.411 107.099 226.204 108.341 218.541C110.822 203.214 114.378 182.062 118.342 158.71Z" fill="#EBEBEB"/>
<path d="M113.063 157.41C120.694 134.949 127.6 114.623 132.605 99.8895C135.065 92.528 137.056 86.568 138.439 82.4295C139.108 80.3745 139.629 78.775 139.988 77.6705C140.155 77.1355 140.284 76.7235 140.376 76.428C140.461 76.147 140.499 76.002 140.49 75.999C140.481 75.996 140.424 76.1355 140.323 76.411C140.219 76.7025 140.073 77.1095 139.885 77.6375C139.508 78.7365 138.961 80.327 138.259 82.3715C136.873 86.509 134.877 92.4675 132.412 99.827C127.545 114.606 120.83 134.994 113.41 157.524C106.012 180.048 99.2793 200.435 94.3143 215.164C91.8333 222.529 89.7968 228.48 88.3568 232.583C87.6373 234.634 87.0668 236.223 86.6658 237.296C86.2648 238.369 86.0328 238.926 85.9903 238.912C85.9483 238.898 86.0978 238.315 86.4223 237.217C86.7473 236.12 87.2478 234.508 87.9073 232.437C89.2258 228.295 91.1803 222.317 93.6303 214.942C98.5283 200.189 105.418 179.854 113.063 157.41Z" fill="#EBEBEB"/>
<path d="M108.063 155.308C119.181 134.31 129.243 115.307 136.536 101.534C140.14 94.6455 143.057 89.069 145.083 85.1965C146.072 83.2705 146.842 81.772 147.373 80.738C147.624 80.2355 147.817 79.8485 147.955 79.5715C148.084 79.3075 148.145 79.17 148.137 79.1655C148.128 79.1615 148.05 79.2905 147.906 79.5465C147.757 79.818 147.549 80.1975 147.279 80.69C146.731 81.716 145.938 83.2025 144.918 85.113C142.89 88.9835 139.968 94.558 136.359 101.444C129.193 115.282 119.307 134.374 108.383 155.471C97.4805 176.565 87.578 195.652 80.325 209.428C76.6995 216.316 73.74 221.877 71.6645 225.706C70.627 227.62 69.8105 229.102 69.244 230.099C68.6775 231.096 68.36 231.611 68.3215 231.59C68.2825 231.57 68.524 231.018 69.0205 229.985C69.5175 228.952 70.2695 227.438 71.2515 225.495C73.2155 221.61 76.1 216.01 79.6965 209.107C86.8865 195.3 96.9345 176.287 108.063 155.308Z" fill="#EBEBEB"/>
<path d="M103.458 152.458C117.768 133.432 130.718 116.214 140.104 103.734C144.756 97.4865 148.521 92.428 151.136 88.916C152.419 87.1665 153.417 85.8055 154.106 84.8655C154.433 84.408 154.685 84.0555 154.866 83.803C155.034 83.562 155.117 83.4355 155.109 83.43C155.102 83.4245 155.004 83.54 154.821 83.7705C154.631 84.016 154.365 84.3585 154.021 84.803C153.317 85.7325 152.298 87.0785 150.988 88.808C148.371 92.3185 144.602 97.374 139.946 103.619C130.675 116.182 117.884 133.515 103.75 152.669C89.6389 171.824 76.8319 189.15 67.4844 201.638C62.8119 207.882 59.0064 212.919 56.3494 216.381C55.0209 218.111 53.9799 219.449 53.2619 220.346C52.5439 221.244 52.1489 221.703 52.1139 221.678C52.0784 221.652 52.4044 221.144 53.0589 220.199C53.7129 219.255 54.6959 217.876 55.9734 216.109C58.5289 212.574 62.2659 207.487 66.9119 201.223C76.2024 188.694 89.1404 171.463 103.458 152.458Z" fill="#EBEBEB"/>
<path d="M99.3599 148.935C116.496 132.335 132.004 117.313 143.244 106.425C148.825 100.966 153.342 96.5475 156.479 93.479C158.022 91.9475 159.223 90.756 160.052 89.933C160.447 89.5315 160.752 89.222 160.97 89.0005C161.174 88.788 161.276 88.676 161.269 88.6695C161.263 88.663 161.148 88.762 160.931 88.962C160.704 89.1755 160.388 89.473 159.977 89.8595C159.135 90.6695 157.916 91.843 156.35 93.351C153.211 96.4175 148.69 100.833 143.106 106.288C131.966 117.276 116.597 132.437 99.6144 149.189C82.6529 165.946 67.2694 181.096 56.0659 191.998C50.4654 197.45 45.9119 201.842 42.7414 204.854C41.1564 206.36 39.9169 207.521 39.0664 208.298C38.2159 209.075 37.7534 209.467 37.7224 209.437C37.6914 209.406 38.0939 208.954 38.8889 208.122C39.6839 207.29 40.8724 206.078 42.4134 204.528C45.4954 201.428 49.9889 196.976 55.5664 191.502C66.7214 180.55 82.2189 165.513 99.3599 148.935Z" fill="#EBEBEB"/>
<path d="M95.8675 144.827C115.413 131.058 133.102 118.598 145.923 109.567C152.296 105.031 157.456 101.358 161.038 98.8085C162.804 97.5325 164.177 96.5395 165.126 95.8535C165.58 95.5175 165.93 95.2585 166.18 95.073C166.416 94.8945 166.534 94.7995 166.528 94.792C166.523 94.7845 166.394 94.865 166.148 95.029C165.89 95.205 165.531 95.4505 165.064 95.769C164.105 96.44 162.716 97.412 160.931 98.6615C157.346 101.209 152.184 104.878 145.808 109.409C133.07 118.556 115.498 131.174 96.08 145.118C76.6825 159.069 59.0965 171.676 46.31 180.727C39.9175 185.254 34.727 188.894 31.12 191.383C29.3165 192.627 27.909 193.584 26.946 194.221C25.983 194.857 25.4645 195.175 25.4385 195.139C25.413 195.104 25.8815 194.719 26.7985 194.018C27.715 193.318 29.08 192.303 30.847 191.009C34.3805 188.42 39.521 184.711 45.8945 180.158C58.6395 171.051 76.3205 158.574 95.8675 144.827Z" fill="#EBEBEB"/>
<path d="M93.0679 140.233C114.557 129.648 134.003 120.069 148.099 113.125C155.113 109.627 160.791 106.796 164.734 104.829C166.68 103.841 168.195 103.072 169.24 102.541C169.742 102.278 170.128 102.077 170.405 101.932C170.666 101.792 170.797 101.716 170.793 101.707C170.788 101.699 170.648 101.758 170.379 101.882C170.097 102.016 169.703 102.203 169.191 102.446C168.138 102.961 166.611 103.706 164.65 104.665C160.705 106.628 155.025 109.456 148.009 112.949C133.978 120.019 114.621 129.773 93.2314 140.552C71.8609 151.342 52.4929 161.083 38.4289 168.051C31.3974 171.536 25.6934 174.331 21.7359 176.233C19.7574 177.184 18.2154 177.912 17.1634 178.392C16.1114 178.873 15.5489 179.105 15.5289 179.067C15.5089 179.028 16.0329 178.72 17.0494 178.169C18.0659 177.619 19.5749 176.827 21.5249 175.82C25.4249 173.807 31.0904 170.937 38.1074 167.423C52.1394 160.393 71.5814 150.796 93.0679 140.233Z" fill="#EBEBEB"/>
<path d="M91.0339 135.262C113.944 128.143 134.676 121.7 149.704 117.031C157.189 114.664 163.248 112.749 167.456 111.419C169.535 110.744 171.153 110.22 172.27 109.857C172.807 109.676 173.221 109.537 173.518 109.437C173.798 109.339 173.94 109.284 173.937 109.275C173.934 109.266 173.786 109.303 173.5 109.384C173.2 109.472 172.781 109.596 172.237 109.756C171.114 110.101 169.488 110.6 167.398 111.242C163.19 112.569 157.129 114.48 149.642 116.841C134.658 121.646 113.987 128.276 91.1439 135.602C68.3184 142.943 47.6379 149.557 32.6374 154.257C25.1374 156.608 19.0589 158.483 14.8469 159.747C12.7409 160.379 11.1024 160.858 9.98688 161.169C8.87088 161.48 8.27838 161.623 8.26488 161.581C8.25138 161.54 8.81788 161.316 9.90938 160.93C11.0009 160.544 12.6174 159.996 14.7039 159.305C18.8769 157.922 24.9294 155.967 32.4194 153.585C47.3984 148.82 68.1294 142.36 91.0339 135.262Z" fill="#EBEBEB"/>
<path d="M89.8179 130.036C113.578 126.56 135.081 123.414 150.666 121.135C158.435 119.96 164.725 119.008 169.092 118.348C171.253 118.005 172.935 117.738 174.096 117.553C174.655 117.458 175.086 117.384 175.395 117.332C175.687 117.279 175.836 117.247 175.834 117.238C175.833 117.229 175.681 117.242 175.386 117.278C175.076 117.319 174.642 117.375 174.079 117.449C172.915 117.616 171.23 117.857 169.064 118.167C164.696 118.824 158.406 119.771 150.636 120.941C135.072 123.361 113.6 126.7 89.8729 130.39C66.1604 134.097 44.6819 137.419 29.1184 139.732C21.3369 140.89 15.0344 141.799 10.6739 142.394C8.49341 142.691 6.79891 142.911 5.64741 143.045C4.49591 143.179 3.88791 143.228 3.88091 143.185C3.87441 143.142 4.46941 143.01 5.60891 142.798C6.74841 142.587 8.43191 142.296 10.6029 141.937C14.9444 141.219 21.2339 140.227 29.0104 139.038C44.5629 136.655 66.0664 133.491 89.8179 130.036Z" fill="#EBEBEB"/>
<path d="M89.4455 124.686C113.465 124.884 135.202 125.064 150.957 125.194C158.817 125.222 165.18 125.245 169.599 125.26C171.788 125.253 173.491 125.246 174.667 125.242C175.234 125.234 175.672 125.227 175.985 125.223C176.282 125.215 176.434 125.207 176.434 125.198C176.434 125.189 176.282 125.18 175.985 125.17C175.672 125.163 175.234 125.153 174.667 125.141C173.491 125.128 171.787 125.109 169.599 125.084C165.18 125.066 158.817 125.039 150.957 125.007C135.201 125.016 113.464 125.029 89.4435 125.043C65.435 125.075 43.6935 125.07 27.9545 124.975C20.085 124.929 13.716 124.863 9.31449 124.784C7.11349 124.745 5.40499 124.703 4.24649 124.66C3.08799 124.617 2.47949 124.573 2.47949 124.531C2.47949 124.488 3.08849 124.449 4.24699 124.415C5.40599 124.381 7.11499 124.352 9.31599 124.33C13.718 124.285 20.0875 124.268 27.957 124.282C43.6975 124.307 65.438 124.47 89.4455 124.686Z" fill="#EBEBEB"/>
<path d="M89.9168 119.34C113.613 123.218 135.057 126.728 150.601 129.272C158.361 130.503 164.643 131.5 169.005 132.192C171.169 132.519 172.853 132.773 174.015 132.949C174.577 133.028 175.01 133.088 175.321 133.132C175.615 133.17 175.767 133.184 175.768 133.175C175.77 133.166 175.621 133.133 175.33 133.078C175.021 133.023 174.591 132.946 174.032 132.846C172.873 132.652 171.193 132.372 169.035 132.012C164.673 131.316 158.392 130.315 150.633 129.078C135.066 126.675 113.59 123.359 89.8588 119.694C66.1363 116.05 44.6593 112.716 29.1268 110.211C21.3598 108.959 15.0788 107.918 10.7433 107.165C8.5753 106.789 6.8943 106.485 5.7563 106.265C4.6183 106.044 4.0248 105.907 4.0313 105.864C4.0383 105.821 4.6463 105.875 5.7963 106.018C6.9468 106.161 8.6398 106.394 10.8173 106.709C15.1728 107.338 21.4678 108.297 29.2398 109.516C44.7848 111.952 66.2353 115.445 89.9168 119.34Z" fill="#EBEBEB"/>
<path d="M91.2325 114.133C114.014 121.644 134.629 128.441 149.573 133.368C157.039 135.789 163.084 137.748 167.282 139.109C169.366 139.768 170.988 140.28 172.108 140.634C172.651 140.799 173.069 140.925 173.368 141.016C173.653 141.099 173.801 141.137 173.804 141.128C173.807 141.119 173.665 141.063 173.386 140.963C173.09 140.861 172.678 140.718 172.142 140.532C171.028 140.161 169.414 139.623 167.341 138.932C163.144 137.568 157.101 135.603 149.637 133.177C134.648 128.386 113.969 121.777 91.1185 114.475C68.2735 107.193 47.5965 100.567 32.658 95.68C25.188 93.238 19.152 91.2335 14.991 89.8165C12.9105 89.108 11.2985 88.5465 10.2105 88.1515C9.12254 87.7565 8.55754 87.5285 8.57154 87.4865C8.58554 87.445 9.17704 87.592 10.2905 87.9115C11.4035 88.231 13.0385 88.724 15.139 89.3725C19.34 90.67 25.403 92.5935 32.8835 95.005C47.844 99.826 68.469 106.608 91.2325 114.133Z" fill="#EBEBEB"/>
<path d="M93.3615 109.201C114.661 120.152 133.936 130.062 147.907 137.246C154.895 140.795 160.551 143.669 164.479 145.664C166.433 146.639 167.953 147.397 169.002 147.92C169.512 148.167 169.904 148.357 170.185 148.494C170.453 148.62 170.592 148.681 170.597 148.672C170.601 148.664 170.47 148.587 170.21 148.445C169.935 148.298 169.55 148.093 169.051 147.827C168.01 147.287 166.502 146.506 164.564 145.502C160.638 143.504 154.983 140.626 147.999 137.071C133.962 130.013 114.596 120.276 93.1965 109.517C71.799 98.7785 52.438 89.0245 38.465 81.8805C31.478 78.31 25.836 75.3945 21.9525 73.35C20.011 72.328 18.5085 71.524 17.4965 70.9655C16.4845 70.407 15.963 70.095 15.983 70.0565C16.003 70.018 16.5635 70.256 17.6115 70.745C18.6595 71.234 20.195 71.9745 22.1655 72.942C26.1065 74.876 31.787 77.7175 38.789 81.26C52.7945 88.342 72.081 98.239 93.3615 109.201Z" fill="#EBEBEB"/>
<path d="M96.2489 104.657C115.551 118.757 133.018 131.517 145.679 140.765C152.018 145.348 157.149 149.059 160.712 151.635C162.487 152.899 163.868 153.882 164.821 154.561C165.286 154.883 165.643 155.132 165.899 155.309C166.144 155.476 166.272 155.557 166.278 155.549C166.283 155.542 166.166 155.446 165.932 155.266C165.683 155.078 165.336 154.816 164.884 154.477C163.941 153.783 162.576 152.779 160.821 151.488C157.26 148.909 152.131 145.196 145.795 140.608C133.049 131.473 115.465 118.871 96.0344 104.945C76.6019 91.0405 59.0249 78.422 46.3564 69.2115C40.0209 64.6075 34.9109 60.858 31.3994 58.24C29.6434 56.931 28.2869 55.905 27.3759 55.198C26.4649 54.4905 25.9994 54.1015 26.0254 54.0665C26.0514 54.0315 26.5674 54.3525 27.5249 54.997C28.4824 55.6415 29.8819 56.61 31.6749 57.869C35.2609 60.387 40.4214 64.069 46.7759 68.647C59.4874 77.8015 76.9679 90.5495 96.2489 104.657Z" fill="#EBEBEB"/>
<path d="M99.8179 100.614C116.661 117.503 131.903 132.787 142.951 143.865C148.49 149.364 152.974 153.817 156.087 156.908C157.641 158.429 158.85 159.612 159.685 160.429C160.093 160.819 160.407 161.119 160.632 161.334C160.847 161.536 160.961 161.635 160.968 161.629C160.974 161.622 160.874 161.509 160.671 161.295C160.454 161.072 160.152 160.76 159.76 160.355C158.938 159.526 157.748 158.324 156.218 156.781C153.106 153.687 148.626 149.232 143.091 143.728C131.941 132.749 116.558 117.603 99.5609 100.866C82.5584 84.1495 67.1854 68.988 56.1234 57.9465C50.5909 52.427 46.1349 47.9395 43.0784 44.815C41.5504 43.2525 40.3719 42.0315 39.5839 41.193C38.7959 40.3545 38.3974 39.899 38.4284 39.8685C38.4594 39.838 38.9184 40.2345 39.7624 41.018C40.6064 41.8015 41.8364 42.973 43.4089 44.4915C46.5544 47.529 51.0709 51.9575 56.6264 57.4545C67.7389 68.4465 82.9964 83.7205 99.8179 100.614Z" fill="#EBEBEB"/>
<path d="M103.981 97.1675C117.956 116.435 130.602 133.87 139.768 146.509C144.372 152.791 148.099 157.877 150.687 161.408C151.983 163.148 152.99 164.503 153.686 165.438C154.028 165.885 154.29 166.23 154.479 166.477C154.66 166.708 154.756 166.825 154.764 166.82C154.771 166.814 154.69 166.687 154.523 166.445C154.345 166.191 154.096 165.836 153.772 165.376C153.091 164.431 152.105 163.061 150.837 161.301C148.251 157.768 144.528 152.68 139.928 146.395C130.646 133.839 117.839 116.518 103.687 97.377C89.5276 78.2565 76.7331 60.922 67.5471 48.318C62.9526 42.017 59.2586 36.9005 56.7326 33.345C55.4696 31.5675 54.4986 30.18 53.8521 29.231C53.2056 28.282 52.8841 27.7705 52.9196 27.7455C52.9551 27.72 53.3461 28.182 54.0566 29.0855C54.7671 29.989 55.7971 31.3345 57.1111 33.076C59.7391 36.5585 63.5026 41.626 68.1231 47.9085C77.3661 60.4705 90.0286 77.8995 103.981 97.1675Z" fill="#EBEBEB"/>
<path d="M108.637 94.403C119.385 115.588 129.111 134.759 136.16 148.656C139.712 155.571 142.587 161.168 144.583 165.056C145.587 166.974 146.368 168.467 146.907 169.498C147.173 169.992 147.378 170.373 147.525 170.646C147.667 170.903 147.744 171.033 147.752 171.029C147.761 171.025 147.7 170.887 147.574 170.621C147.438 170.343 147.248 169.954 147.002 169.45C146.479 168.411 145.722 166.907 144.749 164.973C142.756 161.085 139.885 155.485 136.338 148.567C129.16 134.735 119.256 115.653 108.313 94.5655C97.3583 73.4975 87.4683 54.4035 80.3933 40.5385C76.8548 33.6065 74.0168 27.983 72.0858 24.082C71.1203 22.1315 70.3808 20.6115 69.8933 19.574C69.4058 18.5365 69.1688 17.982 69.2083 17.9625C69.2473 17.943 69.5608 18.459 70.1193 19.461C70.6778 20.463 71.4823 21.9505 72.5038 23.873C74.5478 27.718 77.4613 33.3035 81.0293 40.2205C88.1688 54.0535 97.9123 73.2205 108.637 94.403Z" fill="#EBEBEB"/>
<path d="M113.677 92.3935C120.91 114.982 127.456 135.424 132.201 150.241C134.605 157.62 136.552 163.594 137.903 167.743C138.588 169.793 139.122 171.389 139.49 172.49C139.674 173.02 139.816 173.428 139.917 173.72C140.017 173.996 140.072 174.136 140.081 174.133C140.09 174.13 140.053 173.985 139.971 173.703C139.881 173.407 139.755 172.994 139.593 172.458C139.242 171.351 138.735 169.747 138.082 167.687C136.734 163.537 134.792 157.562 132.394 150.18C127.511 135.407 120.775 115.025 113.331 92.5035C105.873 69.9985 99.1523 49.608 94.3778 34.818C91.9888 27.4235 90.0838 21.4295 88.7993 17.2775C88.1568 15.2015 87.6698 13.5855 87.3538 12.4855C87.0378 11.3855 86.8928 10.801 86.9348 10.7875C86.9768 10.774 87.2038 11.3325 87.5958 12.4085C87.9878 13.4845 88.5443 15.0785 89.2473 17.1355C90.6523 21.2495 92.6393 27.2175 95.0588 34.6025C99.9013 49.3705 106.465 69.8105 113.677 92.3935Z" fill="#EBEBEB"/>
<path d="M118.976 91.1915C122.515 114.621 125.719 135.824 128.04 151.193C129.237 158.854 130.206 165.055 130.878 169.362C131.228 171.493 131.499 173.151 131.687 174.296C131.784 174.847 131.859 175.272 131.912 175.577C131.966 175.865 131.999 176.012 132.008 176.01C132.017 176.009 132.003 175.859 131.967 175.568C131.926 175.262 131.868 174.835 131.792 174.28C131.623 173.132 131.377 171.47 131.061 169.334C130.392 165.027 129.428 158.824 128.237 151.163C125.773 135.816 122.373 114.643 118.616 91.2455C114.843 67.8635 111.46 46.684 109.104 31.3375C107.925 23.6645 107 17.45 106.394 13.15C106.091 11 105.867 9.32902 105.73 8.19352C105.593 7.05802 105.543 6.45852 105.587 6.45202C105.63 6.44552 105.765 7.03202 105.98 8.15602C106.195 9.27952 106.491 10.94 106.856 13.0805C107.587 17.3615 108.597 23.5635 109.808 31.2315C112.235 46.567 115.456 67.771 118.976 91.1915Z" fill="#EBEBEB"/>
<path d="M124.4 90.821C124.214 114.508 124.046 135.944 123.924 151.482C123.9 159.233 123.882 165.508 123.868 169.866C123.878 172.024 123.885 173.704 123.89 174.864C123.899 175.424 123.905 175.855 123.91 176.164C123.918 176.457 123.927 176.607 123.936 176.607C123.945 176.607 123.954 176.457 123.964 176.164C123.971 175.855 123.981 175.424 123.993 174.865C124.006 173.705 124.024 172.025 124.048 169.867C124.063 165.509 124.086 159.235 124.114 151.484C124.094 135.946 124.067 114.509 124.038 90.821C123.99 67.1445 123.982 45.704 124.068 30.1825C124.11 22.4215 124.173 16.141 124.25 11.8005C124.288 9.63 124.329 7.945 124.372 6.8025C124.415 5.66 124.459 5.06 124.503 5.06C124.546 5.06 124.586 5.6605 124.621 6.8035C124.657 7.9465 124.687 9.632 124.711 11.8025C124.759 16.1435 124.78 22.4245 124.771 30.1855C124.755 45.7055 124.604 67.1455 124.4 90.821Z" fill="#EBEBEB"/>
<path d="M129.822 91.283C125.904 114.654 122.359 135.804 119.79 151.134C118.546 158.788 117.54 164.983 116.841 169.286C116.51 171.42 116.254 173.081 116.076 174.227C115.997 174.781 115.936 175.208 115.893 175.514C115.855 175.805 115.84 175.954 115.849 175.956C115.859 175.957 115.892 175.811 115.948 175.523C116.004 175.219 116.082 174.794 116.183 174.243C116.378 173.1 116.661 171.443 117.025 169.315C117.727 165.013 118.739 158.818 119.988 151.165C122.415 135.812 125.764 114.632 129.464 91.226C133.144 67.8295 136.511 46.6475 139.042 31.328C140.306 23.668 141.358 17.473 142.118 13.197C142.498 11.059 142.805 9.40052 143.028 8.27852C143.251 7.15652 143.39 6.57052 143.434 6.57752C143.477 6.58452 143.423 7.18352 143.279 8.31802C143.134 9.45252 142.899 11.122 142.581 13.27C141.946 17.566 140.978 23.774 139.746 31.439C137.284 46.77 133.756 67.9265 129.822 91.283Z" fill="#EBEBEB"/>
<path d="M135.102 92.5765C127.501 115.047 120.622 135.382 115.635 150.122C113.185 157.487 111.202 163.449 109.825 167.589C109.158 169.645 108.639 171.245 108.281 172.35C108.115 172.885 107.987 173.298 107.895 173.594C107.811 173.875 107.772 174.02 107.782 174.023C107.791 174.026 107.848 173.886 107.949 173.611C108.052 173.319 108.197 172.913 108.385 172.384C108.761 171.285 109.305 169.693 110.005 167.648C111.385 163.508 113.373 157.548 115.829 150.185C120.677 135.4 127.365 115.003 134.756 92.4645C142.124 69.931 148.83 49.5355 153.776 34.8005C156.248 27.4325 158.276 21.478 159.711 17.374C160.428 15.3215 160.996 13.732 161.396 12.6585C161.796 11.585 162.027 11.0285 162.069 11.042C162.111 11.0555 161.962 11.639 161.639 12.737C161.315 13.835 160.817 15.4475 160.16 17.5195C158.847 21.6635 156.901 27.644 154.46 35.022C149.582 49.779 142.718 70.123 135.102 92.5765Z" fill="#EBEBEB"/>
<path d="M140.105 94.6725C129.014 115.684 118.978 134.699 111.703 148.482C108.108 155.375 105.197 160.955 103.177 164.83C102.19 166.757 101.422 168.256 100.892 169.291C100.642 169.794 100.45 170.181 100.312 170.458C100.184 170.723 100.122 170.86 100.131 170.864C100.139 170.869 100.217 170.739 100.361 170.483C100.51 170.211 100.717 169.832 100.987 169.339C101.533 168.312 102.324 166.825 103.341 164.913C105.365 161.04 108.279 155.462 111.879 148.571C119.027 134.724 128.888 115.62 139.785 94.5095C150.66 73.401 160.538 54.3015 167.773 40.517C171.389 33.624 174.342 28.0585 176.412 24.2275C177.447 22.312 178.262 20.8295 178.827 19.8315C179.393 18.8335 179.709 18.319 179.748 18.3385C179.787 18.3585 179.546 18.911 179.051 19.945C178.556 20.979 177.806 22.4935 176.826 24.4375C174.867 28.3255 171.99 33.929 168.402 40.8365C161.23 54.6535 151.207 73.6795 140.105 94.6725Z" fill="#EBEBEB"/>
<path d="M144.714 97.517C130.429 116.561 117.501 133.794 108.131 146.286C103.487 152.54 99.7283 157.603 97.1183 161.118C95.8383 162.87 94.8418 164.232 94.1543 165.173C93.8273 165.631 93.5758 165.983 93.3958 166.236C93.2273 166.478 93.1453 166.605 93.1528 166.61C93.1603 166.615 93.2578 166.5 93.4403 166.269C93.6303 166.023 93.8958 165.681 94.2398 165.236C94.9423 164.306 95.9598 162.958 97.2668 161.227C99.8798 157.712 103.642 152.653 108.29 146.402C117.545 133.826 130.313 116.477 144.422 97.306C158.509 78.1335 171.294 60.7915 180.625 48.292C185.29 42.0415 189.089 36.9995 191.741 33.535C193.067 31.8025 194.106 30.464 194.823 29.5655C195.54 28.6665 195.934 28.2075 195.97 28.233C196.005 28.2585 195.68 28.7675 195.027 29.7125C194.374 30.657 193.393 32.038 192.117 33.807C189.566 37.345 185.836 42.4365 181.198 48.706C171.923 61.247 159.008 78.494 144.714 97.517Z" fill="#EBEBEB"/>
<path d="M148.817 101.035C131.702 117.656 116.214 132.697 104.987 143.599C99.4137 149.065 94.9022 153.489 91.7687 156.562C90.2277 158.095 89.0287 159.288 88.2012 160.112C87.8062 160.514 87.5017 160.824 87.2842 161.046C87.0797 161.259 86.9782 161.371 86.9847 161.378C86.9912 161.384 87.1057 161.285 87.3227 161.085C87.5492 160.871 87.8652 160.573 88.2757 160.186C89.1162 159.375 90.3337 158.201 91.8982 156.69C95.0332 153.62 99.5482 149.198 105.125 143.736C116.251 132.734 131.6 117.554 148.561 100.781C165.501 84.003 180.865 68.8335 192.054 57.9175C197.648 52.4585 202.196 48.0605 205.362 45.045C206.946 43.537 208.183 42.3745 209.033 41.5965C209.883 40.8185 210.345 40.4255 210.375 40.456C210.406 40.4865 210.004 40.9395 209.21 41.7725C208.416 42.6055 207.229 43.819 205.69 45.3705C202.612 48.474 198.124 52.9315 192.554 58.413C181.415 69.379 165.936 84.435 148.817 101.035Z" fill="#EBEBEB"/>
<path d="M152.315 105.138C132.786 118.932 115.114 131.414 102.305 140.462C95.9375 145.006 90.783 148.685 87.203 151.239C85.439 152.518 84.0665 153.512 83.119 154.199C82.665 154.536 82.316 154.795 82.0655 154.981C81.8305 155.16 81.7125 155.255 81.718 155.263C81.7235 155.27 81.852 155.19 82.098 155.025C82.3555 154.849 82.7145 154.603 83.181 154.284C84.1395 153.611 85.527 152.638 87.311 151.386C90.8925 148.834 96.0495 145.159 102.42 140.619C115.146 131.457 132.702 118.817 152.102 104.848C171.482 90.872 189.051 78.2435 201.826 69.1765C208.213 64.642 213.399 60.995 217.002 58.502C218.804 57.255 220.21 56.2965 221.172 55.6585C222.134 55.0205 222.653 54.703 222.678 54.738C222.704 54.773 222.236 55.159 221.32 55.86C220.404 56.561 219.04 57.578 217.275 58.8745C213.745 61.4685 208.609 65.183 202.242 69.7435C189.509 78.8675 171.844 91.3665 152.315 105.138Z" fill="#EBEBEB"/>
<path d="M155.121 109.729C133.646 120.341 114.212 129.945 100.125 136.906C93.1159 140.413 87.4414 143.252 83.5009 145.223C81.5564 146.214 80.0429 146.985 78.9984 147.518C78.4969 147.781 78.1109 147.983 77.8344 148.128C77.5734 148.268 77.4419 148.344 77.4464 148.352C77.4509 148.361 77.5904 148.301 77.8594 148.177C78.1414 148.042 78.5354 147.855 79.0469 147.612C80.0999 147.096 81.6254 146.348 83.5854 145.387C87.5274 143.418 93.2039 140.584 100.216 137.082C114.237 129.994 133.581 120.215 154.957 109.409C176.314 98.592 195.669 88.827 209.724 81.841C216.751 78.3465 222.451 75.5445 226.406 73.638C228.383 72.6845 229.924 71.9545 230.976 71.473C232.027 70.9915 232.59 70.758 232.609 70.7965C232.629 70.8355 232.106 71.1445 231.09 71.696C230.075 72.2475 228.567 73.0415 226.618 74.0505C222.72 76.0685 217.058 78.9455 210.046 82.4685C196.023 89.517 176.593 99.138 155.121 109.729Z" fill="#EBEBEB"/>
<path d="M157.161 114.697C134.26 121.845 113.536 128.314 98.514 133.003C91.0325 135.379 84.9755 137.302 80.77 138.637C78.6915 139.314 77.074 139.841 75.9575 140.205C75.4205 140.387 75.007 140.527 74.7105 140.627C74.431 140.725 74.289 140.78 74.292 140.789C74.295 140.798 74.4425 140.761 74.728 140.68C75.028 140.591 75.4465 140.467 75.9905 140.306C77.113 139.96 78.7385 139.458 80.8275 138.814C85.0345 137.482 91.0925 135.563 98.576 133.193C113.554 128.368 134.217 121.712 157.05 114.357C179.866 106.987 200.538 100.346 215.533 95.628C223.03 93.2675 229.106 91.3845 233.316 90.1155C235.421 89.481 237.059 88.999 238.174 88.6865C239.29 88.374 239.882 88.231 239.896 88.2725C239.909 88.314 239.343 88.538 238.252 88.9255C237.161 89.3125 235.545 89.863 233.46 90.557C229.289 91.9455 223.238 93.9085 215.752 96.2995C200.779 101.084 180.056 107.57 157.161 114.697Z" fill="#EBEBEB"/>
<path d="M158.384 119.921C134.628 123.427 113.13 126.6 97.5468 128.899C89.7793 130.084 83.4913 131.044 79.1248 131.71C76.9643 132.056 75.2828 132.325 74.1218 132.511C73.5623 132.607 73.1318 132.681 72.8233 132.734C72.5313 132.788 72.3823 132.82 72.3838 132.829C72.3853 132.838 72.5368 132.824 72.8318 132.788C73.1423 132.747 73.5758 132.69 74.1383 132.615C75.3018 132.447 76.9873 132.204 79.1533 131.891C83.5203 131.228 89.8093 130.273 97.5773 129.094C113.138 126.654 134.606 123.288 158.328 119.568C182.036 115.832 203.51 112.482 219.071 110.149C226.851 108.981 233.152 108.065 237.512 107.465C239.692 107.164 241.386 106.943 242.538 106.807C243.689 106.672 244.297 106.622 244.304 106.665C244.311 106.708 243.716 106.841 242.576 107.054C241.437 107.267 239.754 107.559 237.583 107.921C233.243 108.644 226.954 109.644 219.179 110.843C203.63 113.246 182.13 116.436 158.384 119.921Z" fill="#EBEBEB"/>
<path d="M189.443 185.699C186.614 182.37 182.701 180.366 179.981 179.601C177.435 178.884 173.574 178.231 169.644 179.189C167.203 179.785 165.065 180.935 163.29 182.608C161.187 184.59 159.582 187.323 158.518 190.731C158.359 191.243 158.412 191.784 158.668 192.256C158.925 192.73 159.352 193.072 159.872 193.218L166.549 195.097C167.491 195.362 168.499 194.887 168.893 193.992C169.778 191.982 172.013 188.806 177.034 190.126C180.86 191.134 181.654 194.33 181.818 195.659C182.086 197.82 181.234 200.055 179.541 201.636C176.94 204.065 173.545 203.594 171.753 203.097C169.692 202.525 167.547 203.725 166.971 205.771L164.949 212.956C164.653 214.006 165.267 215.099 166.316 215.395L172.822 217.226C173.871 217.521 174.965 216.908 175.26 215.858L175.685 214.349C175.695 214.313 175.727 214.288 175.765 214.285C177.385 214.183 180.593 213.738 183.886 211.904C188.09 209.563 190.941 205.816 192.362 200.769C194.396 193.547 191.897 188.587 189.443 185.699Z" fill="#E0E0E0"/>
<path d="M169.384 218.21L168.815 218.05C166.095 217.284 163.258 218.875 162.492 221.596C161.727 224.317 163.317 227.153 166.038 227.919L166.607 228.079C169.327 228.845 172.164 227.254 172.93 224.533C173.695 221.812 172.105 218.976 169.384 218.21Z" fill="#E0E0E0"/>
<path d="M203.781 145.905C201.816 144.829 199.575 144.587 198.132 144.718C196.781 144.842 194.813 145.236 193.106 146.415C192.046 147.147 191.233 148.09 190.69 149.217C190.046 150.551 189.778 152.154 189.893 153.98C189.911 154.254 190.035 154.504 190.244 154.683C190.454 154.863 190.722 154.948 190.997 154.923L194.539 154.6C195.039 154.554 195.435 154.142 195.459 153.641C195.515 152.516 196.003 150.586 198.65 150.298C200.667 150.08 201.632 151.464 201.954 152.07C202.478 153.056 202.48 154.283 201.959 155.35C201.159 156.99 199.447 157.386 198.497 157.476C197.406 157.58 196.598 158.548 196.697 159.633L197.045 163.445C197.096 164.002 197.59 164.413 198.147 164.363L201.598 164.047C202.154 163.996 202.566 163.502 202.515 162.946L202.442 162.145C202.44 162.126 202.45 162.108 202.468 162.1C203.225 161.755 204.68 160.953 205.921 159.471C207.505 157.58 208.184 155.264 207.94 152.587C207.59 148.755 205.485 146.838 203.781 145.905Z" fill="#F5F5F5"/>
<path d="M200.132 165.149L199.83 165.176C198.387 165.308 197.32 166.589 197.451 168.033C197.583 169.476 198.864 170.543 200.308 170.411L200.61 170.384C202.053 170.252 203.12 168.971 202.988 167.527C202.856 166.084 201.575 165.017 200.132 165.149Z" fill="#F5F5F5"/>
<path d="M61.9404 64.5355C60.6094 63.224 58.8664 62.5185 57.6789 62.295C56.5669 62.086 54.8974 61.9535 53.2594 62.5105C52.2419 62.8565 51.3744 63.4275 50.6814 64.2075C49.8604 65.1315 49.2799 66.3565 48.9559 67.8485C48.9074 68.0725 48.9504 68.301 49.0774 68.4925C49.2049 68.685 49.3999 68.814 49.6269 68.857L52.5429 69.405C52.9544 69.4825 53.3659 69.242 53.4999 68.8455C53.8009 67.9555 54.6334 66.518 56.8224 66.8905C58.4904 67.1755 58.9494 68.507 59.0699 69.0665C59.2654 69.9775 58.9874 70.9615 58.3259 71.699C57.3094 72.8325 55.8454 72.76 55.0629 72.6155C54.1634 72.45 53.2949 73.042 53.1269 73.936L52.5369 77.0735C52.4509 77.5315 52.7534 77.9745 53.2114 78.0605L56.0524 78.5945C56.5104 78.6805 56.9534 78.378 57.0394 77.92L57.1634 77.261C57.1664 77.245 57.1789 77.2335 57.1949 77.231C57.8809 77.126 59.2309 76.815 60.5644 75.9095C62.2669 74.753 63.3404 73.0495 63.7544 70.8455C64.3474 67.691 63.0954 65.673 61.9404 64.5355Z" fill="#F5F5F5"/>
<path d="M54.6248 79.1445L54.3763 79.098C53.1883 78.8745 52.0398 79.6595 51.8163 80.8475C51.5928 82.0355 52.3778 83.184 53.5658 83.4075L53.8143 83.454C55.0023 83.6775 56.1508 82.8925 56.3743 81.7045C56.5973 80.5165 55.8128 79.368 54.6248 79.1445Z" fill="#F5F5F5"/>
<path d="M198.504 65.5375C196.544 64.454 194.304 64.2025 192.861 64.3285C191.509 64.4465 189.539 64.833 187.828 66.0055C186.765 66.7335 185.949 67.673 185.401 68.7975C184.752 70.1295 184.477 71.731 184.585 73.5585C184.601 73.8325 184.725 74.0825 184.933 74.2625C185.143 74.4435 185.41 74.5295 185.685 74.5055L189.228 74.196C189.728 74.1525 190.125 73.742 190.152 73.241C190.212 72.116 190.708 70.188 193.356 69.9105C195.374 69.7 196.334 71.089 196.653 71.6965C197.173 72.6845 197.17 73.911 196.645 74.976C195.838 76.613 194.125 77.002 193.175 77.0885C192.083 77.188 191.271 78.1525 191.366 79.2385L191.699 83.051C191.748 83.608 192.24 84.021 192.797 83.9725L196.249 83.671C196.806 83.6225 197.219 83.13 197.171 82.573L197.101 81.772C197.099 81.753 197.11 81.735 197.128 81.727C197.886 81.3845 199.344 80.589 200.591 79.1125C202.182 77.2275 202.871 74.9135 202.637 72.2355C202.303 68.403 200.205 66.4775 198.504 65.5375Z" fill="#EBEBEB"/>
<path d="M194.78 84.767L194.478 84.7935C193.034 84.9195 191.962 86.1965 192.088 87.6405C192.214 89.0845 193.491 90.1565 194.935 90.03L195.237 90.0035C196.681 89.8775 197.753 88.6005 197.627 87.1565C197.501 85.713 196.224 84.641 194.78 84.767Z" fill="#EBEBEB"/>
<path d="M91.9778 180.754C89.5243 179.599 86.7978 179.471 85.0648 179.736C83.4413 179.985 81.0918 180.607 79.1163 182.158C77.8893 183.121 76.9763 184.32 76.4028 185.721C75.7233 187.381 75.5173 189.338 75.7913 191.537C75.8323 191.867 76.0013 192.16 76.2673 192.361C76.5343 192.563 76.8638 192.646 77.1948 192.595L81.4513 191.943C82.0518 191.851 82.4993 191.324 82.4928 190.717C82.4773 189.354 82.9253 186.985 86.1023 186.442C88.5238 186.03 89.7928 187.632 90.2268 188.341C90.9328 189.494 91.0253 190.976 90.4743 192.304C89.6278 194.345 87.5878 194.95 86.4473 195.129C85.1358 195.335 84.2313 196.564 84.4308 197.869L85.1323 202.449C85.2348 203.118 85.8623 203.578 86.5313 203.476L90.6783 202.841C91.3473 202.739 91.8078 202.111 91.7058 201.442L91.5583 200.48C91.5548 200.457 91.5663 200.434 91.5873 200.423C92.4763 199.95 94.1753 198.874 95.5658 196.992C97.3408 194.59 97.9908 191.74 97.4983 188.523C96.7918 183.918 94.1063 181.757 91.9778 180.754Z" fill="#EBEBEB"/>
<path d="M88.9864 204.279L88.6234 204.335C86.8889 204.6 85.6939 206.228 85.9599 207.962C86.2259 209.696 87.8529 210.891 89.5869 210.625L89.9499 210.57C91.6844 210.304 92.8794 208.677 92.6134 206.943C92.3479 205.209 90.7204 204.014 88.9864 204.279Z" fill="#EBEBEB"/>
<path d="M54.654 94.082C51.204 92.465 47.3735 92.2915 44.9385 92.669C42.6585 93.0225 39.3585 93.902 36.587 96.0855C34.8655 97.442 33.586 99.1285 32.7835 101.099C31.833 103.433 31.549 106.183 31.939 109.272C31.9975 109.736 32.2355 110.146 32.6095 110.428C32.985 110.711 33.448 110.827 33.913 110.755L39.8915 109.829C40.735 109.698 41.3625 108.956 41.3515 108.103C41.326 106.187 41.9495 102.858 46.4115 102.088C49.8125 101.502 51.5995 103.751 52.211 104.745C53.206 106.364 53.3395 108.445 52.569 110.313C51.3845 113.182 48.5205 114.037 46.918 114.292C45.0755 114.584 43.808 116.313 44.092 118.146L45.089 124.579C45.2345 125.519 46.1175 126.165 47.057 126.019L52.882 125.117C53.8215 124.971 54.4675 124.088 54.322 123.149L54.1125 121.797C54.1075 121.765 54.1235 121.734 54.153 121.718C55.401 121.05 57.785 119.535 59.734 116.888C62.222 113.508 63.128 109.503 62.428 104.984C61.4255 98.515 57.647 95.485 54.654 94.082Z" fill="#EBEBEB"/>
<path d="M50.51 127.141L50.0005 127.22C47.5645 127.598 45.8895 129.887 46.267 132.323C46.6445 134.759 48.9335 136.434 51.3695 136.056L51.879 135.977C54.315 135.6 55.99 133.311 55.6125 130.875C55.235 128.439 52.946 126.764 50.51 127.141Z" fill="#EBEBEB"/>
<path d="M138.859 53.3345L143.366 54.0855C145.581 56.7335 148.614 58.76 152.251 59.728C160.83 62.011 169.907 57.3005 172.996 48.978C176.565 39.3615 171.114 28.742 161.126 26.091C152.646 23.8405 143.674 28.408 140.493 36.584C138.915 40.6415 138.961 44.891 140.283 48.658L140.278 48.65L138.859 53.3345Z" fill="white"/>
<path d="M138.859 53.3345C138.859 53.3345 138.882 53.2365 138.939 53.0365C139 52.826 139.086 52.528 139.197 52.141C139.434 51.334 139.779 50.157 140.226 48.635L140.257 48.5295L140.32 48.62L140.325 48.628L140.232 48.6755C139.512 46.6405 138.899 43.7375 139.411 40.313C139.659 38.609 140.206 36.8055 141.087 35.0165C141.982 33.2365 143.258 31.4985 144.909 29.9915C146.564 28.4935 148.6 27.241 150.903 26.425C153.2 25.614 155.772 25.2085 158.385 25.488C160.992 25.7445 163.623 26.613 165.98 28.066C168.349 29.5055 170.371 31.6145 171.82 34.1065C172.586 35.3515 173.097 36.7165 173.534 38.077C173.634 38.4205 173.698 38.7725 173.782 39.1185C173.85 39.4675 173.963 39.8075 173.993 40.1615C174.035 40.513 174.078 40.8635 174.12 41.213L174.181 41.7365L174.189 42.262C174.291 45.062 173.693 47.796 172.606 50.207C171.528 52.632 169.857 54.6645 167.98 56.2495C166.092 57.8345 163.96 58.958 161.812 59.6245C159.66 60.284 157.5 60.497 155.502 60.3605C155.005 60.3025 154.516 60.2455 154.035 60.1895C153.556 60.122 153.095 59.9955 152.638 59.904C151.725 59.706 150.873 59.406 150.074 59.0835C146.866 57.766 144.69 55.7595 143.326 54.119L143.357 54.1365C141.905 53.8815 140.777 53.6835 140.002 53.547C139.631 53.48 139.346 53.4285 139.143 53.392C138.951 53.356 138.859 53.3345 138.859 53.3345C138.859 53.3345 138.967 53.3465 139.165 53.376C139.372 53.4075 139.663 53.452 140.04 53.51C140.811 53.6315 141.931 53.808 143.374 54.035L143.392 54.038L143.405 54.053C144.779 55.6695 146.952 57.6425 150.137 58.9295C150.93 59.2445 151.775 59.5375 152.68 59.729C153.133 59.817 153.589 59.9405 154.063 60.005C154.539 60.0585 155.023 60.1125 155.515 60.168C157.491 60.2945 159.624 60.076 161.748 59.418C163.867 58.753 165.97 57.638 167.828 56.0695C169.677 54.5015 171.321 52.495 172.38 50.1035C173.447 47.7255 174.034 45.03 173.931 42.272L173.923 41.754L173.863 41.238C173.821 40.894 173.779 40.5485 173.737 40.2025C173.708 39.854 173.595 39.519 173.528 39.1755C173.445 38.835 173.382 38.488 173.284 38.1495C172.852 36.8095 172.349 35.465 171.594 34.2385C170.167 31.7835 168.176 29.705 165.843 28.2855C163.522 26.8525 160.929 25.9935 158.36 25.737C155.786 25.4575 153.249 25.853 150.981 26.648C148.707 27.448 146.694 28.679 145.054 30.1535C143.42 31.637 142.153 33.3495 141.26 35.1055C140.382 36.8705 139.832 38.6535 139.577 40.3395C139.051 43.7275 139.637 46.6115 140.331 48.6415L140.458 49.012L140.238 48.689L140.232 48.681L140.326 48.6665C139.858 50.1675 139.496 51.328 139.248 52.1235C139.124 52.5135 139.03 52.8125 138.962 53.0245C138.898 53.2265 138.859 53.3345 138.859 53.3345Z" fill="#263238"/>
<path d="M160.381 34.887C159.047 34.003 157.467 33.696 156.432 33.703C155.464 33.7095 154.039 33.872 152.754 34.6085C151.955 35.066 151.32 35.688 150.866 36.457C150.327 37.368 150.04 38.4925 150.013 39.7995C150.009 39.9955 150.082 40.1805 150.22 40.3205C150.359 40.461 150.544 40.538 150.742 40.5365L153.282 40.519C153.64 40.5165 153.946 40.247 153.994 39.892C154.101 39.0945 154.565 37.7505 156.466 37.7045C157.914 37.6705 158.518 38.714 158.711 39.1645C159.025 39.898 158.953 40.7705 158.518 41.499C157.849 42.618 156.607 42.797 155.926 42.804C155.143 42.812 154.51 43.4525 154.516 44.231L154.534 46.9645C154.537 47.3635 154.864 47.686 155.263 47.6835L157.738 47.6665C158.137 47.664 158.46 47.337 158.457 46.9375L158.453 46.363C158.453 46.349 158.462 46.337 158.475 46.3325C159.034 46.132 160.117 45.6495 161.09 44.6695C162.331 43.4185 162.953 41.811 162.94 39.891C162.92 37.1445 161.537 35.6535 160.381 34.887Z" fill="#FF725E"/>
<path d="M156.627 48.363L156.41 48.3645C155.375 48.3715 154.539 49.2195 154.546 50.2545C154.553 51.2895 155.401 52.126 156.436 52.119L156.652 52.1175C157.687 52.1105 158.524 51.2625 158.517 50.2275C158.51 49.1925 157.662 48.356 156.627 48.363Z" fill="#FF725E"/>
<path d="M163.524 75.8735C151.719 67.933 137.682 65.104 128.483 65.104C119.867 65.104 107.188 66.463 95.7122 72.936C88.5852 76.9565 82.8987 82.449 78.8102 89.2615C73.9677 97.3305 71.3467 107.315 71.0202 118.937C70.9712 120.681 71.6152 122.331 72.8342 123.584C74.0587 124.844 75.7002 125.537 77.4572 125.537H100.048C103.235 125.537 105.976 123.159 106.421 120.005C107.423 112.921 111.628 100.993 128.533 100.702C141.412 100.481 146.726 109.804 148.413 113.823C151.158 120.364 150.462 128.12 146.55 134.571C140.538 144.482 129.48 146 123.423 146.022C116.458 146.047 110.791 151.702 110.791 158.626V182.935C110.791 186.485 113.679 189.373 117.229 189.373H139.239C142.789 189.373 145.677 186.485 145.677 182.935V177.828C145.677 177.705 145.754 177.599 145.872 177.558C150.858 175.808 160.522 171.581 169.227 162.926C180.34 151.878 185.975 137.617 185.975 120.542C185.975 96.1035 173.766 82.7625 163.524 75.8735Z" fill="#FF725E"/>
<path d="M127.681 200.713H129.457C138.198 200.713 145.31 207.824 145.31 216.565C145.31 225.306 138.198 232.418 129.457 232.418H127.681C118.94 232.418 111.828 225.306 111.828 216.565C111.828 207.824 118.94 200.713 127.681 200.713Z" fill="#263238"/>
<path d="M117.145 194.073H139.146C142.694 194.073 145.581 191.277 145.581 187.839V177.901C145.581 177.782 145.658 177.679 145.776 177.639C148.376 176.755 152.015 175.135 156.131 172.604C142.074 172.506 116.452 172.362 110.709 172.572V187.839C110.709 191.277 113.596 194.073 117.145 194.073Z" fill="#263238"/>
<path d="M135.266 83.9505L121.147 42.95C118.166 32.684 109.706 25.8625 99.5268 29.1275L98.6038 29.484C89.3143 33.073 84.3338 43.192 87.1648 52.74C89.7983 61.6235 92.8223 71.405 94.6653 76.005C98.4803 85.5275 108.468 82.8545 108.468 82.8545C108.49 82.847 110.691 89.2015 111.653 92.054L116.824 97.1635L118.96 94.83L135.266 83.9505Z" fill="#FFBF9D"/>
<path d="M108.467 82.8545C108.467 82.8545 114.634 80.8785 119.502 74.358C119.502 74.358 119.284 82.7095 109.403 85.5365L108.467 82.8545Z" fill="#FF9A6C"/>
<path d="M94.0719 59.2145C94.3249 59.946 95.1534 60.3345 95.9219 60.084C96.6889 59.834 97.1074 59.0395 96.8544 58.308C96.6014 57.5765 95.7729 57.187 95.0054 57.437C94.2369 57.687 93.8189 58.483 94.0719 59.2145Z" fill="#263238"/>
<path d="M90.6746 55.7156C90.9126 55.8281 91.6516 54.6621 93.1241 54.0981C94.5861 53.5131 95.9576 53.8531 96.0471 53.6111C96.0946 53.5011 95.7981 53.2461 95.1961 53.0856C94.6021 52.9241 93.6851 52.8971 92.7706 53.2551C91.8566 53.6141 91.2166 54.2486 90.9071 54.7651C90.5891 55.2866 90.5601 55.6681 90.6746 55.7156Z" fill="#263238"/>
<path d="M106.366 54.3396C106.605 54.4521 107.346 53.2861 108.816 52.7221C110.278 52.1376 111.65 52.4771 111.74 52.2351C111.787 52.1251 111.492 51.8701 110.888 51.7101C110.294 51.5481 109.377 51.5216 108.463 51.8791C107.549 52.2386 106.909 52.8731 106.599 53.3891C106.282 53.9106 106.253 54.2921 106.366 54.3396Z" fill="#263238"/>
<path d="M104.309 63.8241C104.284 63.7381 103.309 63.9331 101.755 64.3156C101.364 64.4221 100.98 64.4851 100.818 64.2531C100.625 64.0161 100.625 63.5506 100.638 63.0431C100.64 61.9981 100.642 60.9026 100.644 59.7551C100.613 55.0886 100.436 51.3106 100.248 51.3131C100.06 51.3166 99.933 55.1005 99.9635 59.767C99.9805 60.9145 99.995 62.0081 100.011 63.0541C100.034 63.5356 99.9765 64.114 100.385 64.603C100.595 64.8445 100.949 64.9416 101.215 64.9136C101.484 64.894 101.697 64.8165 101.887 64.756C103.409 64.2605 104.336 63.9101 104.309 63.8241Z" fill="#263238"/>
<path d="M102.966 46.0725C103.311 46.3705 104.585 45.4245 106.307 44.7165C108.016 43.973 109.582 43.7175 109.608 43.2625C109.614 43.0485 109.19 42.8235 108.461 42.756C107.738 42.686 106.713 42.808 105.684 43.2425C104.656 43.6785 103.855 44.329 103.401 44.897C102.942 45.467 102.808 45.9275 102.966 46.0725Z" fill="#263238"/>
<path d="M88.9364 51.4186C89.3679 51.6406 90.4429 50.8476 91.8849 50.2966C93.3099 49.7031 94.6419 49.5351 94.7944 49.0791C94.8549 48.8631 94.5379 48.5981 93.8849 48.4776C93.2399 48.3556 92.2614 48.4231 91.2759 48.8156C90.2909 49.2096 89.5414 49.8326 89.1649 50.3621C88.7809 50.8966 88.7404 51.3046 88.9364 51.4186Z" fill="#263238"/>
<path d="M122.945 49.873C123.081 49.7395 128.768 45.3885 131.087 52.0105C133.405 58.6325 126.279 59.594 126.2 59.4085C126.123 59.2225 122.945 49.873 122.945 49.873Z" fill="#FFBF9D"/>
<path d="M127.346 56.1916C127.367 56.1601 127.489 56.2316 127.716 56.2531C127.936 56.2736 128.284 56.2191 128.584 55.9686C129.194 55.4671 129.394 54.1501 129.008 52.9451C128.814 52.3366 128.487 51.8071 128.107 51.4066C127.735 50.9931 127.304 50.7641 126.929 50.8251C126.55 50.8671 126.375 51.1651 126.359 51.3796C126.335 51.5956 126.424 51.7131 126.392 51.7371C126.38 51.7601 126.211 51.6756 126.169 51.3836C126.15 51.2421 126.173 51.0591 126.284 50.8776C126.398 50.6926 126.608 50.5451 126.863 50.4856C127.386 50.3421 128.01 50.6511 128.427 51.0901C128.873 51.5221 129.255 52.1126 129.473 52.7961C129.898 54.1451 129.652 55.6331 128.792 56.2451C128.368 56.5301 127.931 56.5251 127.675 56.4391C127.413 56.3471 127.327 56.2116 127.346 56.1916Z" fill="#FF9A6C"/>
<path d="M109.308 63.1565C109.074 63.22 109.583 64.7485 108.638 66.2705C107.696 67.7955 106.01 68.1685 106.07 68.3865C106.081 68.4895 106.532 68.562 107.226 68.3505C107.908 68.148 108.82 67.602 109.398 66.671C109.973 65.7385 110.019 64.7365 109.862 64.0925C109.706 63.4345 109.409 63.113 109.308 63.1565Z" fill="#263238"/>
<path d="M70.6298 48.0895C70.5978 47.663 70.7683 47.242 71.0438 46.9145C71.6443 46.1995 72.5383 45.9515 73.3773 45.6405C75.4653 44.867 77.3588 43.596 78.8963 41.986C78.1273 41.885 77.3758 41.698 76.6758 41.3635C75.2303 40.6735 74.0398 39.256 74.0258 37.6545C74.0233 37.354 74.0803 37.018 74.3218 36.839C74.7053 36.5555 75.2303 36.845 75.6478 37.0745C77.0213 37.8285 78.0983 37.9805 79.5163 37.314C80.3968 36.9 81.2093 36.3835 81.7698 35.6835C81.7878 35.6435 81.8018 35.6015 81.8203 35.562C82.0393 35.0855 82.2558 34.628 82.4713 34.1835C82.4713 34.182 82.4723 34.181 82.4723 34.1795L82.4718 34.182C84.0913 30.8355 85.6293 28.3705 87.5213 26.7065C90.2938 24.2675 95.5113 21.8365 99.1913 21.5335C102.872 21.2305 106.86 22.8975 108.544 26.1835C109.871 23.9205 112.712 22.935 115.339 23.049L115.388 23.0035C118.272 23.014 120.682 25.2085 122.359 27.555C122.45 27.6835 122.537 27.8155 122.627 27.9455C123.977 29.014 125.569 29.7755 127.262 30.0985C127.56 30.1555 127.906 30.232 128.037 30.5065C128.166 30.7785 128.01 31.0965 127.837 31.3435C127.378 32 126.764 32.541 126.067 32.936C126.52 33.4745 127.008 33.981 127.551 34.4375C128.013 34.8255 128.563 35.291 128.49 35.8895C128.434 36.3525 127.99 36.691 127.532 36.781C127.075 36.8705 126.604 36.7655 126.149 36.6615C126.676 37.245 127.203 37.829 127.73 38.4125C126.86 38.9005 125.873 39.1645 124.877 39.2085C125.193 41.844 126.379 46.514 126.333 48.392C124.588 49.0415 124.094 49.001 123.311 49.6075C122.299 50.3915 123.451 52.266 121.757 52.215C120.894 52.189 118.715 49.7225 118.188 49.0385C114.695 44.501 112.198 39.2015 110.917 33.6205C109.457 32.863 107.85 32.39 106.212 32.235L106.363 32.298C103.326 32.3115 99.9398 32.4655 97.8203 34.6405C96.1763 36.3275 95.7338 38.8065 94.8258 40.98C93.1053 45.0995 90.4988 47.8925 86.3558 49.556C87.0058 52.611 88.5768 57.4285 89.3948 60.205L85.1443 55.5685L85.1503 55.591C84.8493 55.3375 84.5808 55.07 84.3168 54.8L84.2308 54.72L84.2268 54.7075C83.8058 54.273 83.3958 53.8335 82.9138 53.427C82.9078 53.438 82.9018 53.4485 82.8958 53.4595C81.8778 55.283 78.9993 54.0575 79.6048 52.0585C79.7248 51.662 79.9023 51.284 80.1368 50.9405C79.6853 51.812 78.7853 52.4705 77.8043 52.5105C76.8233 52.5505 75.8208 51.8965 75.5728 50.9465C75.4033 50.298 75.6553 49.5765 76.1363 49.127C74.9758 49.639 73.6638 49.8095 72.4148 49.5825C71.5953 49.433 70.7008 49.029 70.6298 48.0895Z" fill="#263238"/>
<path d="M105.888 28.369C105.877 28.401 106.384 28.482 107.172 28.915C107.954 29.347 108.969 30.221 109.792 31.607C110.205 32.294 110.593 33.089 110.906 33.981C111.224 34.8715 111.489 35.852 111.776 36.8825C112.065 37.912 112.368 39.0005 112.822 40.084C113.049 40.6245 113.314 41.163 113.631 41.6825C113.947 42.191 114.303 42.739 114.887 43.067C115.355 43.3365 115.97 43.313 116.416 43.045C116.87 42.789 117.209 42.3795 117.401 41.917C117.768 40.9705 117.598 39.993 117.466 39.126L117.272 39.222C117.861 39.8355 118.457 40.4375 119.165 40.836C119.866 41.241 120.689 41.382 121.41 41.198C121.77 41.1065 122.101 40.9275 122.347 40.6715C122.6 40.4155 122.733 40.0845 122.79 39.764C122.839 39.441 122.81 39.1155 122.693 38.833C122.576 38.5515 122.367 38.318 122.117 38.1895L122.046 38.3175C123.093 38.905 124.042 39.0845 124.677 39.1455C124.997 39.1755 125.243 39.1735 125.41 39.169C125.576 39.1605 125.661 39.1515 125.661 39.145C125.66 39.1375 125.574 39.1335 125.41 39.1285C125.245 39.1205 125 39.109 124.685 39.0675C124.061 38.9835 123.132 38.7835 122.119 38.1915L122.049 38.319C122.496 38.5495 122.729 39.149 122.62 39.7355C122.564 40.026 122.44 40.3225 122.215 40.543C121.994 40.768 121.692 40.9295 121.362 41.0095C120.698 41.172 119.929 41.038 119.27 40.6505C118.599 40.2675 118.021 39.681 117.435 39.065L117.187 38.8035L117.241 39.1615C117.372 40.028 117.519 40.9715 117.181 41.8275C117.01 42.242 116.697 42.6135 116.3 42.8365C115.904 43.068 115.407 43.086 115.001 42.8565C114.492 42.5745 114.144 42.0595 113.834 41.5585C113.524 41.052 113.263 40.5255 113.039 39.994C112.589 38.93 112.283 37.85 111.989 36.8235C111.697 35.795 111.424 34.813 111.093 33.914C110.767 33.014 110.365 32.211 109.936 31.5185C109.082 30.122 108.026 29.247 107.217 28.834C106.4 28.418 105.888 28.369 105.888 28.369Z" fill="#455A64"/>
<path d="M79.2481 48.3495C79.2466 48.353 79.2811 48.3665 79.3491 48.388C79.4311 48.4125 79.5311 48.4425 79.6531 48.479C79.7866 48.521 79.9536 48.566 80.1561 48.5975C80.3571 48.6345 80.5886 48.684 80.8546 48.7C81.9046 48.8105 83.4966 48.727 85.2631 47.985C87.0141 47.255 88.9351 45.867 90.3476 43.767C91.7926 41.694 92.7681 39.046 93.3296 36.21C93.6211 34.789 93.7711 33.3845 94.0131 32.0515C94.2506 30.719 94.5831 29.4475 95.1386 28.3405C95.6826 27.2325 96.4356 26.2905 97.3326 25.6635C97.7761 25.3415 98.2641 25.132 98.7446 24.9755C99.2311 24.8325 99.7181 24.7695 100.183 24.7595C101.117 24.7455 101.953 24.9695 102.631 25.264C103.312 25.562 103.834 25.9465 104.223 26.2965C104.977 27.0315 105.203 27.5945 105.235 27.5725C105.239 27.5705 105.224 27.5375 105.191 27.4735C105.15 27.3975 105.101 27.3055 105.041 27.193C104.902 26.9505 104.658 26.614 104.288 26.229C103.902 25.862 103.377 25.458 102.685 25.141C101.997 24.828 101.143 24.586 100.181 24.5895C99.7016 24.5945 99.1981 24.654 98.6916 24.7975C98.1921 24.954 97.6791 25.1705 97.2181 25.5C96.2831 26.1425 95.5021 27.111 94.9401 28.2415C94.3656 29.3725 94.0236 30.6675 93.7816 32.0095C93.5351 33.3535 93.3831 34.755 93.0941 36.163C92.5371 38.978 91.5776 41.594 90.1651 43.6415C88.7836 45.7165 86.9131 47.088 85.1966 47.829C83.4671 48.579 81.9031 48.6875 80.8626 48.607C79.8131 48.5225 79.2556 48.3155 79.2481 48.3495Z" fill="#455A64"/>
<path d="M76.8672 44.404C76.8642 44.4205 77.0177 44.462 77.2997 44.5235C77.5807 44.59 77.9967 44.648 78.5122 44.6835C79.0282 44.723 79.6472 44.7121 80.3292 44.6446C81.0097 44.5651 81.7527 44.422 82.5087 44.1871C83.2627 43.9436 83.9522 43.6325 84.5547 43.306C85.1512 42.968 85.6632 42.6215 86.0627 42.292C86.4637 41.966 86.7702 41.6796 86.9617 41.4631C87.1572 41.2501 87.2587 41.1281 87.2467 41.1166C87.2142 41.0846 86.7762 41.5486 85.9587 42.1576C85.5522 42.4656 85.0397 42.791 84.4487 43.1115C83.8522 43.421 83.1742 43.7196 82.4352 43.9581C81.6942 44.1881 80.9682 44.3345 80.3022 44.425C79.6347 44.503 79.0277 44.5315 78.5187 44.514C77.5002 44.4865 76.8752 44.3595 76.8672 44.404Z" fill="#455A64"/>
<path d="M95.0008 113.713C94.9143 113.738 96.0477 119.414 97.1577 125.302H97.5088C96.3988 119.414 95.0878 113.688 95.0008 113.713Z" fill="#263238"/>
<path d="M99.7912 125.586C103 125.586 105.954 123.274 106.403 120.125C107.411 113.051 111.448 101.078 128.465 100.787C141.428 100.566 146.884 109.742 148.413 113.823C150.839 120.301 150.538 128.165 146.6 134.607C140.549 144.503 129.417 146.018 123.321 146.041C116.31 146.066 110.606 151.712 110.606 158.627V185.058L145.723 184.398V177.8C145.723 177.678 145.8 177.572 145.919 177.531C150.196 176.042 156.978 173.219 164.609 167.066L162.323 136.626C162.323 136.626 169.006 123.781 168.675 120.891C165.649 94.4895 156.67 79.5505 153.021 78.157C148.923 76.593 133.103 77.3545 133.103 77.3545C133.103 77.3545 126.271 90.014 116.685 91.4165C111.352 92.197 109.404 85.5365 109.404 85.5365L97.0147 92.8C88.1972 97.2475 86.4862 114.552 86.3242 125.586H99.7912Z" fill="#455A64"/>
<g opacity="0.3">
<path d="M140.488 141.138C147.566 142.94 154.545 145.219 161.623 147.021C162.148 147.155 162.708 147.309 163.062 147.719C163.583 148.323 163.466 149.239 163.233 150.001C162.488 152.435 160.882 154.538 158.971 156.217C157.431 157.57 155.586 158.712 153.542 158.872C151.266 159.049 149.078 157.994 147.153 156.766C142.232 153.625 138.033 149.036 135.394 143.829C135.394 143.829 137.053 143.146 138.323 142.467C139.503 141.836 140.488 141.138 140.488 141.138Z" fill="black"/>
</g>
<path d="M148.268 114.006C151.098 120.537 150.38 128.282 146.347 134.724C144.109 138.299 141.259 140.851 138.15 142.563C141.498 146.205 144.897 149.414 148.256 151.798C151.872 154.364 160.205 153.634 163.364 148.018C167.262 141.088 167.588 123.384 167.588 123.384C168.329 112.711 168.329 112.711 168.329 112.711L146.53 109.372L146.355 109.969C147.29 111.371 147.841 113.022 148.268 114.006Z" fill="#FFBF9D"/>
<path d="M110.31 109.521L109.069 111.477C108.126 112.128 107.228 111.771 106.645 110.561L93.2256 90.1365L96.4946 88.0575L111.316 107.644C111.316 107.644 111.525 108.683 110.31 109.521Z" fill="#455A64"/>
<path d="M79.3074 89.786C76.6804 88.3035 74.4769 86.017 73.1134 83.0785C71.4339 79.4595 71.2644 75.4025 72.6364 71.6555C74.0084 67.9085 76.7569 64.92 80.3769 63.2405C87.8484 59.7735 96.7479 63.0315 100.215 70.5035C101.895 74.123 102.064 78.18 100.692 81.927C99.3204 85.674 96.5719 88.662 92.9524 90.342C88.4189 92.445 83.3594 92.073 79.3074 89.786ZM93.5289 64.6665C89.7479 62.5325 85.0279 62.1855 80.7979 64.148C77.4209 65.715 74.8559 68.5035 73.5759 71.9995C72.2959 75.4955 72.4539 79.281 74.0209 82.658C75.5879 86.0355 78.3759 88.6 81.8724 89.88C85.3684 91.16 89.1534 91.002 92.5309 89.435C95.9079 87.868 98.4729 85.0795 99.7524 81.5835C101.033 78.0875 100.874 74.3025 99.3074 70.925C98.0359 68.1835 95.9794 66.0495 93.5289 64.6665Z" fill="#263238"/>
<path d="M79.9441 89.1595C77.3171 87.677 75.1136 85.3905 73.7501 82.452C72.0706 78.833 71.9011 74.776 73.2731 71.029C74.6451 67.282 77.3936 64.2935 81.0136 62.614C88.4851 59.147 97.3846 62.405 100.852 69.8775C102.532 73.497 102.701 77.554 101.329 81.301C99.9576 85.048 97.2086 88.0365 93.5891 89.716C89.0551 91.8185 83.9956 91.4465 79.9441 89.1595ZM94.1651 64.0395C90.3841 61.9055 85.6641 61.5585 81.4341 63.521C78.0571 65.088 75.4921 67.8765 74.2121 71.3725C72.9321 74.8685 73.0901 78.654 74.6571 82.031C76.2241 85.4085 79.0121 87.973 82.5086 89.253C86.0046 90.533 89.7896 90.375 93.1671 88.808C96.5441 87.241 99.1091 84.4525 100.389 80.9565C101.669 77.4605 101.511 73.675 99.9436 70.298C98.6721 67.5565 96.6161 65.4225 94.1651 64.0395Z" fill="#455A64"/>
<path d="M99.7251 76.374C99.7196 76.374 99.7146 76.289 99.7096 76.1285C99.6976 75.968 99.7166 75.731 99.6811 75.428C99.6471 74.8205 99.5111 73.944 99.1861 72.907C99.0266 72.3875 98.8001 71.836 98.5321 71.256C98.2421 70.6875 97.9231 70.0815 97.5106 69.4925C97.1081 68.8985 96.6456 68.2995 96.1076 67.7325C95.5736 67.1635 94.9821 66.6065 94.3146 66.1155C93.6506 65.621 92.9521 65.209 92.2466 64.874C91.5371 64.5465 90.8221 64.303 90.1296 64.1165C88.7366 63.766 87.4321 63.6695 86.3476 63.733C85.2621 63.793 84.3926 63.964 83.8061 64.1275C83.5086 64.1945 83.2881 64.283 83.1326 64.3235C82.9786 64.3695 82.8966 64.3915 82.8946 64.386C82.8926 64.381 82.9706 64.349 83.1216 64.293C83.2741 64.2425 83.4926 64.144 83.7891 64.0675C84.3731 63.885 85.2461 63.6955 86.3411 63.62C87.4351 63.5415 88.7546 63.6265 90.1661 63.9735C90.8681 64.1585 91.5936 64.402 92.3131 64.732C93.0286 65.0695 93.7381 65.4865 94.4111 65.9875C95.0866 66.4845 95.6846 67.049 96.2226 67.626C96.7651 68.2005 97.2301 68.8075 97.6336 69.4105C98.0471 70.0075 98.3651 70.622 98.6526 71.199C98.9181 71.787 99.1406 72.3465 99.2951 72.8735C99.6091 73.925 99.7291 74.8125 99.7441 75.4245C99.7706 75.73 99.7411 75.9685 99.7426 76.1295C99.7361 76.29 99.7306 76.374 99.7251 76.374Z" fill="white"/>
<path d="M84.1377 88.534C84.1482 88.497 84.8303 88.751 85.9808 88.908C86.1253 88.9255 86.2762 88.9435 86.4327 88.9625C86.5897 88.98 86.7552 88.9805 86.9252 88.991C87.2652 89.0185 87.6297 89.0005 88.0122 88.993C88.7767 88.9475 89.6133 88.8315 90.4688 88.607C91.3218 88.371 92.1032 88.0505 92.7872 87.706C93.1217 87.52 93.4458 87.3525 93.7263 87.158C93.8678 87.0635 94.0107 86.9805 94.1377 86.886C94.2638 86.791 94.3848 86.6995 94.5013 86.612C95.4168 85.898 95.8792 85.336 95.9067 85.3625C95.9152 85.3695 95.7992 85.5075 95.5812 85.752C95.4742 85.8765 95.3388 86.0235 95.1648 86.1785C94.9933 86.335 94.8072 86.526 94.5717 86.701C94.4562 86.7925 94.3357 86.8875 94.2107 86.9865C94.0842 87.0845 93.9418 87.1715 93.7998 87.2695C93.5193 87.4715 93.1937 87.6455 92.8562 87.8375C92.1672 88.194 91.3757 88.5235 90.5112 88.7625C89.6437 88.9905 88.7942 89.103 88.0197 89.141C87.6317 89.1445 87.2627 89.1575 86.9187 89.124C86.7467 89.1105 86.5802 89.107 86.4212 89.086C86.2632 89.0635 86.1113 89.0415 85.9658 89.0205C85.6743 88.988 85.4177 88.916 85.1902 88.8665C84.9622 88.82 84.7707 88.761 84.6157 88.707C84.3037 88.6055 84.1342 88.5445 84.1377 88.534Z" fill="white"/>
<path d="M94.4154 78.9665C94.3839 78.9975 92.4364 77.048 90.0669 74.6135C87.6964 72.178 85.8009 70.1795 85.8324 70.1485C85.8639 70.1175 87.8109 72.0665 90.1814 74.502C92.5514 76.9365 94.4469 78.936 94.4154 78.9665Z" fill="white"/>
<path d="M92.1162 82.8795C92.1122 82.883 92.0632 82.8355 91.9742 82.741C91.8752 82.633 91.7482 82.495 91.5912 82.3235C91.2492 81.9425 90.7767 81.417 90.1987 80.774C89.0247 79.4645 87.3977 77.6605 85.5792 75.6875C83.7597 73.714 82.0932 71.946 80.8832 70.6695C80.2892 70.0415 79.8037 69.528 79.4522 69.156C79.2942 68.9855 79.1667 68.8475 79.0672 68.7405C78.9807 68.644 78.9367 68.592 78.9407 68.588C78.9447 68.584 78.9962 68.629 79.0902 68.718C79.1952 68.82 79.3297 68.951 79.4967 69.1125C79.8477 69.4575 80.3492 69.9625 80.9647 70.591C82.1957 71.848 83.8762 73.6045 85.6967 75.579C87.5162 77.553 89.1307 79.37 90.2837 80.6995C90.8602 81.364 91.3227 81.905 91.6382 82.283C91.7862 82.4625 91.9057 82.6075 91.9987 82.72C92.0797 82.821 92.1202 82.8755 92.1162 82.8795Z" fill="white"/>
<g opacity="0.3">
<path d="M79.9366 64.584L98.2781 84.508C98.2781 84.508 96.7936 86.5845 95.4336 87.488L76.7051 67.0985C76.7051 67.0985 78.0551 65.4715 79.9366 64.584Z" fill="white"/>
</g>
<g opacity="0.3">
<path d="M75.1277 69.3955L93.1672 88.8075C93.1672 88.8075 93.3347 88.899 92.0917 89.213L74.6182 70.381C74.6182 70.381 74.7097 69.909 75.1277 69.3955Z" fill="white"/>
</g>
<path d="M122.615 101.424C118.762 98.3295 109.319 90.762 108.888 90.5605C108.345 90.3065 100.034 87.354 98.442 88.3025C96.85 89.251 92.582 94.6085 92.582 94.6085C92.582 94.6085 92.9875 97.9405 96.71 95.556C99.5505 93.737 99.991 93.4545 100.041 93.4225C100.038 93.4245 100.036 93.426 100.036 93.426L103.993 94.3505C103.993 94.3505 99.166 96.3665 98.145 97.4265C97.124 98.4865 95.5095 102.545 96.5165 103.48C97.5235 104.414 98.693 104.494 98.693 104.494C98.693 104.494 96.7005 107.324 100.235 109.033C100.235 109.033 100.751 111.412 102.495 112.344C104.238 113.276 107.487 112.947 107.487 112.947C107.487 112.947 108.993 112.056 107.874 110.579C106.755 109.102 104.691 108.897 104.691 108.897L107.249 107.405C107.249 107.405 108.58 107.812 110.552 109.336C110.552 109.336 112.888 106.345 115.221 104.655C117.839 102.758 122.615 101.424 122.615 101.424Z" fill="#FFBF9D"/>
<path d="M106.236 102.68C106.234 102.669 106.099 102.671 105.856 102.703C105.613 102.734 105.264 102.803 104.845 102.937C104.011 103.198 102.893 103.776 101.977 104.773C101.06 105.77 100.578 106.932 100.387 107.785C100.289 108.213 100.249 108.567 100.238 108.812C100.227 109.056 100.236 109.192 100.248 109.192C100.284 109.195 100.291 108.651 100.517 107.818C100.737 106.989 101.226 105.869 102.116 104.901C103.006 103.933 104.081 103.352 104.888 103.063C105.7 102.769 106.242 102.716 106.236 102.68Z" fill="#FF9A6C"/>
<path d="M106.405 98.374C106.404 98.361 106.26 98.372 105.999 98.4025C105.869 98.416 105.71 98.4375 105.528 98.4795C105.346 98.5195 105.136 98.554 104.912 98.626C104.458 98.746 103.932 98.9425 103.369 99.207C102.812 99.4825 102.222 99.8325 101.65 100.268C101.083 100.71 100.593 101.191 100.185 101.66C99.7849 102.136 99.4609 102.595 99.2289 103.003C99.1024 103.201 99.0149 103.396 98.9299 103.561C98.8429 103.726 98.7814 103.874 98.7349 103.997C98.6384 104.241 98.5914 104.377 98.6034 104.382C98.6379 104.397 98.8494 103.857 99.3424 103.072C99.5854 102.678 99.9159 102.235 100.315 101.774C100.724 101.32 101.208 100.851 101.764 100.417C102.326 99.99 102.971 99.5095 103.515 99.23C104.063 98.9615 104.506 98.888 104.949 98.7535C105.835 98.478 106.411 98.411 106.405 98.374Z" fill="#FF9A6C"/>
<path d="M107.128 93.428C107.133 93.4075 106.934 93.33 106.591 93.307C106.25 93.2825 105.765 93.336 105.279 93.5415C104.622 93.8225 104.39 94.0965 104.2 94.323C103.978 94.5855 103.895 94.783 103.914 94.7935C103.958 94.833 104.417 94.1015 105.353 93.7155C106.281 93.31 107.126 93.487 107.128 93.428Z" fill="#FF9A6C"/>
<path d="M151.483 77.7585C151.483 77.7585 163.678 78.9285 167.55 89.5235C170.622 97.933 172.292 123.127 171.522 123.64L149.991 122.952C149.707 116.808 148.053 112.072 145.734 109.007L151.483 77.7585Z" fill="#455A64"/>
<path d="M150.321 122.952C150.331 122.937 150.481 123.021 150.744 123.187C151.007 123.352 151.377 123.606 151.824 123.936C152.719 124.593 153.905 125.576 155.101 126.778C156.3 127.98 157.281 129.164 157.954 130.045C158.289 130.487 158.553 130.851 158.724 131.109C158.897 131.367 158.986 131.514 158.972 131.525C158.94 131.548 158.515 131.01 157.809 130.16C157.102 129.311 156.106 128.154 154.917 126.962C153.729 125.768 152.574 124.772 151.712 124.081C150.852 123.389 150.298 122.985 150.321 122.952Z" fill="#FF9A6C"/>
<path d="M147.756 97.0365C147.827 97.0485 147.432 99.738 146.873 103.043C146.315 106.349 145.805 109.019 145.734 109.007C145.663 108.995 146.058 106.306 146.616 103C147.175 99.6945 147.685 97.0245 147.756 97.0365Z" fill="#263238"/>
<path d="M120.659 172.588C120.659 172.579 120.782 172.561 121.017 172.534C121.278 172.508 121.62 172.473 122.046 172.43C122.97 172.343 124.256 172.221 125.833 172.072C129.03 171.765 133.443 171.304 138.303 170.69C143.165 170.074 147.554 169.422 150.727 168.923C152.291 168.675 153.567 168.473 154.483 168.327C154.907 168.263 155.247 168.211 155.506 168.172C155.74 168.139 155.864 168.126 155.865 168.135C155.867 168.144 155.746 168.174 155.515 168.223C155.258 168.275 154.921 168.343 154.5 168.427C153.619 168.6 152.339 168.833 150.756 169.105C147.589 169.651 143.201 170.333 138.335 170.949C133.471 171.564 129.051 171.996 125.849 172.256C124.247 172.386 122.951 172.48 122.053 172.532C121.625 172.555 121.282 172.573 121.02 172.587C120.784 172.596 120.66 172.597 120.659 172.588Z" fill="#263238"/>
<path d="M118.755 169.37C118.754 169.352 119.07 169.324 119.642 169.289C120.257 169.257 121.074 169.213 122.065 169.16C124.15 169.053 126.955 168.91 130.055 168.751C133.155 168.571 135.96 168.409 138.044 168.288C139.035 168.232 139.852 168.186 140.466 168.152C141.038 168.124 141.356 168.117 141.357 168.135C141.358 168.153 141.044 168.194 140.474 168.253C139.904 168.312 139.078 168.387 138.057 168.471C136.015 168.64 133.192 168.84 130.069 169.011C126.948 169.181 124.12 169.29 122.072 169.344C121.048 169.372 120.219 169.387 119.646 169.39C119.072 169.394 118.755 169.388 118.755 169.37Z" fill="#263238"/>
<path d="M84.4633 123.782C84.5423 123.475 84.6713 123.187 84.8528 122.927C85.2128 122.41 85.7583 122.017 86.3758 121.876C87.4018 121.642 88.5513 122.122 89.1063 123.017C89.0693 122.335 89.6078 121.699 90.2668 121.519C90.9253 121.339 91.4368 121.593 91.9623 122.029C92.4878 122.465 92.6223 122.812 92.8358 123.461C93.3603 122.283 96.0573 122.427 96.3853 123.311C96.3853 123.311 98.7058 120.771 99.8928 122.02C100.386 122.539 100.174 123.335 99.8478 124.133C99.4118 125.197 99.1248 125.641 98.5548 126.813L96.3583 126.933C96.1733 127.621 95.7838 130.416 95.7013 131.123C95.6188 131.83 95.4773 132.55 95.1013 133.155C94.7253 133.759 94.0718 134.232 93.3598 134.223C92.6478 134.213 91.9468 133.603 91.9888 132.892C91.8393 133.479 91.5893 134.059 91.1563 134.483C90.7233 134.907 90.0823 135.151 89.4958 134.998C88.9093 134.845 88.4443 134.232 88.5633 133.638C87.7803 134.18 86.6228 133.698 86.1258 132.886C85.6283 132.073 85.6163 131.063 85.6468 130.111C85.6738 129.267 85.7503 128.32 85.4178 127.521C85.3653 127.395 85.2753 127.286 85.2448 127.152C85.1998 126.953 85.2298 126.728 85.2158 126.525C85.1848 126.082 85.1033 125.641 84.9513 125.224C84.9178 125.132 84.8813 125.042 84.8408 124.953C84.7343 124.716 84.5768 124.516 84.4563 124.29C84.4298 124.241 84.4073 124.192 84.4008 124.135C84.3873 124.019 84.4348 123.891 84.4633 123.782Z" fill="#FFBF9D"/>
<path d="M81.9922 122.562C81.4052 122.541 80.7657 122.662 80.3737 123.1C79.9092 123.619 79.8022 124.861 79.8552 125.555C80.6692 125.709 81.1037 125.528 81.9177 125.681C82.0892 125.714 82.2327 125.67 82.3747 125.771C82.7502 126.038 82.6892 126.936 82.8402 127.371C83.1022 128.125 84.0687 128.494 84.8177 128.216C85.5667 127.939 86.0487 127.142 86.0867 126.344C86.1247 125.547 85.7737 124.766 85.2597 124.155C84.4567 123.201 83.2392 122.607 81.9922 122.562Z" fill="#FFBF9D"/>
<path d="M95.8547 129.957C95.7717 129.94 96.1067 128.45 96.3187 126.596C96.4207 125.669 96.4442 124.826 96.4077 124.218C96.3762 123.61 96.3047 123.236 96.3452 123.226C96.3747 123.218 96.5112 123.582 96.5912 124.201C96.6762 124.819 96.6812 125.684 96.5777 126.624C96.4767 127.565 96.3007 128.402 96.1557 129.002C96.0077 129.601 95.8887 129.965 95.8547 129.957Z" fill="#FF9A6C"/>
<path d="M91.8897 133.157C91.8532 133.149 91.9472 132.608 92.1072 131.737C92.2657 130.866 92.4892 129.664 92.6582 128.328C92.8272 126.992 92.8877 125.774 92.8697 124.893C92.8567 124.011 92.7927 123.467 92.8347 123.461C92.8637 123.456 92.9927 123.994 93.0537 124.885C93.1192 125.775 93.0877 127.012 92.9167 128.361C92.7462 129.709 92.4927 130.912 92.2877 131.775C92.0807 132.639 91.9237 133.165 91.8897 133.157Z" fill="#FF9A6C"/>
<path d="M88.5369 133.729C88.4979 133.718 88.6364 133.121 88.8114 132.148C88.9874 131.176 89.1814 129.824 89.2644 128.321C89.3449 126.817 89.2994 125.452 89.2304 124.466C89.1619 123.48 89.0894 122.871 89.1294 122.865C89.1474 122.863 89.1854 123.012 89.2394 123.285C89.2954 123.557 89.3559 123.955 89.4139 124.45C89.5309 125.438 89.6064 126.816 89.5249 128.335C89.4409 129.854 89.2159 131.216 88.9924 132.185C88.8814 132.67 88.7774 133.059 88.6924 133.324C88.6084 133.589 88.5539 133.733 88.5369 133.729Z" fill="#FF9A6C"/>
<path d="M84.1144 123.938C84.1259 123.911 84.4154 123.995 84.7994 124.284C85.1814 124.567 85.6414 125.08 85.9114 125.768C86.1809 126.455 86.2019 127.152 86.0589 127.622C85.9134 128.105 85.6099 128.273 85.5999 128.242C85.5704 128.213 85.7969 128.016 85.8804 127.577C85.9654 127.145 85.9194 126.501 85.6689 125.864C85.4179 125.224 85.0144 124.73 84.6814 124.425C84.3474 124.116 84.0944 123.975 84.1144 123.938Z" fill="#FF9A6C"/>
</svg>
