<svg width="300" height="300" viewBox="0 0 300 300" fill="none" xmlns="http://www.w3.org/2000/svg">
<path d="M300 229.439H0V229.589H300V229.439Z" fill="#EBEBEB"/>
<path d="M269.941 239.096H250.067V239.246H269.941V239.096Z" fill="#EBEBEB"/>
<path d="M198.732 240.725H193.517V240.875H198.732V240.725Z" fill="#EBEBEB"/>
<path d="M249.466 233.525H237.951V233.675H249.466V233.525Z" fill="#EBEBEB"/>
<path d="M57.3914 234.533H31.4756V234.683H57.3914V234.533Z" fill="#EBEBEB"/>
<path d="M66.5332 234.533H62.7334V234.683H66.5332V234.533Z" fill="#EBEBEB"/>
<path d="M135.088 237.067H78.8828V237.217H135.088V237.067Z" fill="#EBEBEB"/>
<path d="M142.208 202.68H26.3486C24.4604 202.68 22.9238 201.143 22.9238 199.255V36.396C22.9238 34.5078 24.4604 32.9712 26.3486 32.9712H142.208C144.096 32.9712 145.632 34.5078 145.632 36.396V199.255C145.632 201.143 144.096 202.68 142.208 202.68ZM26.3486 33.1218C24.5426 33.1218 23.0738 34.5906 23.0738 36.3966V199.256C23.0738 201.062 24.5426 202.531 26.3486 202.531H142.208C144.013 202.531 145.482 201.062 145.482 199.256V36.396C145.482 34.5906 144.013 33.1212 142.208 33.1212L26.3486 33.1218Z" fill="#EBEBEB"/>
<path d="M271.986 202.68H156.127C154.239 202.68 152.703 201.143 152.703 199.255V36.396C152.703 34.5078 154.24 32.9712 156.127 32.9712H271.986C273.875 32.9712 275.411 34.5078 275.411 36.396V199.255C275.412 201.143 273.875 202.68 271.986 202.68ZM156.127 33.1218C154.322 33.1218 152.853 34.5906 152.853 36.3966V199.256C152.853 201.062 154.322 202.531 156.127 202.531H271.986C273.792 202.531 275.261 201.062 275.261 199.256V36.396C275.261 34.5906 273.792 33.1212 271.986 33.1212L156.127 33.1218Z" fill="#EBEBEB"/>
<path d="M89.6591 119.092H85.6211V229.589H89.6591V119.092Z" fill="#F5F5F5"/>
<path d="M105.623 133.121H101.585V229.589H105.623V133.121Z" fill="#F5F5F5"/>
<path d="M121.443 147.151H117.405V229.589H121.443V147.151Z" fill="#F5F5F5"/>
<path d="M137.263 137.798H133.225V229.589H137.263V137.798Z" fill="#F5F5F5"/>
<path d="M153.082 133.121H149.044V229.589H153.082V133.121Z" fill="#F5F5F5"/>
<path d="M168.901 123.769H164.863V229.589H168.901V123.769Z" fill="#F5F5F5"/>
<path d="M184.722 128.445H180.684V229.589H184.722V128.445Z" fill="#F5F5F5"/>
<path d="M200.541 123.769H196.503V229.589H200.541V123.769Z" fill="#F5F5F5"/>
<path d="M216.36 114.416H212.322V229.589H216.36V114.416Z" fill="#F5F5F5"/>
<path d="M232.18 105.063H228.142V229.589H232.18V105.063Z" fill="#F5F5F5"/>
<path d="M248 95.7108H243.962V229.589H248V95.7108Z" fill="#F5F5F5"/>
<path d="M119.424 140.578C119.196 140.578 118.969 140.491 118.795 140.322L84.9923 107.361C84.6365 107.014 84.6293 106.444 84.9767 106.088C85.3235 105.733 85.8929 105.725 86.2493 106.073L119.508 138.502L166.352 104.336C166.727 104.062 167.249 104.118 167.556 104.467L182.891 121.808L246.371 85.4418C246.801 85.1946 247.352 85.344 247.599 85.7754C247.846 86.2068 247.697 86.7564 247.265 87.0036L183.149 123.734C182.779 123.946 182.31 123.869 182.028 123.55L166.751 106.273L119.954 140.404C119.795 140.521 119.609 140.578 119.424 140.578Z" fill="#F0F0F0"/>
<path d="M115.592 228.903L86.0891 112.553L87.5627 106.741H86.0261V73.5102H82.0679V106.741H80.5313L82.0055 112.553L52.5029 228.903H56.5865L82.0679 128.411V229.514H86.0261V128.411L111.508 228.903H115.592Z" fill="#E0E0E0"/>
<path d="M106.277 111.414C109.177 99.1353 101.573 86.8313 89.2949 83.932C77.0164 81.0327 64.7124 88.636 61.8131 100.915C58.9138 113.193 66.5172 125.497 78.7957 128.396C91.0741 131.296 103.378 123.692 106.277 111.414Z" fill="#E6E6E6"/>
<path d="M84.0466 125.654C94.8155 125.654 103.545 116.924 103.545 106.155C103.545 95.3861 94.8155 86.6562 84.0466 86.6562C73.2778 86.6562 64.5479 95.3861 64.5479 106.155C64.5479 116.924 73.2778 125.654 84.0466 125.654Z" fill="#F5F5F5"/>
<path d="M84.0468 121.42C92.4772 121.42 99.3114 114.585 99.3114 106.155C99.3114 97.7246 92.4772 90.8904 84.0468 90.8904C75.6164 90.8904 68.7822 97.7246 68.7822 106.155C68.7822 114.585 75.6164 121.42 84.0468 121.42Z" fill="#E6E6E6"/>
<path d="M88.8383 117.715C95.2225 115.071 98.2542 107.752 95.6097 101.367C92.9652 94.9832 85.646 91.9516 79.2618 94.596C72.8776 97.2405 69.8459 104.56 72.4904 110.944C75.1349 117.328 82.4541 120.36 88.8383 117.715Z" fill="#F5F5F5"/>
<path d="M92.4944 108.159C93.5962 103.493 90.7066 98.8168 86.0402 97.7149C81.3737 96.613 76.6976 99.5027 75.5957 104.169C74.4938 108.836 77.3835 113.512 82.0499 114.614C86.7163 115.715 91.3925 112.826 92.4944 108.159Z" fill="#E6E6E6"/>
<path d="M86.4364 111.915C89.6173 110.598 91.1278 106.951 89.8102 103.77C88.4926 100.589 84.8458 99.0784 81.6649 100.396C78.4839 101.714 76.9734 105.36 78.291 108.541C79.6086 111.722 83.2554 113.233 86.4364 111.915Z" fill="#F5F5F5"/>
<path d="M86.8755 106.155C86.8755 107.717 85.6095 108.983 84.0471 108.983C82.4847 108.983 81.2188 107.717 81.2188 106.155C81.2188 104.593 82.4853 103.327 84.0471 103.327C85.6089 103.327 86.8755 104.593 86.8755 106.155Z" fill="#E6E6E6"/>
<path d="M54.7319 87.3162L55.3481 91.4478L51.0527 92.8944L55.3481 95.1492L59.6321 93.6432L58.8857 89.5716L54.7319 87.3162Z" fill="#E6E6E6"/>
<path d="M84.0474 106.155L53.3076 90.402" stroke="#E0E0E0" stroke-width="2" stroke-miterlimit="10" stroke-linecap="round" stroke-linejoin="round"/>
<path d="M126.35 80.4966C126.35 77.5752 128.718 75.2064 131.64 75.2064C132.168 75.2064 132.677 75.2862 133.159 75.4302C133.082 74.8998 133.04 74.358 133.04 73.806C133.04 67.6188 138.056 62.6034 144.243 62.6034C144.948 62.6034 145.637 62.6718 146.306 62.7966C148.028 59.9784 151.123 58.0914 154.667 58.0914C160.031 58.0914 164.382 62.4012 164.462 67.7466C164.517 67.7454 164.57 67.7382 164.625 67.7382C169.61 67.7382 173.649 71.7786 173.649 76.7628C173.649 81.747 169.609 85.7874 164.625 85.7874H131.484L131.491 85.7802C128.639 85.6992 126.35 83.3676 126.35 80.4966Z" fill="#F0F0F0"/>
<path d="M220.482 77.592C220.482 76.1844 221.624 75.0432 223.031 75.0432C223.286 75.0432 223.531 75.0816 223.763 75.1512C223.726 74.8956 223.706 74.6346 223.706 74.3688C223.706 71.3874 226.123 68.9706 229.104 68.9706C229.444 68.9706 229.776 69.0036 230.099 69.0636C230.928 67.7058 232.42 66.7962 234.128 66.7962C236.712 66.7962 238.809 68.8728 238.847 71.4486C238.874 71.448 238.899 71.4444 238.926 71.4444C241.328 71.4444 243.274 73.3914 243.274 75.7926C243.274 78.1944 241.327 80.1408 238.926 80.1408H222.956L222.959 80.1372C221.586 80.0988 220.482 78.9756 220.482 77.592Z" fill="#F0F0F0"/>
<path d="M56.834 80.7672C56.834 79.821 57.6014 79.0536 58.5476 79.0536C58.7186 79.0536 58.8836 79.0794 59.0396 79.1262C59.0144 78.9546 59.0012 78.7788 59.0012 78.6C59.0012 76.596 60.626 74.9712 62.63 74.9712C62.8586 74.9712 63.0818 74.9934 63.2984 75.0336C63.8558 74.121 64.8584 73.5096 66.0068 73.5096C67.7444 73.5096 69.1538 74.9058 69.1796 76.6368C69.1976 76.6368 69.2144 76.6344 69.2324 76.6344C70.847 76.6344 72.1556 77.943 72.1556 79.5576C72.1556 81.1722 70.847 82.4808 69.2324 82.4808H58.4972L58.4996 82.4784C57.5756 82.4526 56.834 81.6972 56.834 80.7672Z" fill="#F0F0F0"/>
<path d="M150 256.537C214.25 256.537 266.334 253.495 266.334 249.743C266.334 245.991 214.25 242.949 150 242.949C85.7512 242.949 33.667 245.991 33.667 249.743C33.667 253.495 85.7512 256.537 150 256.537Z" fill="#F5F5F5"/>
<path d="M83.0312 135.335L87.1455 132.986C87.1455 132.986 88.7277 130.541 89.2023 130.43C89.6769 130.319 94.8987 130.43 94.8987 130.43C94.8987 130.43 94.1073 133.81 94.0281 134.477C93.9489 135.145 88.964 134.477 88.964 134.477L84.9291 136.886L83.0312 135.335Z" fill="#EBB376"/>
<path d="M44.6951 244.776L40.3847 243.916C40.2263 243.917 40.0889 244.027 40.0547 244.182L38.8973 248.49C38.8319 248.799 39.0293 249.102 39.3383 249.167C39.3797 249.176 39.4217 249.181 39.4643 249.18C40.9865 249.155 42.0947 249.062 44.0063 249.062C45.1835 249.062 48.7355 249.185 50.3609 249.185C51.9863 249.185 52.1981 247.579 51.5333 247.431C48.5483 246.781 46.3019 245.879 45.3461 245.022C45.1679 244.86 44.9351 244.772 44.6951 244.776Z" fill="#263238"/>
<path d="M97.4144 244.653H92.7098C92.5514 244.654 92.414 244.764 92.3798 244.919L91.616 248.367C91.5506 248.675 91.748 248.979 92.057 249.044C92.0984 249.053 92.1404 249.058 92.183 249.057C93.7052 249.032 94.8134 248.939 96.725 248.939C97.9022 248.939 101.454 249.062 103.08 249.062C104.705 249.062 104.917 247.456 104.252 247.308C101.266 246.658 99.0206 245.756 98.0648 244.899C97.8878 244.737 97.655 244.649 97.4144 244.653Z" fill="#263238"/>
<path d="M52.9949 165.401L72.9185 160.349C77.4359 170.213 94.0163 210.715 98.0327 244.409L91.2881 246.119C91.2881 246.119 79.3523 196.426 69.3383 181.929C69.3383 181.929 68.8013 203.989 67.7165 207.197C66.8237 209.838 46.3193 245.162 46.3193 245.162L39.6611 244.406C39.6611 244.406 56.3687 208.348 57.3863 203.858C58.0805 200.795 55.0355 178.322 55.0355 178.322C54.4955 176.314 53.6975 168.017 53.6975 168.017C53.6975 168.017 53.0951 165.815 52.9949 165.401Z" fill="#F37335"/>
<path opacity="0.2" d="M69.3395 181.931C70.8161 184.067 72.2939 186.828 73.7501 189.985C72.3743 182.221 68.0957 174.701 68.0957 174.701L69.3395 181.931Z" fill="black"/>
<path opacity="0.3" d="M52.9949 165.401L72.9185 160.349C77.4359 170.213 94.0163 210.715 98.0327 244.409L91.2881 246.119C91.2881 246.119 79.3523 196.426 69.3383 181.929C69.3383 181.929 68.8013 203.989 67.7165 207.197C66.8237 209.838 46.3193 245.162 46.3193 245.162L39.6611 244.406C39.6611 244.406 56.3687 208.348 57.3863 203.858C58.0805 200.795 55.0355 178.322 55.0355 178.322C54.4955 176.314 53.6975 168.017 53.6975 168.017C53.6975 168.017 53.0951 165.815 52.9949 165.401Z" fill="black"/>
<path d="M87.6304 135.678C87.6304 135.678 78.5464 141.81 76.1524 142.134C75.1984 142.266 73.2304 141.942 71.1964 141.51C68.1124 140.85 64.8964 139.926 64.8964 139.926L64.4944 136.884L64.0684 133.632C64.7884 133.392 74.1844 137.256 75.5884 137.808C76.9924 138.36 86.0704 132.984 86.0704 132.984L87.6304 135.678Z" fill="#263238"/>
<path d="M59.5378 163.998L60.1258 166.302L53.6937 168.018L53.0938 165.63L59.5378 163.998Z" fill="black"/>
<path d="M69.684 161.424L70.242 163.608L60.84 166.116L60.252 163.818L69.684 161.424Z" fill="black"/>
<path d="M73.9444 162.624L70.9504 163.422L70.3984 161.244L73.1464 160.548L73.9444 162.624Z" fill="black"/>
<path d="M64.5778 165.123L68.2871 164.182L67.6093 161.509L63.9 162.45L64.5778 165.123Z" fill="white"/>
<path d="M73.1397 160.542L53.0877 165.63C52.1097 162.984 51.1137 160.32 50.1417 157.722C49.4277 155.82 48.7257 153.954 48.0417 152.148C47.8677 151.686 47.6937 151.23 47.5197 150.78C47.3157 150.24 47.1117 149.706 46.9137 149.184C46.4697 148.014 46.0437 146.886 45.6297 145.806C45.2457 144.798 44.8737 143.832 44.5257 142.92C44.3457 142.452 44.1717 141.996 44.0037 141.552C43.6497 140.628 43.3197 139.764 43.0137 138.972L64.0677 133.632C71.0157 145.746 73.1397 160.542 73.1397 160.542Z" fill="#263238"/>
<path d="M50.6619 138.458C52.8303 139.492 56.8281 137.663 56.8281 137.663C56.8281 137.663 58.1547 136.199 57.3633 135.55C55.7535 135.759 55.8573 135.234 55.2747 134.411C54.9363 133.931 54.7287 133.34 54.5913 132.707C54.5157 132.376 54.4653 132.032 54.4251 131.691L48.1191 129.427C49.5537 131.744 51.7779 136.13 50.6619 138.458Z" fill="#EBB376"/>
<path opacity="0.2" d="M50.041 131.495C51.178 134.527 53.977 134.613 55.2736 134.411C54.9352 133.931 54.7276 133.34 54.5902 132.707L50.041 131.495Z" fill="black"/>
<path d="M58.2734 120.019C58.2734 120.019 59.9204 125 57.5408 127.428C55.1612 129.856 53.543 120.338 53.543 120.338L58.2734 120.019Z" fill="#263238"/>
<path d="M50.3524 132.832C51.991 134.5 54.223 134.631 55.987 133.724C57.1216 133.142 58.0612 132.128 58.5286 130.82C58.5916 130.649 58.6438 130.47 58.6906 130.287C59.4952 126.935 58.9906 121.397 55.3384 119.911C52.7416 118.833 49.7554 120.064 48.6778 122.666C48.3664 123.403 48.2404 124.207 48.2992 125.008C48.514 128.73 48.4648 130.928 50.3524 132.832Z" fill="#EBB376"/>
<path d="M53.9568 126.054C53.9358 126.355 54.1146 126.602 54.3162 126.602C54.5178 126.602 54.6744 126.354 54.6768 126.052C54.6792 125.75 54.5142 125.503 54.3174 125.504C54.1206 125.504 53.9592 125.747 53.9568 126.054Z" fill="#263238"/>
<path d="M57.3874 126.056C57.3664 126.357 57.55 126.605 57.7468 126.605C57.9436 126.604 58.105 126.356 58.1074 126.055C58.1098 125.752 57.9448 125.506 57.748 125.506C57.5512 125.506 57.3886 125.768 57.3874 126.056Z" fill="#263238"/>
<path d="M56.2979 126.205C56.6585 127.134 57.1457 128.008 57.7463 128.803C57.3239 129.105 56.7899 129.204 56.2871 129.074L56.2979 126.205Z" fill="#D58745"/>
<path d="M58.6422 124.648C58.5816 124.676 58.5114 124.67 58.4568 124.632C58.0968 124.357 57.6282 124.268 57.192 124.391C57.1008 124.426 56.9982 124.381 56.9628 124.289C56.928 124.198 56.9736 124.096 57.0648 124.06C57.612 123.889 58.2084 123.995 58.6638 124.343C58.7448 124.398 58.7652 124.508 58.71 124.589C58.7094 124.59 58.7082 124.591 58.7076 124.592C58.689 124.614 58.6668 124.633 58.6422 124.648Z" fill="#263238"/>
<path d="M53.2817 124.689C53.2457 124.688 53.2109 124.676 53.1821 124.655C53.1167 124.582 53.1227 124.47 53.1953 124.405C53.1965 124.404 53.1971 124.403 53.1983 124.402C53.6231 124.015 54.2099 123.859 54.7715 123.983C54.8657 124.01 54.9203 124.108 54.8933 124.202C54.8645 124.295 54.7679 124.349 54.6737 124.324C54.2279 124.238 53.7677 124.369 53.4329 124.676C53.3873 124.702 53.3315 124.707 53.2817 124.689Z" fill="#263238"/>
<path d="M51.0375 120.359L51.3951 121.051C50.1837 121.51 50.4939 122.926 50.7729 123.561C51.3675 124.917 50.6853 127.095 49.6659 127.999C49.6659 127.999 49.6047 127.402 49.1073 127.568C48.6093 127.733 48.8949 130.841 49.9491 132.281C49.9491 132.281 48.3969 131.007 47.4027 127.777C46.4829 124.789 46.2675 122.273 46.8345 121.075L51.0375 120.359Z" fill="#263238"/>
<path d="M46.6682 128.063C47.081 128.907 47.8118 129.553 48.7004 129.859C49.8794 130.255 50.5328 129.215 50.2628 128.067C50.0126 127.049 49.1036 125.582 47.8916 125.695C46.6796 125.808 46.1744 127.021 46.6682 128.063Z" fill="#EBB376"/>
<path d="M50.9982 134.332C52.7652 135.569 56.2001 135.97 57.8879 133.728C59.5751 131.486 59.0334 127.9 59.0334 127.9C58.7574 129.16 57.9558 130.093 57.9558 130.093C57.0096 128.948 55.3836 129.591 55.3836 129.591C55.3836 129.591 54.7878 128.802 54.0024 128.724C53.217 128.646 51.0222 128.777 51.0222 128.777C50.31 128.331 50.2842 126.325 50.2842 126.325L49.8522 126.683C49.8516 126.682 49.2312 133.094 50.9982 134.332Z" fill="#263238"/>
<path d="M55.715 121.63C55.715 121.63 59.8934 119.592 59.4164 117.555C58.94 115.518 57.698 117.839 57.698 117.839C57.698 117.839 58.2632 116.29 57.1586 116.073C56.0546 115.856 56.4194 116.778 55.8248 117.373C55.2296 117.967 49.406 117.103 47.5262 118.264C45.6464 119.425 47.0846 123.456 47.0846 123.456C47.0846 123.456 50.6084 119.639 55.715 121.63Z" fill="#263238"/>
<path opacity="0.2" d="M50.9982 134.332C52.7652 135.569 56.2001 135.97 57.8879 133.728C59.5751 131.486 59.0334 127.9 59.0334 127.9C58.7574 129.16 57.9558 130.093 57.9558 130.093C57.0096 128.948 55.3836 129.591 55.3836 129.591C55.3836 129.591 54.7878 128.802 54.0024 128.724C53.217 128.646 51.0222 128.777 51.0222 128.777C50.31 128.331 50.2842 126.325 50.2842 126.325L49.8522 126.683C49.8516 126.682 49.2312 133.094 50.9982 134.332Z" fill="white"/>
<path d="M55.5607 130.741C55.1845 131.195 54.6901 132.102 54.6901 132.102C54.6001 132.072 54.5095 132.042 54.4213 132.007C53.2081 131.57 52.7893 130.966 52.6933 130.43C52.6417 130.136 52.6909 129.86 52.7587 129.645C52.8349 129.395 52.9459 129.235 52.9459 129.235C53.4505 129.851 54.5503 130.346 55.1491 130.585C55.3987 130.689 55.5607 130.741 55.5607 130.741Z" fill="#263238"/>
<path d="M55.1492 130.586L54.8822 130.981C53.7404 130.566 52.9922 130.121 52.7588 129.646C52.835 129.396 52.946 129.236 52.946 129.236C53.4512 129.851 54.551 130.346 55.1492 130.586Z" fill="white"/>
<path d="M54.4214 132.007C53.2082 131.57 52.7894 130.966 52.6934 130.43C53.1014 130.595 53.5742 130.839 53.9444 131.182C54.2288 131.444 54.3608 131.737 54.4214 132.007Z" fill="#DE5753"/>
<path d="M57.6184 137.672L57.2656 140.779L63.7456 154.585L63.1 156.416L60.9814 155.434L56.3668 141.358L52.9678 139.054L55.4398 137.702L57.6184 137.672Z" fill="#F37335"/>
<path d="M50.8058 135.545L55.0958 137.317L55.274 134.412L58.4342 135.194L58.703 139.616L55.6592 138.372L54.3908 141.205L48.9824 137.59L50.8058 135.545Z" fill="#263238"/>
<path opacity="0.2" d="M50.8058 135.545L55.0958 137.317L55.274 134.412L58.4342 135.194L58.703 139.616L55.6592 138.372L54.3908 141.205L48.9824 137.59L50.8058 135.545Z" fill="white"/>
<path opacity="0.2" d="M46.9139 149.184C46.4699 148.014 46.0439 146.886 45.6299 145.806C45.2459 144.798 44.8739 143.832 44.5259 142.92C44.3459 142.452 44.1719 141.996 44.0039 141.552C44.6339 141.258 46.1339 141.434 46.5581 142.169C48.1187 144.877 46.9139 149.184 46.9139 149.184Z" fill="black"/>
<path opacity="0.2" d="M54.4321 152.232C54.4321 152.232 53.9701 155.664 50.1421 157.722C49.4281 155.82 48.7261 153.954 48.0421 152.148C47.8681 151.686 47.6941 151.23 47.5201 150.78C47.3161 150.24 47.1121 149.706 46.9141 149.184L53.8621 150.066L54.4321 152.232Z" fill="black"/>
<path opacity="0.2" d="M71.1961 141.51C68.1121 140.85 64.8961 139.926 64.8961 139.926L64.4941 136.884C64.4941 136.884 70.1641 137.49 71.1961 141.51Z" fill="black"/>
<path d="M43.0148 212.396C42.7544 212.396 42.4964 212.284 42.3188 212.068C42.0032 211.683 42.059 211.116 42.443 210.801C52.4552 202.581 52.2638 189.695 52.0784 177.233C51.9386 167.836 51.8066 158.96 56.225 152.921C62.4302 144.44 87.3848 130.983 91.5212 130.599C94.475 130.303 184.701 105.229 231.996 92.0112C232.474 91.8768 232.971 92.157 233.106 92.6358C233.239 93.1146 232.96 93.6114 232.481 93.7452C226.885 95.3088 95.396 132.047 91.688 132.392C88.1288 132.722 63.4274 146.128 57.6782 153.985C53.6156 159.537 53.7434 168.12 53.879 177.206C54.062 189.494 54.269 203.422 43.586 212.192C43.418 212.33 43.2158 212.396 43.0148 212.396Z" fill="#263238"/>
<g opacity="0.4">
<path d="M232.482 93.744C231.54 94.008 227.022 95.268 220.146 97.188C186.216 106.656 94.7701 132.108 91.6861 132.39C88.1281 132.72 63.4261 146.124 57.6781 153.984C53.6161 159.534 53.7421 168.12 53.8801 177.204C54.0601 189.492 54.2701 203.424 43.5841 212.19C43.4161 212.328 43.2181 212.394 43.0141 212.394C42.7561 212.394 42.4981 212.286 42.3181 212.07C42.0001 211.686 42.0601 211.116 42.4441 210.798C52.4581 202.578 52.2661 189.696 52.0801 177.234C51.9361 167.838 51.8041 158.958 56.2261 152.922C62.4301 144.438 87.3841 130.98 91.5181 130.596C94.3021 130.32 174.234 108.132 223.086 94.5C226.194 93.63 229.17 92.802 231.996 92.01C232.476 91.878 232.968 92.154 233.106 92.634C233.238 93.114 232.956 93.612 232.482 93.744Z" fill="white"/>
</g>
<path opacity="0.2" d="M232.482 93.744C231.54 94.008 227.022 95.268 220.146 97.188C220.944 96.216 221.976 95.31 223.086 94.5C226.194 93.63 229.17 92.802 231.996 92.01C232.476 91.878 232.968 92.154 233.106 92.634C233.238 93.114 232.956 93.612 232.482 93.744Z" fill="black"/>
<path d="M49.1445 150.478L53.8641 150.067C53.8641 150.067 56.3247 148.509 56.8023 148.606C57.2799 148.704 61.9755 150.991 61.9755 150.991C61.9755 150.991 59.8419 153.729 59.4909 154.303C59.1393 154.876 54.8925 152.183 54.8925 152.183L50.2197 152.681L49.1445 150.478Z" fill="#EBB376"/>
<path d="M43.017 138.97C40.8732 140.503 35.2914 152.974 35.8836 154.903C36.4758 156.832 53.8422 153.031 53.8422 153.031L53.076 149.781H43.7316L45.954 146.282C45.954 146.282 47.3226 144.949 46.4802 141.853C45.8736 139.622 43.017 138.97 43.017 138.97Z" fill="#263238"/>
<path d="M223.925 140.223L220.368 138.54C220.368 138.54 218.59 135.093 218.043 134.545C217.496 133.998 214.965 136.134 214.965 136.502C214.965 136.871 216.812 140.359 217.29 140.564C217.769 140.77 219.445 140.564 219.445 140.564L222.831 142.204L223.925 140.223Z" fill="#9F5B53"/>
<path d="M232.233 118.886L232.945 116.334C232.945 116.334 234.073 113.011 233.954 112.24C233.835 111.468 233.098 109.571 233.098 109.571C233.098 109.571 229.978 113.367 229.978 113.842C229.978 114.317 231.218 116.038 231.218 116.038L230.63 118.886H232.233Z" fill="#9F5B53"/>
<path d="M234.971 137.877C234.971 137.877 232.285 134.535 231.491 131.428C230.696 128.32 233.094 118.208 233.094 118.208L230.566 117.535C230.566 117.535 227.591 127.861 227.467 131.63C227.343 135.399 232.966 146.453 232.966 146.453L234.971 137.877Z" fill="#F37335"/>
<path opacity="0.2" d="M233.346 144.818L232.964 146.452C232.964 146.452 231.031 142.645 229.452 138.734C230.752 139.657 232.144 141.143 232.997 143.48C233.155 143.923 233.27 144.37 233.346 144.818Z" fill="black"/>
<path d="M249.206 145.184C249.185 145.796 249.092 146.489 248.95 147.259C248.677 148.756 248.207 150.525 247.672 152.475C247.388 153.502 247.098 154.6 246.798 155.758C245.46 160.962 244.733 163.032 243.745 169.673L224.756 165.168C224.756 165.168 226.083 157.014 229.426 148.516C229.982 147.085 230.605 145.649 231.283 144.235C232.358 141.995 233.587 139.827 234.974 137.878C234.974 137.878 238.044 140.685 247.694 142.367C248.863 142.568 249.266 143.584 249.206 145.184Z" fill="#F37335"/>
<path opacity="0.2" d="M246.815 143.034C246.794 143.645 249.092 146.489 248.949 147.26C248.693 147.434 248.387 147.626 248.037 147.833C241.614 151.574 233.182 149.674 229.425 148.516C229.982 147.085 231.201 144.449 231.878 143.035L236.384 144.034C236.384 144.034 243.762 142.357 246.815 143.034Z" fill="black"/>
<path d="M239.093 139.026C239.781 138.764 245.448 140.174 245.027 140.295C244.607 140.416 242.498 146.894 239.54 146.408C236.583 145.922 236.633 139.962 239.093 139.026Z" fill="#F37335"/>
<path d="M213.452 245.198L209.886 245.969L207.806 237.771L211.376 236.999L213.452 245.198Z" fill="#9F5B53"/>
<path d="M208.996 244.483H213.429C213.578 244.483 213.707 244.588 213.74 244.733L214.459 247.982C214.521 248.273 214.335 248.559 214.044 248.621C214.005 248.629 213.965 248.633 213.925 248.632C212.491 248.609 211.447 248.521 209.645 248.521C208.536 248.521 205.189 248.636 203.657 248.636C202.126 248.636 201.926 247.123 202.553 246.984C205.366 246.371 207.482 245.522 208.382 244.714C208.55 244.561 208.77 244.478 208.996 244.483Z" fill="#263238"/>
<path d="M207.79 245.123C207.542 245.143 207.294 245.077 207.089 244.937C206.952 244.824 206.884 244.648 206.908 244.472C206.906 244.37 206.964 244.275 207.056 244.231C207.46 244.022 208.639 244.747 208.769 244.83C208.8 244.846 208.817 244.88 208.811 244.913C208.806 244.949 208.781 244.979 208.746 244.988C208.433 245.068 208.113 245.113 207.79 245.123ZM207.247 244.366C207.209 244.363 207.17 244.371 207.135 244.39C207.112 244.39 207.084 244.422 207.08 244.492C207.065 244.608 207.108 244.724 207.196 244.802C207.605 244.988 208.07 245.011 208.496 244.867C208.115 244.622 207.691 244.452 207.247 244.366Z" fill="#F37335"/>
<path d="M208.723 244.993H208.681C208.305 244.789 207.576 243.986 207.651 243.601C207.677 243.468 207.794 243.373 207.929 243.373C208.062 243.356 208.196 243.397 208.296 243.485C208.718 243.828 208.806 244.877 208.811 244.928C208.812 244.96 208.796 244.99 208.769 245.008C208.753 245.007 208.737 245.002 208.723 244.993ZM207.99 243.512H207.948C207.836 243.512 207.827 243.577 207.822 243.601C207.776 243.838 208.24 244.445 208.616 244.729C208.592 244.313 208.441 243.914 208.185 243.587C208.131 243.539 208.061 243.512 207.99 243.512Z" fill="#F37335"/>
<path d="M243.898 170.192C243.898 170.192 240.824 184.867 233.619 188.81C232.789 189.269 231.899 189.58 230.954 189.711C230.954 189.711 223.652 192.693 217.339 195.549C213.5 197.286 210.026 198.979 208.781 199.924C205.493 202.43 213.549 241.485 213.549 241.485L208.071 241.55C208.071 241.55 196.558 206.963 198.503 197.887C200.447 188.81 221.08 174.91 221.08 174.91L224.264 166.166L243.898 170.192Z" fill="#263238"/>
<path opacity="0.2" d="M233.619 188.81C232.789 189.269 231.899 189.58 230.954 189.711C230.954 189.711 223.652 192.693 217.339 195.549C221.402 188.083 228.644 183.228 228.644 183.228L233.619 188.81Z" fill="black"/>
<path d="M259.328 245.198L255.762 245.969L253.682 237.771L257.252 236.999L259.328 245.198Z" fill="#9F5B53"/>
<path d="M254.872 244.483H259.305C259.455 244.483 259.584 244.588 259.616 244.733L260.335 247.982C260.397 248.273 260.211 248.559 259.92 248.621C259.881 248.629 259.842 248.633 259.802 248.632C258.367 248.609 257.323 248.521 255.522 248.521C254.413 248.521 251.066 248.636 249.534 248.636C248.002 248.636 247.803 247.123 248.43 246.984C251.242 246.371 253.359 245.522 254.259 244.714C254.427 244.561 254.646 244.478 254.872 244.483Z" fill="#263238"/>
<path d="M253.666 245.123C253.418 245.143 253.17 245.077 252.965 244.937C252.828 244.824 252.76 244.648 252.784 244.472C252.782 244.37 252.84 244.275 252.932 244.231C253.336 244.022 254.515 244.747 254.645 244.83C254.676 244.846 254.693 244.88 254.687 244.913C254.683 244.949 254.657 244.979 254.622 244.988C254.309 245.068 253.989 245.113 253.666 245.123ZM253.123 244.366C253.085 244.363 253.046 244.371 253.011 244.39C252.988 244.39 252.96 244.422 252.956 244.492C252.941 244.608 252.984 244.724 253.071 244.802C253.481 244.988 253.945 245.011 254.371 244.867C253.991 244.622 253.567 244.452 253.123 244.366Z" fill="#F37335"/>
<path d="M254.599 244.993H254.557C254.181 244.789 253.452 243.986 253.527 243.601C253.553 243.468 253.67 243.373 253.805 243.373C253.938 243.356 254.072 243.397 254.172 243.485C254.594 243.828 254.682 244.877 254.687 244.928C254.688 244.96 254.672 244.99 254.645 245.008C254.629 245.007 254.612 245.002 254.599 244.993ZM253.865 243.512H253.823C253.712 243.512 253.703 243.577 253.698 243.601C253.652 243.838 254.115 244.445 254.492 244.729C254.467 244.313 254.316 243.914 254.06 243.587C254.007 243.539 253.937 243.512 253.865 243.512Z" fill="#F37335"/>
<path d="M245.129 142.137C244.233 142.715 240.117 142.507 240.117 142.507L238.176 144.596L237.993 141.135C237.993 141.135 236.702 140.596 237.053 140.224C238.224 140.224 239.01 139.906 239.537 139.391C240.372 138.574 240.537 137.264 240.525 135.959C240.523 135.945 240.526 135.926 240.524 135.912L240.53 135.908L244.054 134.104L246.485 132.853C245.36 135.335 243.722 139.972 245.129 142.137Z" fill="#9F5B53"/>
<path opacity="0.2" d="M245.231 134.942C244.065 137.884 241.017 139.197 239.536 139.391C240.371 138.574 240.536 137.264 240.524 135.959C240.527 135.941 240.53 135.923 240.528 135.908L244.052 134.104C244.048 134.587 245.409 134.492 245.231 134.942Z" fill="black"/>
<path d="M247.468 134.819C247.468 134.819 249.757 136.043 250.519 134.587C251.281 133.13 250.196 133.07 251.312 132.554C252.429 132.038 254.031 131.675 253.665 130.589C253.299 129.503 252.168 129.37 253.427 128.211C254.687 127.051 254.966 125.314 253.081 124.987C251.195 124.66 251.915 123.208 251.818 122.566C251.722 121.924 250.665 121.547 249.519 121.786C248.373 122.026 247.895 120.33 247.189 119.8C246.482 119.27 245.5 119.924 245.245 120.639C244.989 121.354 244.31 120.4 243.297 120.283C242.284 120.167 242.527 121.224 242.211 122.215C241.895 123.205 241.282 122.56 240.562 123.376C239.842 124.191 239.777 129.761 247.468 134.819Z" fill="#263238"/>
<path d="M248.463 131.401C246.746 134.102 245.768 135.884 243.836 136.757C243.588 136.872 243.321 136.972 243.03 137.056C239.273 138.161 236.18 134.543 237.17 130.963C237.338 130.365 237.581 129.725 237.888 129.08C239.229 126.264 241.82 123.382 244.907 123.763C247.62 124.076 249.564 126.524 249.251 129.238C249.161 130.01 248.891 130.75 248.463 131.401Z" fill="#9F5B53"/>
<path d="M243.179 129.615C243.055 129.88 242.786 130.005 242.616 129.91C242.446 129.814 242.43 129.53 242.571 129.273C242.712 129.016 242.968 128.885 243.134 128.978C243.301 129.072 243.322 129.353 243.179 129.615Z" fill="#263238"/>
<path d="M240.273 127.996C240.148 128.261 239.875 128.384 239.709 128.291C239.543 128.197 239.523 127.912 239.664 127.654C239.805 127.397 240.061 127.266 240.228 127.36C240.394 127.453 240.408 127.752 240.273 127.996Z" fill="#263238"/>
<path d="M241.125 128.637C240.381 129.253 239.556 129.763 238.672 130.153C238.887 130.608 239.292 130.944 239.779 131.072L241.125 128.637Z" fill="#892B29"/>
<path d="M244.919 128.93C244.854 128.938 244.791 128.911 244.752 128.86C244.502 128.499 244.097 128.276 243.657 128.261C243.563 128.266 243.482 128.193 243.477 128.098C243.472 128.003 243.545 127.922 243.639 127.918C244.195 127.924 244.714 128.198 245.03 128.655C245.088 128.73 245.075 128.838 245 128.896C244.998 128.897 244.997 128.898 244.997 128.899C244.972 128.914 244.946 128.924 244.919 128.93Z" fill="#263238"/>
<path d="M240.478 132.677C241.3 132.945 242.2 132.796 242.892 132.277C242.929 132.244 242.934 132.187 242.902 132.148C242.872 132.109 242.816 132.103 242.778 132.133C242.776 132.134 242.775 132.136 242.773 132.137C242.124 132.604 241.293 132.737 240.53 132.498C240.484 132.482 240.434 132.506 240.417 132.552C240.416 132.555 240.415 132.558 240.414 132.562C240.398 132.608 240.422 132.658 240.468 132.674C240.472 132.676 240.475 132.676 240.478 132.677Z" fill="#263238"/>
<path d="M240.013 125.508C240 125.476 239.997 125.44 240.006 125.406C240.045 125.32 240.147 125.282 240.233 125.321C240.234 125.322 240.235 125.323 240.237 125.323C240.745 125.552 241.11 126.014 241.216 126.561C241.228 126.655 241.162 126.742 241.068 126.754H241.068C240.974 126.763 240.889 126.698 240.874 126.605C240.779 126.176 240.486 125.816 240.084 125.637C240.043 125.607 240.017 125.56 240.013 125.508Z" fill="#263238"/>
<path d="M242.472 124.014C243.346 124.122 243.78 125.188 243.78 125.188C243.78 125.188 245.919 125.987 246.839 126.621C247.759 127.255 247.582 128.389 247.549 128.677C247.515 128.966 246.813 129.227 246.813 129.227C246.813 129.227 245.513 132.286 245.161 133.135L245.338 135.957C245.338 135.957 248.794 134.026 250.842 129.763C252.889 125.501 244.351 121.753 244.351 121.753L242.472 124.014Z" fill="#263238"/>
<path d="M247.952 135.675C247.152 136.111 246.212 136.213 245.338 135.958C244.183 135.611 244.248 134.422 245.105 133.665C245.873 133 247.414 132.348 248.31 133.116C249.206 133.884 248.926 135.127 247.952 135.675Z" fill="#9F5B53"/>
<path d="M245.026 140.295L240.254 141.668L238.198 144.454L238.76 141.043C238.76 141.043 238.245 140.255 239.092 139.026L236.187 139.625L234.436 142.557L237.843 141.754L238.082 145.159L240.065 142.819L241.692 145.384L246.524 142.318L245.026 140.295Z" fill="#F37335"/>
<path opacity="0.2" d="M245.026 140.295L240.254 141.668L238.198 144.454L238.76 141.043C238.76 141.043 238.245 140.255 239.092 139.026L236.187 139.625L234.436 142.557L237.843 141.754L238.082 145.159L240.065 142.819L241.692 145.384L246.524 142.318L245.026 140.295Z" fill="black"/>
<path d="M225.007 163.203L224.262 166.166L243.895 170.192L244.186 166.898L225.007 163.203Z" fill="black"/>
<path d="M233.77 164.751C233.614 164.531 229.246 163.592 228.835 163.903C228.835 163.903 227.986 166.827 228.13 167.131C228.274 167.436 232.526 168.032 232.92 168.113C233.314 168.194 233.926 164.971 233.77 164.751ZM232.572 167.726C232.248 167.66 228.753 167.17 228.634 166.919C228.516 166.669 229.213 164.266 229.213 164.266C229.552 164.011 233.141 164.783 233.269 164.963C233.398 165.144 232.896 167.793 232.572 167.726Z" fill="white"/>
<path d="M232.737 165.749L231.872 165.572C231.708 165.539 231.545 165.637 231.497 165.797L231.493 165.811C231.438 165.994 231.555 166.185 231.743 166.22L232.612 166.384C232.794 166.418 232.968 166.293 232.992 166.109C233.015 165.94 232.903 165.784 232.737 165.749Z" fill="white"/>
<path d="M243.894 170.192C243.894 170.192 244.271 192.402 243.648 198.871C243.025 205.339 259.183 240.815 259.183 240.815H253.942C253.942 240.815 238.074 214.849 234.435 206.854C230.796 198.86 228.113 179.798 228.113 179.798L243.894 170.192Z" fill="#263238"/>
<path d="M249.272 143.639C248.461 141.805 236.023 144.524 234.9 144.204C233.777 143.884 222.099 138.994 222.099 138.994L221.089 141.613C221.089 141.613 231.56 147.618 233.847 148.558C236.134 149.498 245.304 149.049 247.624 148.039C249.946 147.028 249.747 144.713 249.272 143.639Z" fill="#F37335"/>
<path d="M247.07 95.955L243.302 71.9388L223.455 85.977L230.071 88.7724C223.697 103.376 203.027 146.162 167.463 177.709C122.027 218.014 58.4637 237.838 57.8271 238.034L61.3449 249.507C64.0437 248.68 127.991 228.764 175.426 186.686C213.224 153.157 234.48 108.934 241.15 93.4536L247.07 95.955Z" fill="#F37335"/>
<path opacity="0.4" d="M243.47 91.755L243.302 71.9388L223.455 85.977L230.071 88.7724C223.697 103.376 203.027 146.162 167.463 177.709C122.027 218.014 58.4637 237.838 57.8271 238.034L58.9449 245.307C61.6437 244.48 125.591 226.364 173.026 184.286C210.824 150.757 230.88 105.934 237.55 90.4536L243.47 91.755Z" fill="white"/>
<path d="M240.002 96.9732C239.91 96.9732 239.817 96.9594 239.725 96.9294L228.196 93.2046C227.722 93.0522 227.463 92.5446 227.616 92.0718C227.769 91.599 228.277 91.338 228.749 91.4922L240.278 95.217C240.751 95.3694 241.011 95.877 240.858 96.3498C240.735 96.7308 240.382 96.9732 240.002 96.9732Z" fill="#263238"/>
<g opacity="0.4">
<path d="M240.002 96.9732C239.91 96.9732 239.817 96.9594 239.725 96.9294L228.196 93.2046C227.722 93.0522 227.463 92.5446 227.616 92.0718C227.769 91.599 228.277 91.338 228.749 91.4922L240.278 95.217C240.751 95.3694 241.011 95.877 240.858 96.3498C240.735 96.7308 240.382 96.9732 240.002 96.9732Z" fill="white"/>
</g>
<path d="M101.96 209.292C101.462 209.292 101.06 208.889 101.06 208.392C101.06 179.75 109.379 175.982 110.941 175.529L137.425 157.021C137.444 157.009 137.462 156.996 137.481 156.985L239.111 96.7098C239.538 96.456 240.09 96.597 240.344 97.0248C240.597 97.452 240.456 98.0046 240.029 98.2578L138.428 158.516L111.837 177.098C111.725 177.176 111.598 177.228 111.464 177.249C111.396 177.264 102.86 179.354 102.86 208.392C102.86 208.889 102.457 209.292 101.96 209.292Z" fill="#263238"/>
<g opacity="0.4">
<path d="M101.96 209.292C101.462 209.292 101.06 208.889 101.06 208.392C101.06 179.75 109.379 175.982 110.941 175.529L137.425 157.021C137.444 157.009 137.462 156.996 137.481 156.985L239.111 96.7098C239.538 96.456 240.09 96.597 240.344 97.0248C240.597 97.452 240.456 98.0046 240.029 98.2578L138.428 158.516L111.837 177.098C111.725 177.176 111.598 177.228 111.464 177.249C111.396 177.264 102.86 179.354 102.86 208.392C102.86 208.889 102.457 209.292 101.96 209.292Z" fill="white"/>
</g>
<path d="M108.87 179.568C108.87 179.568 104.244 182.55 100.728 183.474C99.6779 183.756 98.7299 183.846 98.0339 183.624C95.4179 182.796 96.9719 177.732 98.5319 174.534C98.7839 174.012 99.0359 173.544 99.2699 173.148L103.842 175.974C103.842 175.974 101.07 179.928 101.388 180.162C101.706 180.402 105.978 178.026 106.212 177.948C106.452 177.87 108.87 179.568 108.87 179.568Z" fill="#F37335"/>
<path opacity="0.2" d="M108.87 179.568C108.87 179.568 104.244 182.55 100.728 183.474C99.6542 180.426 98.9462 177.006 98.5322 174.534C98.7842 174.012 99.0362 173.544 99.2702 173.148L103.842 175.974C103.842 175.974 101.07 179.928 101.388 180.162C101.706 180.402 105.978 178.026 106.212 177.948C106.452 177.87 108.87 179.568 108.87 179.568Z" fill="black"/>
<path d="M131.413 162.154L134.124 159.734C134.124 159.734 134.705 158.039 134.996 157.797C135.286 157.555 140.224 157.168 140.224 157.168C140.224 157.168 140.321 159.782 139.934 160.46C139.546 161.138 135.509 161.428 135.509 161.428L133.349 163.51L131.413 162.154Z" fill="#EEC1BB"/>
<path d="M145.848 219.03C145.074 230.166 143.004 245.97 143.004 245.97L140.34 246.558C140.34 246.558 137.88 233.328 138.27 221.052C138.36 218.286 138.594 215.568 139.026 213.066C139.026 213.066 129.798 209.52 123.39 206.346C120.33 204.834 117.912 203.4 117.45 202.476C116.022 199.626 122.514 192.93 122.514 192.93C122.718 193.092 126.636 195.588 131.196 198.546C137.25 202.47 144.432 207.21 145.608 208.392C146.292 209.082 146.232 213.474 145.848 219.03Z" fill="#EEC1BB"/>
<path opacity="0.2" d="M145.849 219.03C143.041 220.056 140.407 220.674 138.271 221.052C138.361 218.286 138.595 215.568 139.027 213.066C139.027 213.066 129.799 209.52 123.391 206.346L131.197 198.546C137.251 202.47 144.433 207.21 145.609 208.392C146.293 209.082 146.233 213.474 145.849 219.03Z" fill="black"/>
<path d="M125.077 191.084C125.077 191.084 150.68 205.8 154.161 209.123C157.642 212.446 177.728 243.512 177.728 243.512L176.036 245.126C176.036 245.126 159.352 230.806 152.704 217.193L125.077 203.859V191.084Z" fill="#EEC1BB"/>
<path d="M105.625 163.91C105.667 163.937 105.712 163.964 105.756 163.981C106.364 164.297 107.053 164.585 107.798 164.648C109.885 164.832 111.227 164.362 112.001 163.322C112.006 163.321 112.006 163.321 112.006 163.321C113.076 161.773 113.052 159.298 112.463 156.391C112.198 155.057 111.842 153.914 111.344 153.056C111.338 153.048 111.334 153.014 111.328 153.005C111.305 152.971 111.284 152.922 111.26 152.888C110.53 151.694 109.495 150.998 107.978 150.856C107.454 150.808 106.868 150.822 106.218 150.904C100.493 151.645 100.788 161.258 105.625 163.91Z" fill="#EEC1BB"/>
<path opacity="0.2" d="M105.757 163.981C106.365 164.297 107.043 164.505 107.788 164.569C109.875 164.753 111.208 164.216 111.979 163.162C111.017 163.52 109.693 163.789 108.31 163.372C107.44 163.111 106.557 163.43 105.757 163.981Z" fill="black"/>
<path d="M105.372 168.671C104.873 170.278 106.934 171.133 106.934 171.133C110.533 169.959 111.341 168.172 111.341 168.172C108.582 166.406 109.797 162.212 109.797 162.212L109.182 162.449L104.979 162.892C104.979 162.892 105.93 165.193 106.038 165.708C106.037 165.713 106.041 165.718 106.041 165.722C106.586 168.413 105.372 168.671 105.372 168.671Z" fill="#EBB376"/>
<path d="M111.342 153.019C111.342 153.019 112.217 156.984 108.659 159.236C108.659 159.236 107.61 163.629 105.217 164.023C101.954 164.561 98.4171 160.306 98.8881 155.402C99.4983 149.044 108.751 147.24 111.342 153.019Z" fill="#263238"/>
<path d="M110.422 157.817C110.334 157.192 109.684 156.212 108.732 156.49C107.746 156.778 107.535 159.337 110.085 159.545C110.452 159.575 110.608 159.121 110.422 157.817Z" fill="#EBB376"/>
<path d="M176.612 241.6L173.85 243.728C173.733 243.82 173.694 243.98 173.757 244.115L175.164 247.112C175.292 247.378 175.612 247.49 175.878 247.363C175.914 247.345 175.948 247.324 175.979 247.3C177.095 246.41 177.132 246.271 178.551 245.177C179.426 244.503 182.133 242.562 183.34 241.631C184.547 240.701 183.785 239.387 183.207 239.659C180.618 240.884 178.434 241.501 177.234 241.411C177.011 241.392 176.787 241.459 176.612 241.6Z" fill="#263238"/>
<path d="M177.212 241.55C177.179 241.564 177.141 241.556 177.116 241.531C177.091 241.507 177.084 241.471 177.098 241.439C177.15 241.295 177.639 240.008 178.084 239.927C178.184 239.906 178.287 239.945 178.347 240.028C178.473 240.151 178.526 240.331 178.487 240.503C178.41 240.739 178.254 240.94 178.047 241.075C177.787 241.264 177.507 241.423 177.212 241.55ZM177.336 241.303C177.759 241.157 178.111 240.857 178.321 240.462C178.342 240.347 178.306 240.229 178.223 240.146C178.177 240.094 178.136 240.086 178.118 240.1C178.08 240.106 178.044 240.123 178.016 240.149C177.717 240.487 177.487 240.878 177.336 241.303Z" fill="#F37335"/>
<path d="M177.205 241.579C177.174 241.581 177.144 241.567 177.124 241.542C177.097 241.499 176.529 240.619 176.653 240.092C176.679 239.961 176.76 239.848 176.875 239.781C176.981 239.698 177.131 239.703 177.232 239.791C177.525 240.05 177.438 241.125 177.266 241.514L177.233 241.54C177.229 241.555 177.219 241.569 177.205 241.579ZM176.803 240.104C176.8 240.518 176.923 240.924 177.157 241.266C177.281 240.815 177.277 240.053 177.097 239.895C177.079 239.879 177.033 239.834 176.945 239.902L176.912 239.927C176.856 239.971 176.817 240.034 176.803 240.104Z" fill="#F37335"/>
<path d="M143.474 244.174L139.988 244.244C139.839 244.247 139.713 244.354 139.684 244.499L139.033 247.745C138.978 248.036 139.168 248.317 139.459 248.372C139.498 248.379 139.538 248.383 139.577 248.381C141.003 248.329 141.116 248.239 142.908 248.203C144.011 248.181 147.342 248.23 148.866 248.2C150.389 248.169 150.558 246.66 149.932 246.534C147.122 245.98 145 245.177 144.088 244.392C143.919 244.244 143.699 244.165 143.474 244.174Z" fill="#263238"/>
<path d="M143.781 244.585C143.747 244.577 143.72 244.548 143.715 244.513C143.709 244.479 143.725 244.445 143.755 244.429C143.883 244.343 145.041 243.599 145.447 243.799C145.54 243.841 145.6 243.934 145.599 244.036C145.627 244.21 145.562 244.387 145.428 244.502C145.227 244.645 144.982 244.715 144.735 244.7C144.414 244.697 144.094 244.659 143.781 244.585ZM144.029 244.46C144.455 244.595 144.917 244.562 145.32 244.37C145.405 244.29 145.446 244.174 145.429 244.058C145.423 243.989 145.395 243.957 145.371 243.958C145.337 243.94 145.299 243.933 145.26 243.937C144.82 244.031 144.402 244.209 144.029 244.46Z" fill="#F37335"/>
<path d="M143.758 244.604C143.732 244.588 143.715 244.558 143.715 244.527C143.718 244.476 143.785 243.431 144.198 243.081C144.297 242.991 144.429 242.948 144.561 242.963C144.695 242.96 144.813 243.052 144.842 243.184C144.924 243.565 144.215 244.379 143.845 244.589L143.804 244.589C143.791 244.599 143.775 244.604 143.758 244.604ZM144.312 243.18C144.063 243.511 143.921 243.91 143.905 244.324C144.273 244.035 144.723 243.421 144.672 243.187C144.667 243.164 144.657 243.099 144.546 243.101L144.504 243.102C144.433 243.104 144.365 243.131 144.312 243.18Z" fill="#F37335"/>
<path d="M124.363 187.14L111.661 192.474C106.411 179.424 99.2705 173.148 99.2705 173.148C104.359 167.046 113.755 164.238 113.755 164.238C115.063 165.246 116.239 166.632 117.301 168.222C118.339 169.794 119.257 171.564 120.061 173.376C122.989 179.982 124.363 187.14 124.363 187.14Z" fill="#F37335"/>
<path d="M111.222 155.65C111.222 155.65 115.215 151.582 111.388 148.904C107.561 146.226 103.774 149.803 103.774 149.803C103.774 149.803 94.6964 152.086 96.6908 158.115C98.6846 164.144 99.9548 164.648 97.1042 167.777C94.2536 170.906 91.352 175.529 94.3244 178.438C97.2968 181.346 107.561 178.228 110.643 173.764C113.725 169.301 108.114 159.84 111.222 155.65Z" fill="#263238"/>
<path d="M123.44 183.229L109.652 187.963C109.652 187.963 112.701 202.992 114.916 205.504C117.131 208.015 131.934 219.658 134.027 218.742C136.121 217.826 150 205.504 150 205.504L126.499 189.389L123.44 183.229Z" fill="#263238"/>
<path d="M121.43 186.056L124.361 185.084L123.638 183.627L120.858 184.606L121.43 186.056Z" fill="black"/>
<path d="M112.657 187.494L109.652 188.552L110.049 189.832L112.99 188.856L112.657 187.494Z" fill="black"/>
<path d="M113.625 188.645L120.838 186.253L120.303 184.801L113.229 187.292L113.625 188.645Z" fill="black"/>
<path opacity="0.2" d="M120.06 173.376C117.024 173.022 115.314 168.456 115.314 168.456C116.016 168.33 116.676 168.258 117.3 168.222C118.338 169.794 119.256 171.564 120.06 173.376Z" fill="black"/>
<path d="M113.754 164.237C117.053 163.747 124.436 166.421 125.077 166.39C125.716 166.358 132.902 160.733 132.902 160.733L134.761 162.371C134.761 162.371 127.259 170.108 125.716 170.191C124.173 170.274 116.103 169.673 116.103 169.673C116.103 169.673 114.134 168.969 113.754 167.189C113.374 165.409 113.754 164.237 113.754 164.237Z" fill="#F37335"/>
</svg>
